<svg width="512" height="512" version="1.1" xmlns="http://www.w3.org/2000/svg" desc="Created with imagetracer.js version 1.2.6" ><path fill="rgb(0,0,0)" stroke="rgb(0,0,0)" stroke-width="1" opacity="0" d="M 0 0 L 331 0.5 L 105 309.5 L 253 310 L 180 512 L 0 512 L 0 0 Z " /><path fill="rgb(0,0,0)" stroke="rgb(0,0,0)" stroke-width="1" opacity="0" d="M 332 0 L 512 0 L 512 512 L 181 511.5 L 407 202.5 L 259 202 L 332 0 Z " /><path fill="rgb(255,217,57)" stroke="rgb(255,217,57)" stroke-width="1" opacity="0.5215686274509804" d="M 331.5 0 L 332 2 L 330 2.5 L 331 4.5 L 330 4.5 L 329.5 3 L 107 308.5 L 254 309 L 253.5 312 L 253 310 L 105 309.5 L 331.5 0 Z " /><path fill="rgb(255,217,57)" stroke="rgb(255,217,57)" stroke-width="1" opacity="0.5215686274509804" d="M 329.5 6 L 330 7.5 L 327.5 13 L 327 11.5 L 329.5 6 Z " /><path fill="rgb(255,217,57)" stroke="rgb(255,217,57)" stroke-width="1" opacity="0.5215686274509804" d="M 326.5 14 L 327 15.5 L 323.5 24 L 323 22.5 L 326.5 14 Z " /><path fill="rgb(255,217,57)" stroke="rgb(255,217,57)" stroke-width="1" opacity="0.5215686274509804" d="M 322.5 25 L 323 26.5 L 319.5 35 L 319 33.5 L 322.5 25 Z " /><path fill="rgb(255,217,57)" stroke="rgb(255,217,57)" stroke-width="1" opacity="0.5215686274509804" d="M 318.5 36 L 319 37.5 L 315.5 46 L 315 44.5 L 318.5 36 Z " /><path fill="rgb(255,217,57)" stroke="rgb(255,217,57)" stroke-width="1" opacity="0.5215686274509804" d="M 314.5 47 L 315 48.5 L 312.5 54 L 312 52.5 L 314.5 47 Z " /><path fill="rgb(255,217,57)" stroke="rgb(255,217,57)" stroke-width="1" opacity="0.5215686274509804" d="M 310.5 58 L 311 59.5 L 308.5 65 L 308 63.5 L 310.5 58 Z " /><path fill="rgb(255,217,57)" stroke="rgb(255,217,57)" stroke-width="1" opacity="0.5215686274509804" d="M 307.5 66 L 308 67.5 L 304.5 76 L 304 74.5 L 307.5 66 Z " /><path fill="rgb(255,217,57)" stroke="rgb(255,217,57)" stroke-width="1" opacity="0.5215686274509804" d="M 303.5 77 L 304 78.5 L 300.5 87 L 300 85.5 L 303.5 77 Z " /><path fill="rgb(255,217,57)" stroke="rgb(255,217,57)" stroke-width="1" opacity="0.5215686274509804" d="M 299.5 88 L 300 89.5 L 297.5 95 L 297 93.5 L 299.5 88 Z " /><path fill="rgb(255,217,57)" stroke="rgb(255,217,57)" stroke-width="1" opacity="0.5215686274509804" d="M 295.5 99 L 296 100.5 L 293.5 106 L 293 104.5 L 295.5 99 Z " /><path fill="rgb(255,217,57)" stroke="rgb(255,217,57)" stroke-width="1" opacity="0.5215686274509804" d="M 292.5 107 L 293 108.5 L 289.5 117 L 289 115.5 L 292.5 107 Z " /><path fill="rgb(255,217,57)" stroke="rgb(255,217,57)" stroke-width="1" opacity="0.5215686274509804" d="M 288.5 118 L 289 119.5 L 285.5 128 L 285 126.5 L 288.5 118 Z " /><path fill="rgb(255,217,57)" stroke="rgb(255,217,57)" stroke-width="1" opacity="0.5215686274509804" d="M 284.5 129 L 285 130.5 L 281.5 139 L 281 137.5 L 284.5 129 Z " /><path fill="rgb(255,217,57)" stroke="rgb(255,217,57)" stroke-width="1" opacity="0.5215686274509804" d="M 280.5 140 L 281 141.5 L 278.5 147 L 278 145.5 L 280.5 140 Z " /><path fill="rgb(255,217,57)" stroke="rgb(255,217,57)" stroke-width="1" opacity="0.5215686274509804" d="M 276.5 151 L 277 152.5 L 274.5 158 L 274 156.5 L 276.5 151 Z " /><path fill="rgb(255,217,57)" stroke="rgb(255,217,57)" stroke-width="1" opacity="0.5215686274509804" d="M 273.5 159 L 274 160.5 L 270.5 169 L 270 167.5 L 273.5 159 Z " /><path fill="rgb(255,217,57)" stroke="rgb(255,217,57)" stroke-width="1" opacity="0.5215686274509804" d="M 269.5 170 L 270 171.5 L 266.5 180 L 266 178.5 L 269.5 170 Z " /><path fill="rgb(255,217,57)" stroke="rgb(255,217,57)" stroke-width="1" opacity="0.5215686274509804" d="M 265.5 181 L 266 182.5 L 263.5 188 L 263 186.5 L 265.5 181 Z " /><path fill="rgb(255,217,57)" stroke="rgb(255,217,57)" stroke-width="1" opacity="0.5215686274509804" d="M 261.5 192 L 262 193.5 L 259.5 199 L 259 197.5 L 261.5 192 Z " /><path fill="rgb(255,217,57)" stroke="rgb(255,217,57)" stroke-width="1" opacity="0.5215686274509804" d="M 258.5 200 L 259 202 L 407 202.5 L 180.5 512 L 180 510 L 182 509.5 L 181 507.5 L 182 507.5 L 182.5 509 L 405 203.5 L 258 203 L 258.5 200 Z " /><path fill="rgb(255,217,57)" stroke="rgb(255,217,57)" stroke-width="1" opacity="0.5215686274509804" d="M 252.5 313 L 253 314.5 L 250.5 320 L 250 318.5 L 252.5 313 Z " /><path fill="rgb(255,217,57)" stroke="rgb(255,217,57)" stroke-width="1" opacity="0.5215686274509804" d="M 248.5 324 L 249 325.5 L 246.5 331 L 246 329.5 L 248.5 324 Z " /><path fill="rgb(255,217,57)" stroke="rgb(255,217,57)" stroke-width="1" opacity="0.5215686274509804" d="M 245.5 332 L 246 333.5 L 242.5 342 L 242 340.5 L 245.5 332 Z " /><path fill="rgb(255,217,57)" stroke="rgb(255,217,57)" stroke-width="1" opacity="0.5215686274509804" d="M 241.5 343 L 242 344.5 L 238.5 353 L 238 351.5 L 241.5 343 Z " /><path fill="rgb(255,217,57)" stroke="rgb(255,217,57)" stroke-width="1" opacity="0.5215686274509804" d="M 237.5 354 L 238 355.5 L 235.5 361 L 235 359.5 L 237.5 354 Z " /><path fill="rgb(255,217,57)" stroke="rgb(255,217,57)" stroke-width="1" opacity="0.5215686274509804" d="M 233.5 365 L 234 366.5 L 231.5 372 L 231 370.5 L 233.5 365 Z " /><path fill="rgb(255,217,57)" stroke="rgb(255,217,57)" stroke-width="1" opacity="0.5215686274509804" d="M 230.5 373 L 231 374.5 L 227.5 383 L 227 381.5 L 230.5 373 Z " /><path fill="rgb(255,217,57)" stroke="rgb(255,217,57)" stroke-width="1" opacity="0.5215686274509804" d="M 226.5 384 L 227 385.5 L 223.5 394 L 223 392.5 L 226.5 384 Z " /><path fill="rgb(255,217,57)" stroke="rgb(255,217,57)" stroke-width="1" opacity="0.5215686274509804" d="M 222.5 395 L 223 396.5 L 219.5 405 L 219 403.5 L 222.5 395 Z " /><path fill="rgb(255,217,57)" stroke="rgb(255,217,57)" stroke-width="1" opacity="0.5215686274509804" d="M 218.5 406 L 219 407.5 L 216.5 413 L 216 411.5 L 218.5 406 Z " /><path fill="rgb(255,217,57)" stroke="rgb(255,217,57)" stroke-width="1" opacity="0.5215686274509804" d="M 214.5 417 L 215 418.5 L 212.5 424 L 212 422.5 L 214.5 417 Z " /><path fill="rgb(255,217,57)" stroke="rgb(255,217,57)" stroke-width="1" opacity="0.5215686274509804" d="M 211.5 425 L 212 426.5 L 208.5 435 L 208 433.5 L 211.5 425 Z " /><path fill="rgb(255,217,57)" stroke="rgb(255,217,57)" stroke-width="1" opacity="0.5215686274509804" d="M 207.5 436 L 208 437.5 L 204.5 446 L 204 444.5 L 207.5 436 Z " /><path fill="rgb(255,217,57)" stroke="rgb(255,217,57)" stroke-width="1" opacity="0.5215686274509804" d="M 203.5 447 L 204 448.5 L 201.5 454 L 201 452.5 L 203.5 447 Z " /><path fill="rgb(255,217,57)" stroke="rgb(255,217,57)" stroke-width="1" opacity="0.5215686274509804" d="M 199.5 458 L 200 459.5 L 197.5 465 L 197 463.5 L 199.5 458 Z " /><path fill="rgb(255,217,57)" stroke="rgb(255,217,57)" stroke-width="1" opacity="0.5215686274509804" d="M 196.5 466 L 197 467.5 L 193.5 476 L 193 474.5 L 196.5 466 Z " /><path fill="rgb(255,217,57)" stroke="rgb(255,217,57)" stroke-width="1" opacity="0.5215686274509804" d="M 192.5 477 L 193 478.5 L 189.5 487 L 189 485.5 L 192.5 477 Z " /><path fill="rgb(255,217,57)" stroke="rgb(255,217,57)" stroke-width="1" opacity="0.5215686274509804" d="M 188.5 488 L 189 489.5 L 185.5 498 L 185 496.5 L 188.5 488 Z " /><path fill="rgb(255,217,57)" stroke="rgb(255,217,57)" stroke-width="1" opacity="0.5215686274509804" d="M 184.5 499 L 185 500.5 L 182.5 506 L 182 504.5 L 184.5 499 Z " /><path fill="rgb(255,216,59)" stroke="rgb(255,216,59)" stroke-width="1" opacity="0.996078431372549" d="M 330.5 2 L 329.5 4 L 330.5 2 Z " /><path fill="rgb(255,216,59)" stroke="rgb(255,216,59)" stroke-width="1" opacity="0.996078431372549" d="M 328.5 5 L 330 5.5 L 328 6.5 L 328.5 8 Q 325.5 6.5 328.5 5 Z " /><path fill="rgb(255,216,59)" stroke="rgb(255,216,59)" stroke-width="1" opacity="0.996078431372549" d="M 325.5 9 L 324.5 11 L 325.5 9 Z " /><path fill="rgb(255,216,59)" stroke="rgb(255,216,59)" stroke-width="1" opacity="0.996078431372549" d="M 322.5 13 L 321.5 15 L 322.5 13 Z " /><path fill="rgb(255,216,59)" stroke="rgb(255,216,59)" stroke-width="1" opacity="0.996078431372549" d="M 320.5 16 L 319.5 18 L 320.5 16 Z " /><path fill="rgb(255,216,59)" stroke="rgb(255,216,59)" stroke-width="1" opacity="0.996078431372549" d="M 317.5 20 L 316.5 22 L 317.5 20 Z " /><path fill="rgb(255,216,59)" stroke="rgb(255,216,59)" stroke-width="1" opacity="0.996078431372549" d="M 314.5 24 L 313.5 26 L 314.5 24 Z " /><path fill="rgb(255,216,59)" stroke="rgb(255,216,59)" stroke-width="1" opacity="0.996078431372549" d="M 312.5 27 L 311.5 29 L 312.5 27 Z " /><path fill="rgb(255,216,59)" stroke="rgb(255,216,59)" stroke-width="1" opacity="0.996078431372549" d="M 309.5 31 L 308.5 33 L 309.5 31 Z " /><path fill="rgb(255,216,59)" stroke="rgb(255,216,59)" stroke-width="1" opacity="0.996078431372549" d="M 306.5 35 L 305.5 37 L 306.5 35 Z " /><path fill="rgb(255,216,59)" stroke="rgb(255,216,59)" stroke-width="1" opacity="0.996078431372549" d="M 301.5 42 L 300.5 44 L 301.5 42 Z " /><path fill="rgb(255,216,59)" stroke="rgb(255,216,59)" stroke-width="1" opacity="0.996078431372549" d="M 298.5 46 L 297.5 48 L 298.5 46 Z " /><path fill="rgb(255,216,59)" stroke="rgb(255,216,59)" stroke-width="1" opacity="0.996078431372549" d="M 295.5 50 L 294.5 52 L 295.5 50 Z " /><path fill="rgb(255,216,59)" stroke="rgb(255,216,59)" stroke-width="1" opacity="0.996078431372549" d="M 293.5 53 L 292.5 55 L 293.5 53 Z " /><path fill="rgb(255,216,59)" stroke="rgb(255,216,59)" stroke-width="1" opacity="0.996078431372549" d="M 290.5 57 L 289.5 59 L 290.5 57 Z " /><path fill="rgb(255,216,59)" stroke="rgb(255,216,59)" stroke-width="1" opacity="0.996078431372549" d="M 287.5 61 L 286.5 63 L 287.5 61 Z " /><path fill="rgb(255,216,59)" stroke="rgb(255,216,59)" stroke-width="1" opacity="0.996078431372549" d="M 285.5 64 L 284.5 66 L 285.5 64 Z " /><path fill="rgb(255,216,59)" stroke="rgb(255,216,59)" stroke-width="1" opacity="0.996078431372549" d="M 282.5 68 L 281.5 70 L 282.5 68 Z " /><path fill="rgb(255,216,59)" stroke="rgb(255,216,59)" stroke-width="1" opacity="0.996078431372549" d="M 279.5 72 L 278.5 74 L 279.5 72 Z " /><path fill="rgb(255,216,59)" stroke="rgb(255,216,59)" stroke-width="1" opacity="0.996078431372549" d="M 274.5 79 L 273.5 81 L 274.5 79 Z " /><path fill="rgb(255,216,59)" stroke="rgb(255,216,59)" stroke-width="1" opacity="0.996078431372549" d="M 271.5 83 L 270.5 85 L 271.5 83 Z " /><path fill="rgb(255,216,59)" stroke="rgb(255,216,59)" stroke-width="1" opacity="0.996078431372549" d="M 268.5 87 L 267.5 89 L 268.5 87 Z " /><path fill="rgb(255,216,59)" stroke="rgb(255,216,59)" stroke-width="1" opacity="0.996078431372549" d="M 266.5 90 L 265.5 92 L 266.5 90 Z " /><path fill="rgb(255,216,59)" stroke="rgb(255,216,59)" stroke-width="1" opacity="0.996078431372549" d="M 263.5 94 L 262.5 96 L 263.5 94 Z " /><path fill="rgb(255,216,59)" stroke="rgb(255,216,59)" stroke-width="1" opacity="0.996078431372549" d="M 260.5 98 L 259.5 100 L 260.5 98 Z " /><path fill="rgb(255,216,59)" stroke="rgb(255,216,59)" stroke-width="1" opacity="0.996078431372549" d="M 258.5 101 L 257.5 103 L 258.5 101 Z " /><path fill="rgb(255,216,59)" stroke="rgb(255,216,59)" stroke-width="1" opacity="0.996078431372549" d="M 255.5 105 L 254.5 107 L 255.5 105 Z " /><path fill="rgb(255,216,59)" stroke="rgb(255,216,59)" stroke-width="1" opacity="0.996078431372549" d="M 252.5 109 L 251.5 111 L 252.5 109 Z " /><path fill="rgb(255,216,59)" stroke="rgb(255,216,59)" stroke-width="1" opacity="0.996078431372549" d="M 250.5 112 L 249.5 114 L 250.5 112 Z " /><path fill="rgb(255,216,59)" stroke="rgb(255,216,59)" stroke-width="1" opacity="0.996078431372549" d="M 247.5 116 L 246.5 118 L 247.5 116 Z " /><path fill="rgb(255,216,59)" stroke="rgb(255,216,59)" stroke-width="1" opacity="0.996078431372549" d="M 244.5 120 L 243.5 122 L 244.5 120 Z " /><path fill="rgb(255,216,59)" stroke="rgb(255,216,59)" stroke-width="1" opacity="0.996078431372549" d="M 239.5 127 L 238.5 129 L 239.5 127 Z " /><path fill="rgb(255,216,59)" stroke="rgb(255,216,59)" stroke-width="1" opacity="0.996078431372549" d="M 236.5 131 L 235.5 133 L 236.5 131 Z " /><path fill="rgb(255,216,59)" stroke="rgb(255,216,59)" stroke-width="1" opacity="0.996078431372549" d="M 233.5 135 L 232.5 137 L 233.5 135 Z " /><path fill="rgb(255,216,59)" stroke="rgb(255,216,59)" stroke-width="1" opacity="0.996078431372549" d="M 231.5 138 L 230.5 140 L 231.5 138 Z " /><path fill="rgb(255,216,59)" stroke="rgb(255,216,59)" stroke-width="1" opacity="0.996078431372549" d="M 228.5 142 L 227.5 144 L 228.5 142 Z " /><path fill="rgb(255,216,59)" stroke="rgb(255,216,59)" stroke-width="1" opacity="0.996078431372549" d="M 225.5 146 L 224.5 148 L 225.5 146 Z " /><path fill="rgb(255,216,59)" stroke="rgb(255,216,59)" stroke-width="1" opacity="0.996078431372549" d="M 223.5 149 L 222.5 151 L 223.5 149 Z " /><path fill="rgb(255,216,59)" stroke="rgb(255,216,59)" stroke-width="1" opacity="0.996078431372549" d="M 220.5 153 L 219.5 155 L 220.5 153 Z " /><path fill="rgb(255,216,59)" stroke="rgb(255,216,59)" stroke-width="1" opacity="0.996078431372549" d="M 217.5 157 L 216.5 159 L 217.5 157 Z " /><path fill="rgb(255,216,59)" stroke="rgb(255,216,59)" stroke-width="1" opacity="0.996078431372549" d="M 212.5 164 L 211.5 166 L 212.5 164 Z " /><path fill="rgb(255,216,59)" stroke="rgb(255,216,59)" stroke-width="1" opacity="0.996078431372549" d="M 209.5 168 L 208.5 170 L 209.5 168 Z " /><path fill="rgb(255,216,59)" stroke="rgb(255,216,59)" stroke-width="1" opacity="0.996078431372549" d="M 206.5 172 L 205.5 174 L 206.5 172 Z " /><path fill="rgb(255,216,59)" stroke="rgb(255,216,59)" stroke-width="1" opacity="0.996078431372549" d="M 204.5 175 L 203.5 177 L 204.5 175 Z " /><path fill="rgb(255,216,59)" stroke="rgb(255,216,59)" stroke-width="1" opacity="0.996078431372549" d="M 201.5 179 L 200.5 181 L 201.5 179 Z " /><path fill="rgb(255,216,59)" stroke="rgb(255,216,59)" stroke-width="1" opacity="0.996078431372549" d="M 198.5 183 L 197.5 185 L 198.5 183 Z " /><path fill="rgb(255,216,59)" stroke="rgb(255,216,59)" stroke-width="1" opacity="0.996078431372549" d="M 196.5 186 L 195.5 188 L 196.5 186 Z " /><path fill="rgb(255,216,59)" stroke="rgb(255,216,59)" stroke-width="1" opacity="0.996078431372549" d="M 193.5 190 L 192.5 192 L 193.5 190 Z " /><path fill="rgb(255,216,59)" stroke="rgb(255,216,59)" stroke-width="1" opacity="0.996078431372549" d="M 190.5 194 L 189.5 196 L 190.5 194 Z " /><path fill="rgb(255,216,59)" stroke="rgb(255,216,59)" stroke-width="1" opacity="0.996078431372549" d="M 188.5 197 L 187.5 199 L 188.5 197 Z " /><path fill="rgb(255,216,59)" stroke="rgb(255,216,59)" stroke-width="1" opacity="0.996078431372549" d="M 185.5 201 L 184.5 203 L 185.5 201 Z " /><path fill="rgb(255,216,59)" stroke="rgb(255,216,59)" stroke-width="1" opacity="0.996078431372549" d="M 182.5 205 L 181.5 207 L 182.5 205 Z " /><path fill="rgb(255,216,59)" stroke="rgb(255,216,59)" stroke-width="1" opacity="0.996078431372549" d="M 403.5 205 L 402.5 207 L 403.5 205 Z " /><path fill="rgb(255,216,59)" stroke="rgb(255,216,59)" stroke-width="1" opacity="0.996078431372549" d="M 400.5 209 L 399.5 211 L 400.5 209 Z " /><path fill="rgb(255,216,59)" stroke="rgb(255,216,59)" stroke-width="1" opacity="0.996078431372549" d="M 177.5 212 L 176.5 214 L 177.5 212 Z " /><path fill="rgb(255,216,59)" stroke="rgb(255,216,59)" stroke-width="1" opacity="0.996078431372549" d="M 397.5 213 L 396.5 215 L 397.5 213 Z " /><path fill="rgb(255,216,59)" stroke="rgb(255,216,59)" stroke-width="1" opacity="0.996078431372549" d="M 174.5 216 L 173.5 218 L 174.5 216 Z " /><path fill="rgb(255,216,59)" stroke="rgb(255,216,59)" stroke-width="1" opacity="0.996078431372549" d="M 171.5 220 L 170.5 222 L 171.5 220 Z " /><path fill="rgb(255,216,59)" stroke="rgb(255,216,59)" stroke-width="1" opacity="0.996078431372549" d="M 392.5 220 L 391.5 222 L 392.5 220 Z " /><path fill="rgb(255,216,59)" stroke="rgb(255,216,59)" stroke-width="1" opacity="0.996078431372549" d="M 169.5 223 L 168.5 225 L 169.5 223 Z " /><path fill="rgb(255,216,59)" stroke="rgb(255,216,59)" stroke-width="1" opacity="0.996078431372549" d="M 389.5 224 L 388.5 226 L 389.5 224 Z " /><path fill="rgb(255,216,59)" stroke="rgb(255,216,59)" stroke-width="1" opacity="0.996078431372549" d="M 166.5 227 L 165.5 229 L 166.5 227 Z " /><path fill="rgb(255,216,59)" stroke="rgb(255,216,59)" stroke-width="1" opacity="0.996078431372549" d="M 386.5 228 L 385.5 230 L 386.5 228 Z " /><path fill="rgb(255,216,59)" stroke="rgb(255,216,59)" stroke-width="1" opacity="0.996078431372549" d="M 163.5 231 L 162.5 233 L 163.5 231 Z " /><path fill="rgb(255,216,59)" stroke="rgb(255,216,59)" stroke-width="1" opacity="0.996078431372549" d="M 384.5 231 L 383.5 233 L 384.5 231 Z " /><path fill="rgb(255,216,59)" stroke="rgb(255,216,59)" stroke-width="1" opacity="0.996078431372549" d="M 161.5 234 L 160.5 236 L 161.5 234 Z " /><path fill="rgb(255,216,59)" stroke="rgb(255,216,59)" stroke-width="1" opacity="0.996078431372549" d="M 381.5 235 L 380.5 237 L 381.5 235 Z " /><path fill="rgb(255,216,59)" stroke="rgb(255,216,59)" stroke-width="1" opacity="0.996078431372549" d="M 158.5 238 L 157.5 240 L 158.5 238 Z " /><path fill="rgb(255,216,59)" stroke="rgb(255,216,59)" stroke-width="1" opacity="0.996078431372549" d="M 378.5 239 L 377.5 241 L 378.5 239 Z " /><path fill="rgb(255,216,59)" stroke="rgb(255,216,59)" stroke-width="1" opacity="0.996078431372549" d="M 155.5 242 L 154.5 244 L 155.5 242 Z " /><path fill="rgb(255,216,59)" stroke="rgb(255,216,59)" stroke-width="1" opacity="0.996078431372549" d="M 376.5 242 L 375.5 244 L 376.5 242 Z " /><path fill="rgb(255,216,59)" stroke="rgb(255,216,59)" stroke-width="1" opacity="0.996078431372549" d="M 373.5 246 L 372.5 248 L 373.5 246 Z " /><path fill="rgb(255,216,59)" stroke="rgb(255,216,59)" stroke-width="1" opacity="0.996078431372549" d="M 150.5 249 L 149.5 251 L 150.5 249 Z " /><path fill="rgb(255,216,59)" stroke="rgb(255,216,59)" stroke-width="1" opacity="0.996078431372549" d="M 370.5 250 L 369.5 252 L 370.5 250 Z " /><path fill="rgb(255,216,59)" stroke="rgb(255,216,59)" stroke-width="1" opacity="0.996078431372549" d="M 147.5 253 L 146.5 255 L 147.5 253 Z " /><path fill="rgb(255,216,59)" stroke="rgb(255,216,59)" stroke-width="1" opacity="0.996078431372549" d="M 368.5 253 L 367.5 255 L 368.5 253 Z " /><path fill="rgb(255,216,59)" stroke="rgb(255,216,59)" stroke-width="1" opacity="0.996078431372549" d="M 144.5 257 L 143.5 259 L 144.5 257 Z " /><path fill="rgb(255,216,59)" stroke="rgb(255,216,59)" stroke-width="1" opacity="0.996078431372549" d="M 365.5 257 L 364.5 259 L 365.5 257 Z " /><path fill="rgb(255,216,59)" stroke="rgb(255,216,59)" stroke-width="1" opacity="0.996078431372549" d="M 142.5 260 L 141.5 262 L 142.5 260 Z " /><path fill="rgb(255,216,59)" stroke="rgb(255,216,59)" stroke-width="1" opacity="0.996078431372549" d="M 362.5 261 L 361.5 263 L 362.5 261 Z " /><path fill="rgb(255,216,59)" stroke="rgb(255,216,59)" stroke-width="1" opacity="0.996078431372549" d="M 139.5 264 L 138.5 266 L 139.5 264 Z " /><path fill="rgb(255,216,59)" stroke="rgb(255,216,59)" stroke-width="1" opacity="0.996078431372549" d="M 136.5 268 L 135.5 270 L 136.5 268 Z " /><path fill="rgb(255,216,59)" stroke="rgb(255,216,59)" stroke-width="1" opacity="0.996078431372549" d="M 357.5 268 L 356.5 270 L 357.5 268 Z " /><path fill="rgb(255,216,59)" stroke="rgb(255,216,59)" stroke-width="1" opacity="0.996078431372549" d="M 134.5 271 L 133.5 273 L 134.5 271 Z " /><path fill="rgb(255,216,59)" stroke="rgb(255,216,59)" stroke-width="1" opacity="0.996078431372549" d="M 354.5 272 L 353.5 274 L 354.5 272 Z " /><path fill="rgb(255,216,59)" stroke="rgb(255,216,59)" stroke-width="1" opacity="0.996078431372549" d="M 131.5 275 L 130.5 277 L 131.5 275 Z " /><path fill="rgb(255,216,59)" stroke="rgb(255,216,59)" stroke-width="1" opacity="0.996078431372549" d="M 351.5 276 L 350.5 278 L 351.5 276 Z " /><path fill="rgb(255,216,59)" stroke="rgb(255,216,59)" stroke-width="1" opacity="0.996078431372549" d="M 128.5 279 L 127.5 281 L 128.5 279 Z " /><path fill="rgb(255,216,59)" stroke="rgb(255,216,59)" stroke-width="1" opacity="0.996078431372549" d="M 349.5 279 L 348.5 281 L 349.5 279 Z " /><path fill="rgb(255,216,59)" stroke="rgb(255,216,59)" stroke-width="1" opacity="0.996078431372549" d="M 126.5 282 L 125.5 284 L 126.5 282 Z " /><path fill="rgb(255,216,59)" stroke="rgb(255,216,59)" stroke-width="1" opacity="0.996078431372549" d="M 346.5 283 L 345.5 285 L 346.5 283 Z " /><path fill="rgb(255,216,59)" stroke="rgb(255,216,59)" stroke-width="1" opacity="0.996078431372549" d="M 123.5 286 L 122.5 288 L 123.5 286 Z " /><path fill="rgb(255,216,59)" stroke="rgb(255,216,59)" stroke-width="1" opacity="0.996078431372549" d="M 343.5 287 L 342.5 289 L 343.5 287 Z " /><path fill="rgb(255,216,59)" stroke="rgb(255,216,59)" stroke-width="1" opacity="0.996078431372549" d="M 120.5 290 L 119.5 292 L 120.5 290 Z " /><path fill="rgb(255,216,59)" stroke="rgb(255,216,59)" stroke-width="1" opacity="0.996078431372549" d="M 341.5 290 L 340.5 292 L 341.5 290 Z " /><path fill="rgb(255,216,59)" stroke="rgb(255,216,59)" stroke-width="1" opacity="0.996078431372549" d="M 338.5 294 L 337.5 296 L 338.5 294 Z " /><path fill="rgb(255,216,59)" stroke="rgb(255,216,59)" stroke-width="1" opacity="0.996078431372549" d="M 115.5 297 L 114.5 299 L 115.5 297 Z " /><path fill="rgb(255,216,59)" stroke="rgb(255,216,59)" stroke-width="1" opacity="0.996078431372549" d="M 335.5 298 L 334.5 300 L 335.5 298 Z " /><path fill="rgb(255,216,59)" stroke="rgb(255,216,59)" stroke-width="1" opacity="0.996078431372549" d="M 112.5 301 L 111.5 303 L 112.5 301 Z " /><path fill="rgb(255,216,59)" stroke="rgb(255,216,59)" stroke-width="1" opacity="0.996078431372549" d="M 109.5 305 L 108.5 307 L 109.5 305 Z " /><path fill="rgb(255,216,59)" stroke="rgb(255,216,59)" stroke-width="1" opacity="0.996078431372549" d="M 330.5 305 L 329.5 307 L 330.5 305 Z " /><path fill="rgb(255,216,59)" stroke="rgb(255,216,59)" stroke-width="1" opacity="0.996078431372549" d="M 327.5 309 L 326.5 311 L 327.5 309 Z " /><path fill="rgb(255,216,59)" stroke="rgb(255,216,59)" stroke-width="1" opacity="0.996078431372549" d="M 324.5 313 L 323.5 315 L 324.5 313 Z " /><path fill="rgb(255,216,59)" stroke="rgb(255,216,59)" stroke-width="1" opacity="0.996078431372549" d="M 322.5 316 L 321.5 318 L 322.5 316 Z " /><path fill="rgb(255,216,59)" stroke="rgb(255,216,59)" stroke-width="1" opacity="0.996078431372549" d="M 319.5 320 L 318.5 322 L 319.5 320 Z " /><path fill="rgb(255,216,59)" stroke="rgb(255,216,59)" stroke-width="1" opacity="0.996078431372549" d="M 316.5 324 L 315.5 326 L 316.5 324 Z " /><path fill="rgb(255,216,59)" stroke="rgb(255,216,59)" stroke-width="1" opacity="0.996078431372549" d="M 314.5 327 L 313.5 329 L 314.5 327 Z " /><path fill="rgb(255,216,59)" stroke="rgb(255,216,59)" stroke-width="1" opacity="0.996078431372549" d="M 311.5 331 L 310.5 333 L 311.5 331 Z " /><path fill="rgb(255,216,59)" stroke="rgb(255,216,59)" stroke-width="1" opacity="0.996078431372549" d="M 308.5 335 L 307.5 337 L 308.5 335 Z " /><path fill="rgb(255,216,59)" stroke="rgb(255,216,59)" stroke-width="1" opacity="0.996078431372549" d="M 306.5 338 L 305.5 340 L 306.5 338 Z " /><path fill="rgb(255,216,59)" stroke="rgb(255,216,59)" stroke-width="1" opacity="0.996078431372549" d="M 303.5 342 L 302.5 344 L 303.5 342 Z " /><path fill="rgb(255,216,59)" stroke="rgb(255,216,59)" stroke-width="1" opacity="0.996078431372549" d="M 300.5 346 L 299.5 348 L 300.5 346 Z " /><path fill="rgb(255,216,59)" stroke="rgb(255,216,59)" stroke-width="1" opacity="0.996078431372549" d="M 295.5 353 L 294.5 355 L 295.5 353 Z " /><path fill="rgb(255,216,59)" stroke="rgb(255,216,59)" stroke-width="1" opacity="0.996078431372549" d="M 292.5 357 L 291.5 359 L 292.5 357 Z " /><path fill="rgb(255,216,59)" stroke="rgb(255,216,59)" stroke-width="1" opacity="0.996078431372549" d="M 289.5 361 L 288.5 363 L 289.5 361 Z " /><path fill="rgb(255,216,59)" stroke="rgb(255,216,59)" stroke-width="1" opacity="0.996078431372549" d="M 287.5 364 L 286.5 366 L 287.5 364 Z " /><path fill="rgb(255,216,59)" stroke="rgb(255,216,59)" stroke-width="1" opacity="0.996078431372549" d="M 284.5 368 L 283.5 370 L 284.5 368 Z " /><path fill="rgb(255,216,59)" stroke="rgb(255,216,59)" stroke-width="1" opacity="0.996078431372549" d="M 281.5 372 L 280.5 374 L 281.5 372 Z " /><path fill="rgb(255,216,59)" stroke="rgb(255,216,59)" stroke-width="1" opacity="0.996078431372549" d="M 279.5 375 L 278.5 377 L 279.5 375 Z " /><path fill="rgb(255,216,59)" stroke="rgb(255,216,59)" stroke-width="1" opacity="0.996078431372549" d="M 276.5 379 L 275.5 381 L 276.5 379 Z " /><path fill="rgb(255,216,59)" stroke="rgb(255,216,59)" stroke-width="1" opacity="0.996078431372549" d="M 273.5 383 L 272.5 385 L 273.5 383 Z " /><path fill="rgb(255,216,59)" stroke="rgb(255,216,59)" stroke-width="1" opacity="0.996078431372549" d="M 268.5 390 L 267.5 392 L 268.5 390 Z " /><path fill="rgb(255,216,59)" stroke="rgb(255,216,59)" stroke-width="1" opacity="0.996078431372549" d="M 265.5 394 L 264.5 396 L 265.5 394 Z " /><path fill="rgb(255,216,59)" stroke="rgb(255,216,59)" stroke-width="1" opacity="0.996078431372549" d="M 262.5 398 L 261.5 400 L 262.5 398 Z " /><path fill="rgb(255,216,59)" stroke="rgb(255,216,59)" stroke-width="1" opacity="0.996078431372549" d="M 260.5 401 L 259.5 403 L 260.5 401 Z " /><path fill="rgb(255,216,59)" stroke="rgb(255,216,59)" stroke-width="1" opacity="0.996078431372549" d="M 257.5 405 L 256.5 407 L 257.5 405 Z " /><path fill="rgb(255,216,59)" stroke="rgb(255,216,59)" stroke-width="1" opacity="0.996078431372549" d="M 254.5 409 L 253.5 411 L 254.5 409 Z " /><path fill="rgb(255,216,59)" stroke="rgb(255,216,59)" stroke-width="1" opacity="0.996078431372549" d="M 252.5 412 L 251.5 414 L 252.5 412 Z " /><path fill="rgb(255,216,59)" stroke="rgb(255,216,59)" stroke-width="1" opacity="0.996078431372549" d="M 249.5 416 L 248.5 418 L 249.5 416 Z " /><path fill="rgb(255,216,59)" stroke="rgb(255,216,59)" stroke-width="1" opacity="0.996078431372549" d="M 246.5 420 L 245.5 422 L 246.5 420 Z " /><path fill="rgb(255,216,59)" stroke="rgb(255,216,59)" stroke-width="1" opacity="0.996078431372549" d="M 244.5 423 L 243.5 425 L 244.5 423 Z " /><path fill="rgb(255,216,59)" stroke="rgb(255,216,59)" stroke-width="1" opacity="0.996078431372549" d="M 241.5 427 L 240.5 429 L 241.5 427 Z " /><path fill="rgb(255,216,59)" stroke="rgb(255,216,59)" stroke-width="1" opacity="0.996078431372549" d="M 238.5 431 L 237.5 433 L 238.5 431 Z " /><path fill="rgb(255,216,59)" stroke="rgb(255,216,59)" stroke-width="1" opacity="0.996078431372549" d="M 233.5 438 L 232.5 440 L 233.5 438 Z " /><path fill="rgb(255,216,59)" stroke="rgb(255,216,59)" stroke-width="1" opacity="0.996078431372549" d="M 230.5 442 L 229.5 444 L 230.5 442 Z " /><path fill="rgb(255,216,59)" stroke="rgb(255,216,59)" stroke-width="1" opacity="0.996078431372549" d="M 227.5 446 L 226.5 448 L 227.5 446 Z " /><path fill="rgb(255,216,59)" stroke="rgb(255,216,59)" stroke-width="1" opacity="0.996078431372549" d="M 225.5 449 L 224.5 451 L 225.5 449 Z " /><path fill="rgb(255,216,59)" stroke="rgb(255,216,59)" stroke-width="1" opacity="0.996078431372549" d="M 222.5 453 L 221.5 455 L 222.5 453 Z " /><path fill="rgb(255,216,59)" stroke="rgb(255,216,59)" stroke-width="1" opacity="0.996078431372549" d="M 219.5 457 L 218.5 459 L 219.5 457 Z " /><path fill="rgb(255,216,59)" stroke="rgb(255,216,59)" stroke-width="1" opacity="0.996078431372549" d="M 217.5 460 L 216.5 462 L 217.5 460 Z " /><path fill="rgb(255,216,59)" stroke="rgb(255,216,59)" stroke-width="1" opacity="0.996078431372549" d="M 214.5 464 L 213.5 466 L 214.5 464 Z " /><path fill="rgb(255,216,59)" stroke="rgb(255,216,59)" stroke-width="1" opacity="0.996078431372549" d="M 211.5 468 L 210.5 470 L 211.5 468 Z " /><path fill="rgb(255,216,59)" stroke="rgb(255,216,59)" stroke-width="1" opacity="0.996078431372549" d="M 206.5 475 L 205.5 477 L 206.5 475 Z " /><path fill="rgb(255,216,59)" stroke="rgb(255,216,59)" stroke-width="1" opacity="0.996078431372549" d="M 203.5 479 L 202.5 481 L 203.5 479 Z " /><path fill="rgb(255,216,59)" stroke="rgb(255,216,59)" stroke-width="1" opacity="0.996078431372549" d="M 200.5 483 L 199.5 485 L 200.5 483 Z " /><path fill="rgb(255,216,59)" stroke="rgb(255,216,59)" stroke-width="1" opacity="0.996078431372549" d="M 198.5 486 L 197.5 488 L 198.5 486 Z " /><path fill="rgb(255,216,59)" stroke="rgb(255,216,59)" stroke-width="1" opacity="0.996078431372549" d="M 195.5 490 L 194.5 492 L 195.5 490 Z " /><path fill="rgb(255,216,59)" stroke="rgb(255,216,59)" stroke-width="1" opacity="0.996078431372549" d="M 192.5 494 L 191.5 496 L 192.5 494 Z " /><path fill="rgb(255,216,59)" stroke="rgb(255,216,59)" stroke-width="1" opacity="0.996078431372549" d="M 190.5 497 L 189.5 499 L 190.5 497 Z " /><path fill="rgb(255,216,59)" stroke="rgb(255,216,59)" stroke-width="1" opacity="0.996078431372549" d="M 187.5 501 L 186.5 503 L 187.5 501 Z " /><path fill="rgb(255,216,59)" stroke="rgb(255,216,59)" stroke-width="1" opacity="0.996078431372549" d="M 183.5 504 Q 186.5 505.5 183.5 507 L 182 506.5 L 184 505.5 L 183.5 504 Z " /><path fill="rgb(255,216,59)" stroke="rgb(255,216,59)" stroke-width="1" opacity="0.996078431372549" d="M 182.5 508 L 181.5 510 L 182.5 508 Z " /><path fill="rgb(255,216,59)" stroke="rgb(255,216,59)" stroke-width="1" opacity="1" d="M 328.5 6 L 328 7.5 L 257 203 L 403.5 203 L 404 204.5 L 183.5 506 L 184 504.5 L 255 309 L 108.5 309 L 108 307.5 L 328.5 6 Z " /></svg>