<svg width="512" height="512" version="1.1" xmlns="http://www.w3.org/2000/svg" desc="Created with imagetracer.js version 1.2.6" ><path fill="rgb(0,0,0)" stroke="rgb(0,0,0)" stroke-width="1" opacity="0" d="M 0 0 L 512 0 L 512 512 L 0 512 L 0 0 Z M 14 8 L 12 9 L 8 14 L 8 61 L 12 70 L 23 78 L 24 79 L 24 456 L 14 456 L 12 457 L 8 462 L 8 499 L 9 501 L 14 504 L 499 504 L 501 503 L 504 499 L 504 462 L 503 460 L 499 456 L 489 456 L 488 456 L 488 78 L 494 76 Q 501 71 504 61 L 504 14 L 503 12 L 499 8 L 492 9 L 488 14 L 488 32 L 472 32 L 472 14 L 471 12 L 467 8 L 460 9 L 456 14 L 456 32 L 440 32 L 440 14 L 439 12 L 435 8 L 428 9 L 424 14 L 424 32 L 408 32 L 408 14 L 407 12 L 403 8 L 396 9 L 392 14 L 392 32 L 376 32 L 376 14 L 375 12 L 371 8 L 364 9 L 360 14 L 360 61 L 364 70 Q 368 76 376 78 L 376 152 L 376 152 L 360 152 L 360 134 L 359 132 L 355 128 L 348 129 L 344 134 L 344 152 L 328 152 L 328 134 L 327 132 L 323 128 L 316 129 L 312 134 L 312 152 L 296 152 L 296 134 L 295 132 L 291 128 L 284 129 L 280 134 L 280 152 L 264 152 L 264 134 L 263 132 L 259 128 L 252 129 L 248 134 L 248 152 L 232 152 L 232 134 L 231 132 L 227 128 L 220 129 L 216 134 L 216 152 L 200 152 L 200 134 L 199 132 L 195 128 L 188 129 L 184 134 L 184 152 L 168 152 L 168 134 L 167 132 L 163 128 L 156 129 L 152 134 L 152 152 L 137 152 L 136 152 L 136 78 L 142 76 Q 149 71 152 61 L 152 14 L 151 12 L 147 8 L 140 9 L 136 14 L 136 32 L 120 32 L 120 14 L 119 12 L 115 8 L 108 9 L 104 14 L 104 32 L 88 32 L 88 14 L 87 12 L 83 8 L 76 9 L 72 14 L 72 32 L 56 32 L 56 14 L 55 12 L 51 8 L 44 9 L 40 14 L 40 32 L 24 32 L 24 14 L 23 12 Q 21 7 14 8 Z " /><path fill="rgb(188,143,125)" stroke="rgb(188,143,125)" stroke-width="1" opacity="1" d="M 24 48 L 135.5 48 L 136 48.5 L 136 57.5 L 132.5 63 L 129.5 64 L 30.5 64 L 25 60.5 L 24 58.5 L 24 48 Z " /><path fill="rgb(188,143,125)" stroke="rgb(188,143,125)" stroke-width="1" opacity="1" d="M 376 48 L 487.5 48 L 488 48.5 L 488 57.5 L 484.5 63 L 481.5 64 L 382.5 64 L 377 60.5 L 376 58.5 L 376 48 Z " /><path fill="rgb(188,143,125)" stroke="rgb(188,143,125)" stroke-width="1" opacity="1" d="M 64.5 109 L 61.5 113 L 64.5 109 Z " /><path fill="rgb(188,143,125)" stroke="rgb(188,143,125)" stroke-width="1" opacity="1" d="M 95.5 109 L 98.5 113 L 95.5 109 Z " /><path fill="rgb(188,143,125)" stroke="rgb(188,143,125)" stroke-width="1" opacity="1" d="M 416.5 109 L 413.5 113 L 416.5 109 Z " /><path fill="rgb(188,143,125)" stroke="rgb(188,143,125)" stroke-width="1" opacity="1" d="M 447.5 109 L 450.5 113 L 447.5 109 Z " /><path fill="rgb(188,143,125)" stroke="rgb(188,143,125)" stroke-width="1" opacity="1" d="M 77.5 120 Q 85.1 118.9 87 123.5 L 88 126.5 L 88 152 L 72 152 L 72 125.5 L 75.5 121 L 77.5 120 Z " /><path fill="rgb(188,143,125)" stroke="rgb(188,143,125)" stroke-width="1" opacity="1" d="M 429.5 120 Q 437.1 118.9 439 123.5 L 440 126.5 L 440 152 L 424 152 L 424 125.5 L 427.5 121 L 429.5 120 Z " /><path fill="rgb(188,143,125)" stroke="rgb(188,143,125)" stroke-width="1" opacity="1" d="M 56.5 162 L 58 164.5 L 56 163.5 L 56.5 162 Z " /><path fill="rgb(188,143,125)" stroke="rgb(188,143,125)" stroke-width="1" opacity="1" d="M 103.5 162 L 104 163.5 L 102 164.5 L 103.5 162 Z " /><path fill="rgb(188,143,125)" stroke="rgb(188,143,125)" stroke-width="1" opacity="1" d="M 408.5 162 L 410 164.5 L 408 163.5 L 408.5 162 Z " /><path fill="rgb(188,143,125)" stroke="rgb(188,143,125)" stroke-width="1" opacity="1" d="M 455.5 162 L 456 163.5 L 454 164.5 L 455.5 162 Z " /><path fill="rgb(188,143,125)" stroke="rgb(188,143,125)" stroke-width="1" opacity="1" d="M 59.5 166 L 62 167.5 L 60.5 168 L 59.5 166 Z " /><path fill="rgb(188,143,125)" stroke="rgb(188,143,125)" stroke-width="1" opacity="1" d="M 100.5 166 L 99.5 168 L 98 167.5 L 100.5 166 Z " /><path fill="rgb(188,143,125)" stroke="rgb(188,143,125)" stroke-width="1" opacity="1" d="M 411.5 166 L 414 167.5 L 412.5 168 L 411.5 166 Z " /><path fill="rgb(188,143,125)" stroke="rgb(188,143,125)" stroke-width="1" opacity="1" d="M 452.5 166 L 451.5 168 L 450 167.5 L 452.5 166 Z " /><path fill="rgb(188,143,125)" stroke="rgb(188,143,125)" stroke-width="1" opacity="1" d="M 136 168 L 375.5 168 L 376 168.5 L 376 184 L 136.5 184 L 136 183.5 L 136 168 Z " /><path fill="rgb(188,143,125)" stroke="rgb(188,143,125)" stroke-width="1" opacity="1" d="M 64.5 197 L 61.5 201 L 64.5 197 Z " /><path fill="rgb(188,143,125)" stroke="rgb(188,143,125)" stroke-width="1" opacity="1" d="M 95.5 197 L 98.5 201 L 95.5 197 Z " /><path fill="rgb(188,143,125)" stroke="rgb(188,143,125)" stroke-width="1" opacity="1" d="M 416.5 197 L 413.5 201 L 416.5 197 Z " /><path fill="rgb(188,143,125)" stroke="rgb(188,143,125)" stroke-width="1" opacity="1" d="M 447.5 197 L 450.5 201 L 447.5 197 Z " /><path fill="rgb(188,143,125)" stroke="rgb(188,143,125)" stroke-width="1" opacity="1" d="M 77.5 208 Q 85.1 206.9 87 211.5 L 88 214.5 L 88 240 L 72 240 L 72 213.5 L 75.5 209 L 77.5 208 Z " /><path fill="rgb(188,143,125)" stroke="rgb(188,143,125)" stroke-width="1" opacity="1" d="M 429.5 208 Q 437.1 206.9 439 211.5 L 440 214.5 L 440 240 L 424 240 L 424 213.5 L 427.5 209 L 429.5 208 Z " /><path fill="rgb(188,143,125)" stroke="rgb(188,143,125)" stroke-width="1" opacity="1" d="M 168.5 229 L 165.5 233 L 168.5 229 Z " /><path fill="rgb(188,143,125)" stroke="rgb(188,143,125)" stroke-width="1" opacity="1" d="M 199.5 229 L 202.5 233 L 199.5 229 Z " /><path fill="rgb(188,143,125)" stroke="rgb(188,143,125)" stroke-width="1" opacity="1" d="M 240.5 229 L 237.5 233 L 240.5 229 Z " /><path fill="rgb(188,143,125)" stroke="rgb(188,143,125)" stroke-width="1" opacity="1" d="M 271.5 229 L 274.5 233 L 271.5 229 Z " /><path fill="rgb(188,143,125)" stroke="rgb(188,143,125)" stroke-width="1" opacity="1" d="M 312.5 229 L 309.5 233 L 312.5 229 Z " /><path fill="rgb(188,143,125)" stroke="rgb(188,143,125)" stroke-width="1" opacity="1" d="M 343.5 229 L 346.5 233 L 343.5 229 Z " /><path fill="rgb(188,143,125)" stroke="rgb(188,143,125)" stroke-width="1" opacity="1" d="M 181.5 240 Q 189.1 238.9 191 243.5 L 192 246.5 L 192 272 L 176 272 L 176 245.5 L 179.5 241 L 181.5 240 Z " /><path fill="rgb(188,143,125)" stroke="rgb(188,143,125)" stroke-width="1" opacity="1" d="M 253.5 240 Q 261.1 238.9 263 243.5 L 264 246.5 L 264 272 L 248 272 L 248 245.5 L 251.5 241 L 253.5 240 Z " /><path fill="rgb(188,143,125)" stroke="rgb(188,143,125)" stroke-width="1" opacity="1" d="M 325.5 240 Q 333.1 238.9 335 243.5 L 336 246.5 L 336 272 L 320 272 L 320 245.5 L 323.5 241 L 325.5 240 Z " /><path fill="rgb(188,143,125)" stroke="rgb(188,143,125)" stroke-width="1" opacity="1" d="M 56.5 250 L 58 252.5 L 56 251.5 L 56.5 250 Z " /><path fill="rgb(188,143,125)" stroke="rgb(188,143,125)" stroke-width="1" opacity="1" d="M 103.5 250 L 104 251.5 L 102 252.5 L 103.5 250 Z " /><path fill="rgb(188,143,125)" stroke="rgb(188,143,125)" stroke-width="1" opacity="1" d="M 408.5 250 L 410 252.5 L 408 251.5 L 408.5 250 Z " /><path fill="rgb(188,143,125)" stroke="rgb(188,143,125)" stroke-width="1" opacity="1" d="M 455.5 250 L 456 251.5 L 454 252.5 L 455.5 250 Z " /><path fill="rgb(188,143,125)" stroke="rgb(188,143,125)" stroke-width="1" opacity="1" d="M 59.5 254 L 62 255.5 L 60.5 256 L 59.5 254 Z " /><path fill="rgb(188,143,125)" stroke="rgb(188,143,125)" stroke-width="1" opacity="1" d="M 100.5 254 L 99.5 256 L 98 255.5 L 100.5 254 Z " /><path fill="rgb(188,143,125)" stroke="rgb(188,143,125)" stroke-width="1" opacity="1" d="M 411.5 254 L 414 255.5 L 412.5 256 L 411.5 254 Z " /><path fill="rgb(188,143,125)" stroke="rgb(188,143,125)" stroke-width="1" opacity="1" d="M 452.5 254 L 451.5 256 L 450 255.5 L 452.5 254 Z " /><path fill="rgb(188,143,125)" stroke="rgb(188,143,125)" stroke-width="1" opacity="1" d="M 160.5 282 L 162 284.5 L 160 283.5 L 160.5 282 Z " /><path fill="rgb(188,143,125)" stroke="rgb(188,143,125)" stroke-width="1" opacity="1" d="M 207.5 282 L 208 283.5 L 206 284.5 L 207.5 282 Z " /><path fill="rgb(188,143,125)" stroke="rgb(188,143,125)" stroke-width="1" opacity="1" d="M 232.5 282 L 234 284.5 L 232 283.5 L 232.5 282 Z " /><path fill="rgb(188,143,125)" stroke="rgb(188,143,125)" stroke-width="1" opacity="1" d="M 279.5 282 L 280 283.5 L 278 284.5 L 279.5 282 Z " /><path fill="rgb(188,143,125)" stroke="rgb(188,143,125)" stroke-width="1" opacity="1" d="M 304.5 282 L 306 284.5 L 304 283.5 L 304.5 282 Z " /><path fill="rgb(188,143,125)" stroke="rgb(188,143,125)" stroke-width="1" opacity="1" d="M 351.5 282 L 352 283.5 L 350 284.5 L 351.5 282 Z " /><path fill="rgb(188,143,125)" stroke="rgb(188,143,125)" stroke-width="1" opacity="1" d="M 64.5 285 L 61.5 289 L 64.5 285 Z " /><path fill="rgb(188,143,125)" stroke="rgb(188,143,125)" stroke-width="1" opacity="1" d="M 95.5 285 L 98.5 289 L 95.5 285 Z " /><path fill="rgb(188,143,125)" stroke="rgb(188,143,125)" stroke-width="1" opacity="1" d="M 416.5 285 L 413.5 289 L 416.5 285 Z " /><path fill="rgb(188,143,125)" stroke="rgb(188,143,125)" stroke-width="1" opacity="1" d="M 447.5 285 L 450.5 289 L 447.5 285 Z " /><path fill="rgb(188,143,125)" stroke="rgb(188,143,125)" stroke-width="1" opacity="1" d="M 163.5 286 L 166 287.5 L 164.5 288 L 163.5 286 Z " /><path fill="rgb(188,143,125)" stroke="rgb(188,143,125)" stroke-width="1" opacity="1" d="M 204.5 286 L 203.5 288 L 202 287.5 L 204.5 286 Z " /><path fill="rgb(188,143,125)" stroke="rgb(188,143,125)" stroke-width="1" opacity="1" d="M 235.5 286 L 238 287.5 L 236.5 288 L 235.5 286 Z " /><path fill="rgb(188,143,125)" stroke="rgb(188,143,125)" stroke-width="1" opacity="1" d="M 276.5 286 L 275.5 288 L 274 287.5 L 276.5 286 Z " /><path fill="rgb(188,143,125)" stroke="rgb(188,143,125)" stroke-width="1" opacity="1" d="M 307.5 286 L 310 287.5 L 308.5 288 L 307.5 286 Z " /><path fill="rgb(188,143,125)" stroke="rgb(188,143,125)" stroke-width="1" opacity="1" d="M 348.5 286 L 347.5 288 L 346 287.5 L 348.5 286 Z " /><path fill="rgb(188,143,125)" stroke="rgb(188,143,125)" stroke-width="1" opacity="1" d="M 77.5 296 Q 85.1 294.9 87 299.5 L 88 302.5 L 88 328 L 72 328 L 72 301.5 L 75.5 297 L 77.5 296 Z " /><path fill="rgb(188,143,125)" stroke="rgb(188,143,125)" stroke-width="1" opacity="1" d="M 429.5 296 Q 437.1 294.9 439 299.5 L 440 302.5 L 440 328 L 424 328 L 424 301.5 L 427.5 297 L 429.5 296 Z " /><path fill="rgb(188,143,125)" stroke="rgb(188,143,125)" stroke-width="1" opacity="1" d="M 247.5 328 L 250 328.5 L 247.5 329 L 247.5 328 Z " /><path fill="rgb(188,143,125)" stroke="rgb(188,143,125)" stroke-width="1" opacity="1" d="M 262.5 328 L 265 328.5 L 262.5 329 L 262.5 328 Z " /><path fill="rgb(188,143,125)" stroke="rgb(188,143,125)" stroke-width="1" opacity="1" d="M 284.5 335 L 285.5 337 L 284.5 335 Z " /><path fill="rgb(188,143,125)" stroke="rgb(188,143,125)" stroke-width="1" opacity="1" d="M 224.5 337 L 223.5 339 L 224.5 337 Z " /><path fill="rgb(188,143,125)" stroke="rgb(188,143,125)" stroke-width="1" opacity="1" d="M 287.5 337 L 288.5 339 L 287.5 337 Z " /><path fill="rgb(188,143,125)" stroke="rgb(188,143,125)" stroke-width="1" opacity="1" d="M 56.5 338 L 58 340.5 L 56 339.5 L 56.5 338 Z " /><path fill="rgb(188,143,125)" stroke="rgb(188,143,125)" stroke-width="1" opacity="1" d="M 103.5 338 L 104 339.5 L 102 340.5 L 103.5 338 Z " /><path fill="rgb(188,143,125)" stroke="rgb(188,143,125)" stroke-width="1" opacity="1" d="M 408.5 338 L 410 340.5 L 408 339.5 L 408.5 338 Z " /><path fill="rgb(188,143,125)" stroke="rgb(188,143,125)" stroke-width="1" opacity="1" d="M 455.5 338 L 456 339.5 L 454 340.5 L 455.5 338 Z " /><path fill="rgb(188,143,125)" stroke="rgb(188,143,125)" stroke-width="1" opacity="1" d="M 220.5 340 L 212.5 349 L 220.5 340 Z " /><path fill="rgb(188,143,125)" stroke="rgb(188,143,125)" stroke-width="1" opacity="1" d="M 291.5 340 L 299.5 349 L 291.5 340 Z " /><path fill="rgb(188,143,125)" stroke="rgb(188,143,125)" stroke-width="1" opacity="1" d="M 59.5 342 L 62 343.5 L 60.5 344 L 59.5 342 Z " /><path fill="rgb(188,143,125)" stroke="rgb(188,143,125)" stroke-width="1" opacity="1" d="M 100.5 342 L 99.5 344 L 98 343.5 L 100.5 342 Z " /><path fill="rgb(188,143,125)" stroke="rgb(188,143,125)" stroke-width="1" opacity="1" d="M 411.5 342 L 414 343.5 L 412.5 344 L 411.5 342 Z " /><path fill="rgb(188,143,125)" stroke="rgb(188,143,125)" stroke-width="1" opacity="1" d="M 452.5 342 L 451.5 344 L 450 343.5 L 452.5 342 Z " /><path fill="rgb(188,143,125)" stroke="rgb(188,143,125)" stroke-width="1" opacity="1" d="M 245.5 345 L 248 345.5 L 248 456 L 216 456 L 216 378.5 Q 219.5 361 231.5 352 L 245.5 345 Z " /><path fill="rgb(188,143,125)" stroke="rgb(188,143,125)" stroke-width="1" opacity="1" d="M 264 345 Q 279.6 348.1 288 359.5 Q 294.1 366.9 296 378.5 L 296 456 L 264.5 456 L 264 455.5 L 264 345 Z " /><path fill="rgb(188,143,125)" stroke="rgb(188,143,125)" stroke-width="1" opacity="1" d="M 210.5 351 L 209.5 353 L 210.5 351 Z " /><path fill="rgb(188,143,125)" stroke="rgb(188,143,125)" stroke-width="1" opacity="1" d="M 301.5 351 L 302.5 353 L 301.5 351 Z " /><path fill="rgb(188,143,125)" stroke="rgb(188,143,125)" stroke-width="1" opacity="1" d="M 64.5 373 L 61.5 377 L 64.5 373 Z " /><path fill="rgb(188,143,125)" stroke="rgb(188,143,125)" stroke-width="1" opacity="1" d="M 95.5 373 L 98.5 377 L 95.5 373 Z " /><path fill="rgb(188,143,125)" stroke="rgb(188,143,125)" stroke-width="1" opacity="1" d="M 416.5 373 L 413.5 377 L 416.5 373 Z " /><path fill="rgb(188,143,125)" stroke="rgb(188,143,125)" stroke-width="1" opacity="1" d="M 447.5 373 L 450.5 377 L 447.5 373 Z " /><path fill="rgb(188,143,125)" stroke="rgb(188,143,125)" stroke-width="1" opacity="1" d="M 200.5 375 L 201 377.5 L 200 377.5 L 200.5 375 Z " /><path fill="rgb(188,143,125)" stroke="rgb(188,143,125)" stroke-width="1" opacity="1" d="M 311.5 375 L 312 377.5 L 311 377.5 L 311.5 375 Z " /><path fill="rgb(188,143,125)" stroke="rgb(188,143,125)" stroke-width="1" opacity="1" d="M 77.5 384 Q 85.1 382.9 87 387.5 L 88 390.5 L 88 416 L 72 416 L 72 389.5 L 75.5 385 L 77.5 384 Z " /><path fill="rgb(188,143,125)" stroke="rgb(188,143,125)" stroke-width="1" opacity="1" d="M 429.5 384 Q 437.1 382.9 439 387.5 L 440 390.5 L 440 416 L 424 416 L 424 389.5 L 427.5 385 L 429.5 384 Z " /><path fill="rgb(188,143,125)" stroke="rgb(188,143,125)" stroke-width="1" opacity="1" d="M 56.5 426 L 58 428.5 L 56 427.5 L 56.5 426 Z " /><path fill="rgb(188,143,125)" stroke="rgb(188,143,125)" stroke-width="1" opacity="1" d="M 103.5 426 L 104 427.5 L 102 428.5 L 103.5 426 Z " /><path fill="rgb(188,143,125)" stroke="rgb(188,143,125)" stroke-width="1" opacity="1" d="M 408.5 426 L 410 428.5 L 408 427.5 L 408.5 426 Z " /><path fill="rgb(188,143,125)" stroke="rgb(188,143,125)" stroke-width="1" opacity="1" d="M 455.5 426 L 456 427.5 L 454 428.5 L 455.5 426 Z " /><path fill="rgb(188,143,125)" stroke="rgb(188,143,125)" stroke-width="1" opacity="1" d="M 59.5 430 L 62 431.5 L 60.5 432 L 59.5 430 Z " /><path fill="rgb(188,143,125)" stroke="rgb(188,143,125)" stroke-width="1" opacity="1" d="M 100.5 430 L 99.5 432 L 98 431.5 L 100.5 430 Z " /><path fill="rgb(188,143,125)" stroke="rgb(188,143,125)" stroke-width="1" opacity="1" d="M 411.5 430 L 414 431.5 L 412.5 432 L 411.5 430 Z " /><path fill="rgb(188,143,125)" stroke="rgb(188,143,125)" stroke-width="1" opacity="1" d="M 452.5 430 L 451.5 432 L 450 431.5 L 452.5 430 Z " /><path fill="rgb(188,143,125)" stroke="rgb(188,143,125)" stroke-width="1" opacity="1" d="M 24 472 L 487.5 472 L 488 472.5 L 488 488 L 24.5 488 L 24 487.5 L 24 472 Z " /><path fill="rgb(254,237,185)" stroke="rgb(254,237,185)" stroke-width="1" opacity="1" d="M 40 96 L 55.5 96 L 56 96.5 L 56 456 L 40.5 456 L 40 455.5 L 40 96 Z " /><path fill="rgb(254,237,185)" stroke="rgb(254,237,185)" stroke-width="1" opacity="1" d="M 392 96 L 407.5 96 L 408 96.5 L 408 456 L 392.5 456 L 392 455.5 L 392 96 Z " /><path fill="rgb(255,236,180)" stroke="rgb(255,236,180)" stroke-width="1" opacity="1" d="M 40 80 L 119.5 80 L 120 80.5 L 120 456 L 56 456 L 56 428.5 L 60.5 432 L 99.5 432 L 104 427.5 L 104 386.5 Q 101.5 378 95.5 373 Q 89.3 366.2 74.5 368 Q 66 370.5 61 376.5 L 56.5 386 L 56 340.5 L 60.5 344 L 99.5 344 L 104 339.5 L 104 298.5 Q 101.5 290 95.5 285 Q 89.3 278.2 74.5 280 Q 66 282.5 61 288.5 L 56.5 298 L 56 252.5 L 60.5 256 L 99.5 256 L 104 251.5 L 104 210.5 Q 101.5 202 95.5 197 Q 89.3 190.2 74.5 192 Q 66 194.5 61 200.5 L 56.5 210 L 56 164.5 L 60.5 168 L 99.5 168 L 104 163.5 L 104 122.5 Q 101.5 114 95.5 109 Q 89.3 102.2 74.5 104 Q 66 106.5 61 112.5 L 56.5 122 L 56 96 L 40 96 L 40 80 Z " /><path fill="rgb(255,236,180)" stroke="rgb(255,236,180)" stroke-width="1" opacity="1" d="M 392 80 L 471.5 80 L 472 80.5 L 472 456 L 408 456 L 408 428.5 L 412.5 432 L 451.5 432 L 456 427.5 L 456 386.5 Q 453.5 378 447.5 373 Q 441.3 366.2 426.5 368 Q 418 370.5 413 376.5 L 408.5 386 L 408 340.5 L 412.5 344 L 451.5 344 L 456 339.5 L 456 298.5 Q 453.5 290 447.5 285 Q 441.3 278.2 426.5 280 Q 418 282.5 413 288.5 L 408.5 298 L 408 252.5 L 412.5 256 L 451.5 256 L 456 251.5 L 456 210.5 Q 453.5 202 447.5 197 Q 441.3 190.2 426.5 192 Q 418 194.5 413 200.5 L 408.5 210 L 408 164.5 L 412.5 168 L 451.5 168 L 456 163.5 L 456 122.5 Q 453.5 114 447.5 109 Q 441.3 102.2 426.5 104 Q 418 106.5 413 112.5 L 408.5 122 L 408 96 L 392 96 L 392 80 Z " /><path fill="rgb(255,236,180)" stroke="rgb(255,236,180)" stroke-width="1" opacity="1" d="M 136 200 L 376 200 L 376 456 L 312 456 L 312 375.5 Q 307.4 352.1 291.5 340 Q 282.7 332.3 269.5 329 L 264.5 328 L 247.5 328 Q 224.1 332.6 212 348.5 Q 202.9 358.9 200 375.5 L 200 456 L 136.5 456 L 136 455.5 L 136 200 Z M 179 224 L 169 229 Q 163 234 160 243 L 160 284 L 165 288 L 204 288 L 208 284 L 208 243 L 203 233 Q 197 222 179 224 Z M 251 224 L 241 229 Q 235 234 232 243 L 232 284 L 237 288 L 276 288 L 280 284 L 280 243 L 275 233 Q 269 222 251 224 Z M 323 224 L 313 229 Q 307 234 304 243 L 304 284 L 309 288 L 348 288 L 352 284 L 352 243 L 347 233 Q 341 222 323 224 Z " /><path fill="rgb(0,0,0)" stroke="rgb(0,0,0)" stroke-width="1" opacity="0.788235294117647" d="M 11.5 9 L 9.5 12 L 11.5 9 Z " /><path fill="rgb(0,0,0)" stroke="rgb(0,0,0)" stroke-width="1" opacity="0.788235294117647" d="M 20.5 9 L 22.5 12 L 20.5 9 Z " /><path fill="rgb(0,0,0)" stroke="rgb(0,0,0)" stroke-width="1" opacity="0.788235294117647" d="M 43.5 9 L 41.5 12 L 43.5 9 Z " /><path fill="rgb(0,0,0)" stroke="rgb(0,0,0)" stroke-width="1" opacity="0.788235294117647" d="M 52.5 9 L 54.5 12 L 52.5 9 Z " /><path fill="rgb(0,0,0)" stroke="rgb(0,0,0)" stroke-width="1" opacity="0.788235294117647" d="M 75.5 9 L 73.5 12 L 75.5 9 Z " /><path fill="rgb(0,0,0)" stroke="rgb(0,0,0)" stroke-width="1" opacity="0.788235294117647" d="M 84.5 9 L 86.5 12 L 84.5 9 Z " /><path fill="rgb(0,0,0)" stroke="rgb(0,0,0)" stroke-width="1" opacity="0.788235294117647" d="M 107.5 9 L 105.5 12 L 107.5 9 Z " /><path fill="rgb(0,0,0)" stroke="rgb(0,0,0)" stroke-width="1" opacity="0.788235294117647" d="M 116.5 9 L 118.5 12 L 116.5 9 Z " /><path fill="rgb(0,0,0)" stroke="rgb(0,0,0)" stroke-width="1" opacity="0.788235294117647" d="M 139.5 9 L 137.5 12 L 139.5 9 Z " /><path fill="rgb(0,0,0)" stroke="rgb(0,0,0)" stroke-width="1" opacity="0.788235294117647" d="M 148.5 9 L 150.5 12 L 148.5 9 Z " /><path fill="rgb(0,0,0)" stroke="rgb(0,0,0)" stroke-width="1" opacity="0.788235294117647" d="M 363.5 9 L 361.5 12 L 363.5 9 Z " /><path fill="rgb(0,0,0)" stroke="rgb(0,0,0)" stroke-width="1" opacity="0.788235294117647" d="M 372.5 9 L 374.5 12 L 372.5 9 Z " /><path fill="rgb(0,0,0)" stroke="rgb(0,0,0)" stroke-width="1" opacity="0.788235294117647" d="M 395.5 9 L 393.5 12 L 395.5 9 Z " /><path fill="rgb(0,0,0)" stroke="rgb(0,0,0)" stroke-width="1" opacity="0.788235294117647" d="M 404.5 9 L 406.5 12 L 404.5 9 Z " /><path fill="rgb(0,0,0)" stroke="rgb(0,0,0)" stroke-width="1" opacity="0.788235294117647" d="M 427.5 9 L 425.5 12 L 427.5 9 Z " /><path fill="rgb(0,0,0)" stroke="rgb(0,0,0)" stroke-width="1" opacity="0.788235294117647" d="M 436.5 9 L 438.5 12 L 436.5 9 Z " /><path fill="rgb(0,0,0)" stroke="rgb(0,0,0)" stroke-width="1" opacity="0.788235294117647" d="M 459.5 9 L 457.5 12 L 459.5 9 Z " /><path fill="rgb(0,0,0)" stroke="rgb(0,0,0)" stroke-width="1" opacity="0.788235294117647" d="M 468.5 9 L 470.5 12 L 468.5 9 Z " /><path fill="rgb(0,0,0)" stroke="rgb(0,0,0)" stroke-width="1" opacity="0.788235294117647" d="M 491.5 9 L 489.5 12 L 491.5 9 Z " /><path fill="rgb(0,0,0)" stroke="rgb(0,0,0)" stroke-width="1" opacity="0.788235294117647" d="M 500.5 9 L 502.5 12 L 500.5 9 Z " /><path fill="rgb(0,0,0)" stroke="rgb(0,0,0)" stroke-width="1" opacity="0.788235294117647" d="M 8.5 57 L 9 60.5 L 8 60.5 L 8.5 57 Z " /><path fill="rgb(0,0,0)" stroke="rgb(0,0,0)" stroke-width="1" opacity="0.788235294117647" d="M 151.5 57 L 152 60.5 L 151 60.5 L 151.5 57 Z " /><path fill="rgb(0,0,0)" stroke="rgb(0,0,0)" stroke-width="1" opacity="0.788235294117647" d="M 360.5 57 L 361 60.5 L 360 60.5 L 360.5 57 Z " /><path fill="rgb(0,0,0)" stroke="rgb(0,0,0)" stroke-width="1" opacity="0.788235294117647" d="M 503.5 57 L 504 60.5 L 503 60.5 L 503.5 57 Z " /><path fill="rgb(0,0,0)" stroke="rgb(0,0,0)" stroke-width="1" opacity="0.788235294117647" d="M 10.5 66 L 11.5 68 L 10.5 66 Z " /><path fill="rgb(0,0,0)" stroke="rgb(0,0,0)" stroke-width="1" opacity="0.788235294117647" d="M 149.5 66 L 148.5 68 L 149.5 66 Z " /><path fill="rgb(0,0,0)" stroke="rgb(0,0,0)" stroke-width="1" opacity="0.788235294117647" d="M 362.5 66 L 363.5 68 L 362.5 66 Z " /><path fill="rgb(0,0,0)" stroke="rgb(0,0,0)" stroke-width="1" opacity="0.788235294117647" d="M 501.5 66 L 500.5 68 L 501.5 66 Z " /><path fill="rgb(0,0,0)" stroke="rgb(0,0,0)" stroke-width="1" opacity="0.788235294117647" d="M 12.5 69 L 13.5 71 L 12.5 69 Z " /><path fill="rgb(0,0,0)" stroke="rgb(0,0,0)" stroke-width="1" opacity="0.788235294117647" d="M 364.5 69 L 365.5 71 L 364.5 69 Z " /><path fill="rgb(0,0,0)" stroke="rgb(0,0,0)" stroke-width="1" opacity="0.788235294117647" d="M 17.5 74 L 18.5 76 L 17.5 74 Z " /><path fill="rgb(0,0,0)" stroke="rgb(0,0,0)" stroke-width="1" opacity="0.788235294117647" d="M 369.5 74 L 370.5 76 L 369.5 74 Z " /><path fill="rgb(0,0,0)" stroke="rgb(0,0,0)" stroke-width="1" opacity="0.788235294117647" d="M 155.5 129 L 153.5 132 L 155.5 129 Z " /><path fill="rgb(0,0,0)" stroke="rgb(0,0,0)" stroke-width="1" opacity="0.788235294117647" d="M 164.5 129 L 166.5 132 L 164.5 129 Z " /><path fill="rgb(0,0,0)" stroke="rgb(0,0,0)" stroke-width="1" opacity="0.788235294117647" d="M 187.5 129 L 185.5 132 L 187.5 129 Z " /><path fill="rgb(0,0,0)" stroke="rgb(0,0,0)" stroke-width="1" opacity="0.788235294117647" d="M 196.5 129 L 198.5 132 L 196.5 129 Z " /><path fill="rgb(0,0,0)" stroke="rgb(0,0,0)" stroke-width="1" opacity="0.788235294117647" d="M 219.5 129 L 217.5 132 L 219.5 129 Z " /><path fill="rgb(0,0,0)" stroke="rgb(0,0,0)" stroke-width="1" opacity="0.788235294117647" d="M 228.5 129 L 230.5 132 L 228.5 129 Z " /><path fill="rgb(0,0,0)" stroke="rgb(0,0,0)" stroke-width="1" opacity="0.788235294117647" d="M 251.5 129 L 249.5 132 L 251.5 129 Z " /><path fill="rgb(0,0,0)" stroke="rgb(0,0,0)" stroke-width="1" opacity="0.788235294117647" d="M 260.5 129 L 262.5 132 L 260.5 129 Z " /><path fill="rgb(0,0,0)" stroke="rgb(0,0,0)" stroke-width="1" opacity="0.788235294117647" d="M 283.5 129 L 281.5 132 L 283.5 129 Z " /><path fill="rgb(0,0,0)" stroke="rgb(0,0,0)" stroke-width="1" opacity="0.788235294117647" d="M 292.5 129 L 294.5 132 L 292.5 129 Z " /><path fill="rgb(0,0,0)" stroke="rgb(0,0,0)" stroke-width="1" opacity="0.788235294117647" d="M 315.5 129 L 313.5 132 L 315.5 129 Z " /><path fill="rgb(0,0,0)" stroke="rgb(0,0,0)" stroke-width="1" opacity="0.788235294117647" d="M 324.5 129 L 326.5 132 L 324.5 129 Z " /><path fill="rgb(0,0,0)" stroke="rgb(0,0,0)" stroke-width="1" opacity="0.788235294117647" d="M 347.5 129 L 345.5 132 L 347.5 129 Z " /><path fill="rgb(0,0,0)" stroke="rgb(0,0,0)" stroke-width="1" opacity="0.788235294117647" d="M 356.5 129 L 358.5 132 L 356.5 129 Z " /><path fill="rgb(0,0,0)" stroke="rgb(0,0,0)" stroke-width="1" opacity="0.788235294117647" d="M 11.5 457 L 9.5 460 L 11.5 457 Z " /><path fill="rgb(0,0,0)" stroke="rgb(0,0,0)" stroke-width="1" opacity="0.788235294117647" d="M 500.5 457 L 502.5 460 L 500.5 457 Z " /><path fill="rgb(0,0,0)" stroke="rgb(0,0,0)" stroke-width="1" opacity="0.788235294117647" d="M 9.5 500 L 11.5 503 L 9.5 500 Z " /><path fill="rgb(0,0,0)" stroke="rgb(0,0,0)" stroke-width="1" opacity="0.788235294117647" d="M 502.5 500 L 500.5 503 L 502.5 500 Z " /><path fill="rgb(0,0,0)" stroke="rgb(0,0,0)" stroke-width="1" opacity="1" d="M 15.5 8 Q 21.1 8.5 23 12.5 L 24 15.5 L 24 32 L 40 32 L 40 15.5 L 44.5 9 L 48.5 8 L 55 12.5 L 56 15.5 L 56 32 L 72 32 L 72 15.5 L 76.5 9 L 80.5 8 L 87 12.5 L 88 15.5 L 88 32 L 104 32 L 104 15.5 L 108.5 9 L 112.5 8 L 119 12.5 L 120 15.5 L 120 32 L 136 32 L 136 15.5 L 140.5 9 L 144.5 8 L 151 12.5 L 152 15.5 L 152 56.5 L 150 65.5 L 142.5 75 L 136 78.5 L 136 151.5 L 136.5 152 L 152 152 L 152 135.5 L 156.5 129 L 160.5 128 L 167 132.5 L 168 135.5 L 168 152 L 184 152 L 184 135.5 L 188.5 129 L 192.5 128 L 199 132.5 L 200 135.5 L 200 152 L 216 152 L 216 135.5 L 220.5 129 L 224.5 128 L 231 132.5 L 232 135.5 L 232 152 L 248 152 L 248 135.5 L 252.5 129 L 256.5 128 L 263 132.5 L 264 135.5 L 264 152 L 280 152 L 280 135.5 L 284.5 129 L 288.5 128 L 295 132.5 L 296 135.5 L 296 152 L 312 152 L 312 135.5 L 316.5 129 L 320.5 128 L 327 132.5 L 328 135.5 L 328 152 L 344 152 L 344 135.5 L 348.5 129 L 352.5 128 L 359 132.5 L 360 135.5 L 360 152 L 375.5 152 L 376 151.5 L 376 78.5 L 366 71.5 L 362 65.5 L 360 56.5 L 360 15.5 L 364.5 9 L 368.5 8 L 375 12.5 L 376 15.5 L 376 32 L 392 32 L 392 15.5 L 396.5 9 L 400.5 8 L 407 12.5 L 408 15.5 L 408 32 L 424 32 L 424 15.5 L 428.5 9 L 432.5 8 L 439 12.5 L 440 15.5 L 440 32 L 456 32 L 456 15.5 L 460.5 9 L 464.5 8 L 471 12.5 L 472 15.5 L 472 32 L 488 32 L 488 15.5 L 492.5 9 L 496.5 8 L 503 12.5 L 504 15.5 L 504 56.5 L 502 65.5 L 494.5 75 L 488 78.5 L 488 455.5 L 488.5 456 L 496.5 456 L 503 460.5 L 504 463.5 L 504 496.5 L 499.5 503 L 496.5 504 L 15.5 504 L 9 499.5 L 8 496.5 L 8 463.5 L 12.5 457 L 24 456 L 24 78.5 L 22.5 77 L 14 71.5 L 10 65.5 L 8 56.5 L 8 15.5 L 12.5 9 L 15.5 8 Z M 24 48 L 24 59 L 25 61 L 31 64 L 130 64 L 133 63 L 136 58 L 136 49 L 136 48 L 24 48 Z M 376 48 L 376 59 L 377 61 L 383 64 L 482 64 L 485 63 L 488 58 L 488 49 L 488 48 L 376 48 Z M 40 80 L 40 456 L 41 456 L 120 456 L 120 81 L 120 80 L 40 80 Z M 392 80 L 392 456 L 393 456 L 472 456 L 472 81 L 472 80 L 392 80 Z M 136 168 L 136 184 L 137 184 L 376 184 L 376 169 L 376 168 L 136 168 Z M 136 200 L 136 456 L 137 456 L 200 456 L 200 379 L 204 363 L 211 351 L 229 335 L 241 330 L 251 328 Q 276 327 290 339 L 305 357 L 310 369 L 312 379 L 312 456 L 376 456 L 376 200 L 136 200 Z M 246 345 L 232 352 Q 220 361 216 379 L 216 456 L 248 456 L 248 346 L 246 345 Z M 264 345 L 264 456 L 265 456 L 296 456 L 296 379 Q 294 367 288 360 Q 280 348 264 345 Z M 24 472 L 24 488 L 25 488 L 488 488 L 488 473 L 488 472 L 24 472 Z " /><path fill="rgb(0,0,0)" stroke="rgb(0,0,0)" stroke-width="1" opacity="1" d="M 76.5 104 L 87.5 105 Q 95.6 107.9 100 114.5 L 104 124.5 L 104 161.5 L 102 166 L 97.5 168 L 62.5 168 L 58 166 L 56 161.5 L 56 124.5 Q 58.4 113.4 66.5 108 L 76.5 104 Z M 78 120 L 76 121 L 72 126 L 72 152 L 88 152 L 88 127 L 87 124 Q 85 119 78 120 Z " /><path fill="rgb(0,0,0)" stroke="rgb(0,0,0)" stroke-width="1" opacity="1" d="M 428.5 104 L 439.5 105 Q 447.6 107.9 452 114.5 L 456 124.5 L 456 161.5 L 454 166 L 449.5 168 L 414.5 168 L 410 166 L 408 161.5 L 408 124.5 Q 410.4 113.4 418.5 108 L 428.5 104 Z M 430 120 L 428 121 L 424 126 L 424 152 L 440 152 L 440 127 L 439 124 Q 437 119 430 120 Z " /><path fill="rgb(0,0,0)" stroke="rgb(0,0,0)" stroke-width="1" opacity="1" d="M 76.5 192 L 87.5 193 Q 95.6 195.9 100 202.5 L 104 212.5 L 104 249.5 L 102 254 L 97.5 256 L 62.5 256 L 58 254 L 56 249.5 L 56 212.5 Q 58.4 201.4 66.5 196 L 76.5 192 Z M 78 208 L 76 209 L 72 214 L 72 240 L 88 240 L 88 215 L 87 212 Q 85 207 78 208 Z " /><path fill="rgb(0,0,0)" stroke="rgb(0,0,0)" stroke-width="1" opacity="1" d="M 428.5 192 L 439.5 193 Q 447.6 195.9 452 202.5 L 456 212.5 L 456 249.5 L 454 254 L 449.5 256 L 414.5 256 L 410 254 L 408 249.5 L 408 212.5 Q 410.4 201.4 418.5 196 L 428.5 192 Z M 430 208 L 428 209 L 424 214 L 424 240 L 440 240 L 440 215 L 439 212 Q 437 207 430 208 Z " /><path fill="rgb(0,0,0)" stroke="rgb(0,0,0)" stroke-width="1" opacity="1" d="M 180.5 224 L 191.5 225 Q 199.6 227.9 204 234.5 L 208 244.5 L 208 281.5 L 206 286 L 201.5 288 L 166.5 288 L 162 286 L 160 281.5 L 160 244.5 Q 162.4 233.4 170.5 228 L 180.5 224 Z M 182 240 L 180 241 L 176 246 L 176 272 L 192 272 L 192 247 L 191 244 Q 189 239 182 240 Z " /><path fill="rgb(0,0,0)" stroke="rgb(0,0,0)" stroke-width="1" opacity="1" d="M 252.5 224 L 263.5 225 Q 271.6 227.9 276 234.5 L 280 244.5 L 280 281.5 L 278 286 L 273.5 288 L 238.5 288 L 234 286 L 232 281.5 L 232 244.5 Q 234.4 233.4 242.5 228 L 252.5 224 Z M 254 240 L 252 241 L 248 246 L 248 272 L 264 272 L 264 247 L 263 244 Q 261 239 254 240 Z " /><path fill="rgb(0,0,0)" stroke="rgb(0,0,0)" stroke-width="1" opacity="1" d="M 324.5 224 L 335.5 225 Q 343.6 227.9 348 234.5 L 352 244.5 L 352 281.5 L 350 286 L 345.5 288 L 310.5 288 L 306 286 L 304 281.5 L 304 244.5 Q 306.4 233.4 314.5 228 L 324.5 224 Z M 326 240 L 324 241 L 320 246 L 320 272 L 336 272 L 336 247 L 335 244 Q 333 239 326 240 Z " /><path fill="rgb(0,0,0)" stroke="rgb(0,0,0)" stroke-width="1" opacity="1" d="M 76.5 280 L 87.5 281 Q 95.6 283.9 100 290.5 L 104 300.5 L 104 337.5 L 102 342 L 97.5 344 L 62.5 344 L 58 342 L 56 337.5 L 56 300.5 Q 58.4 289.4 66.5 284 L 76.5 280 Z M 78 296 L 76 297 L 72 302 L 72 328 L 88 328 L 88 303 L 87 300 Q 85 295 78 296 Z " /><path fill="rgb(0,0,0)" stroke="rgb(0,0,0)" stroke-width="1" opacity="1" d="M 428.5 280 L 439.5 281 Q 447.6 283.9 452 290.5 L 456 300.5 L 456 337.5 L 454 342 L 449.5 344 L 414.5 344 L 410 342 L 408 337.5 L 408 300.5 Q 410.4 289.4 418.5 284 L 428.5 280 Z M 430 296 L 428 297 L 424 302 L 424 328 L 440 328 L 440 303 L 439 300 Q 437 295 430 296 Z " /><path fill="rgb(0,0,0)" stroke="rgb(0,0,0)" stroke-width="1" opacity="1" d="M 76.5 368 L 87.5 369 Q 95.6 371.9 100 378.5 L 104 388.5 L 104 425.5 L 102 430 L 97.5 432 L 62.5 432 L 58 430 L 56 425.5 L 56 388.5 Q 58.4 377.4 66.5 372 L 76.5 368 Z M 78 384 L 76 385 L 72 390 L 72 416 L 88 416 L 88 391 L 87 388 Q 85 383 78 384 Z " /><path fill="rgb(0,0,0)" stroke="rgb(0,0,0)" stroke-width="1" opacity="1" d="M 428.5 368 L 439.5 369 Q 447.6 371.9 452 378.5 L 456 388.5 L 456 425.5 L 454 430 L 449.5 432 L 414.5 432 L 410 430 L 408 425.5 L 408 388.5 Q 410.4 377.4 418.5 372 L 428.5 368 Z M 430 384 L 428 385 L 424 390 L 424 416 L 440 416 L 440 391 L 439 388 Q 437 383 430 384 Z " /></svg>