<?xml version="1.0" encoding="iso-8859-1"?>
<svg height="64px" width="64px" version="1.1" id="Layer_1" xmlns="http://www.w3.org/2000/svg" xmlns:xlink="http://www.w3.org/1999/xlink" viewBox="0 0 512 512" xml:space="preserve">
<circle style="fill:#E8E8E8;" cx="256" cy="256" r="247.742"/>
<polygon style="fill:#F5F5F5;" points="471.26,345.164 345.164,471.26 166.836,471.26 40.74,345.164 40.74,166.836 166.836,40.74 345.164,40.74 471.26,166.836 "/>
<path style="fill:#D0D0D0;" d="M256,171.415l-11.011,107.267l80.257-22.022v-85.245c-7.807,10.614-20.392,17.551-34.607,17.551C276.425,188.967,263.873,182.03,256,171.415z"/>
<path style="fill:#E8E8E8;" d="M186.753,171.415v85.245L256,278.682V171.415c-7.807,10.614-20.392,17.551-34.607,17.551C207.178,188.967,194.593,182.03,186.753,171.415z"/>
<path style="fill:#C0C0C0;" d="M325.247,256.661v28.705c0,52.786-46.058,40.013-69.247,56.551c-23.189-16.539-69.247-3.766-69.247-56.551v-28.705H256H325.247z"/>
<path d="M437.019,74.981C388.667,26.628,324.38,0,256,0S123.333,26.628,74.981,74.981S0,187.62,0,256s26.628,132.667,74.981,181.019S187.62,512,256,512s132.667-26.628,181.019-74.981S512,324.38,512,256S485.372,123.333,437.019,74.981z M471.26,306.74c-4.561,0-8.258,3.697-8.258,8.258v26.745L341.743,463.002H170.257L48.998,341.743V170.257L170.257,48.998h171.486l121.259,121.259v111.708c0,4.561,3.697,8.258,8.258,8.258s8.258-3.697,8.258-8.258V170.041c10.301,26.696,15.966,55.676,15.966,85.96s-5.665,59.264-15.966,85.96v-26.962C479.518,310.437,475.821,306.74,471.26,306.74z M474.81,158.708L353.292,37.19C407.25,61.277,450.723,104.75,474.81,158.708z M341.96,32.482H170.04c26.694-10.301,55.677-15.966,85.96-15.966S315.264,22.181,341.96,32.482z M158.708,37.19L37.19,158.708C61.277,104.75,104.75,61.277,158.708,37.19z M32.482,170.04v171.92C22.181,315.264,16.516,286.283,16.516,256S22.181,196.736,32.482,170.04z M37.19,353.292l121.517,121.517C104.75,450.723,61.277,407.25,37.19,353.292z M170.04,479.518h171.92c-26.696,10.301-55.676,15.966-85.96,15.966S196.735,489.819,170.04,479.518z M353.292,474.81l121.517-121.517C450.723,407.25,407.25,450.723,353.292,474.81z M414.182,280.141l-8.912,7.131c1.905-9.104,2.994-18.502,3.189-28.117l17.774-31.217c2.256-3.964,0.873-9.006-3.091-11.263c-3.964-2.256-9.005-0.872-11.263,3.091l-5.669,9.958c-1.627-9.326-4.108-18.476-7.425-27.324l4.846-35.647c0.614-4.519-2.551-8.681-7.07-9.295c-4.521-0.61-8.681,2.551-9.295,7.07l-1.536,11.299c-4.987-8.049-10.712-15.601-17.074-22.57l-8.618-34.888c-1.093-4.427-5.57-7.128-9.998-6.037c-4.427,1.093-7.131,5.57-6.037,9.998l2.752,11.138c-4.292-3.185-8.746-6.162-13.364-8.885c-3.928-2.319-8.992-1.013-11.309,2.916c-2.318,3.928-1.012,8.991,2.916,11.309c41.32,24.376,66.987,69.281,66.987,117.192c0,0.2-0.007,0.4-0.008,0.6c-0.004,0.126-0.005,0.251-0.004,0.375c-0.451,63.75-44.988,117.208-104.581,131.344c-4.82-12.648-17.069-21.661-31.389-21.661c-14.321,0-26.569,9.013-31.389,21.661c-59.589-14.134-104.123-67.587-104.581-131.331c0.001-0.133,0-0.265-0.004-0.399c-0.001-0.197-0.008-0.392-0.008-0.589c0-47.91,25.666-92.815,66.982-117.192c3.928-2.318,5.233-7.381,2.916-11.309c-2.317-3.928-7.378-5.235-11.309-2.916c-4.617,2.724-9.07,5.699-13.36,8.882l2.752-11.136c1.093-4.427-1.609-8.903-6.036-9.998c-4.43-1.092-8.904,1.609-9.998,6.036l-8.618,34.889c-6.361,6.968-12.088,14.521-17.073,22.57l-1.536-11.299c-0.614-4.519-4.775-7.68-9.295-7.07c-4.519,0.614-7.684,4.775-7.07,9.295l4.846,35.648c-3.316,8.848-5.798,17.997-7.425,27.323l-5.669-9.957c-2.257-3.963-7.298-5.346-11.263-3.091c-3.964,2.256-5.347,7.299-3.091,11.263l17.772,31.214c0.196,9.615,1.285,19.014,3.19,28.118l-8.913-7.131c-3.561-2.85-8.758-2.272-11.608,1.289c-2.848,3.561-2.272,8.758,1.289,11.608l28.097,22.478c3.73,8.767,8.264,17.113,13.498,24.953l-11.039-3.331c-4.365-1.32-8.974,1.153-10.292,5.521c-1.318,4.366,1.154,8.974,5.521,10.292l34.526,10.418c6.639,6.69,13.896,12.765,21.67,18.14l-11.483,0.978c-4.544,0.388-7.915,4.384-7.528,8.929c0.367,4.306,3.975,7.558,8.22,7.558c0.235,0,0.471-0.01,0.71-0.03l35.905-3.057c8.751,3.812,17.926,6.826,27.434,8.95c2.248,16.348,16.303,28.986,33.261,28.986s31.013-12.638,33.26-28.988c9.509-2.124,18.683-5.138,27.434-8.95l35.905,3.057c0.239,0.02,0.475,0.03,0.71,0.03c4.244,0,7.853-3.251,8.22-7.558c0.387-4.544-2.983-8.542-7.528-8.929l-11.484-0.978c7.776-5.375,15.031-11.451,21.671-18.141l34.526-10.418c4.367-1.318,6.838-5.925,5.521-10.292c-1.317-4.367-5.924-6.835-10.292-5.521l-11.039,3.331c5.234-7.839,9.768-16.184,13.498-24.95l28.098-22.48c3.561-2.85,4.138-8.046,1.289-11.608C422.94,277.87,417.744,277.29,414.182,280.141z M256,383.174c6.094,0,11.438,3.221,14.457,8.04c-4.751,0.504-9.574,0.769-14.457,0.769c-4.883,0-9.705-0.264-14.457-0.769C244.563,386.395,249.906,383.174,256,383.174z M256,417.308c-6.721,0-12.529-3.914-15.31-9.574c5.036,0.504,10.143,0.765,15.31,0.765c5.167,0,10.274-0.261,15.31-0.765C268.529,413.393,262.721,417.308,256,417.308z M184.172,163.569c-3.39,1.113-5.682,4.278-5.682,7.845v113.95c0,42.79,28.457,49.711,49.235,54.765c9.017,2.193,17.534,4.264,23.48,8.505c1.435,1.023,3.114,1.535,4.794,1.535s3.359-0.511,4.794-1.535c5.946-4.24,14.463-6.311,23.48-8.505c20.778-5.054,49.235-11.975,49.235-54.765V171.415c0-3.565-2.288-6.728-5.674-7.844c-3.387-1.115-7.106,0.068-9.225,2.935c-6.669,9.026-16.875,14.202-27.999,14.202c-10.968,0-21.42-5.304-27.961-14.19c-0.034-0.046-0.075-0.087-0.111-0.133c-0.123-0.161-0.252-0.315-0.388-0.466c-0.069-0.078-0.138-0.157-0.21-0.232c-0.153-0.16-0.315-0.309-0.48-0.456c-0.057-0.051-0.11-0.105-0.168-0.153c-0.229-0.19-0.467-0.37-0.715-0.535c-0.04-0.026-0.081-0.048-0.121-0.074c-0.211-0.137-0.429-0.263-0.654-0.381c-0.073-0.037-0.148-0.07-0.222-0.107c-0.198-0.095-0.399-0.184-0.604-0.263c-0.085-0.033-0.168-0.063-0.253-0.092c-0.203-0.07-0.408-0.132-0.618-0.187c-0.089-0.023-0.177-0.048-0.268-0.069c-0.215-0.048-0.434-0.086-0.654-0.118c-0.085-0.012-0.167-0.029-0.252-0.039c-0.276-0.031-0.556-0.048-0.84-0.052c-0.025,0-0.05-0.004-0.075-0.004c-0.004,0-0.01,0-0.015,0c-0.312,0-0.619,0.021-0.921,0.055c-0.08,0.009-0.16,0.024-0.239,0.036c-0.226,0.032-0.449,0.069-0.667,0.119c-0.087,0.02-0.173,0.044-0.259,0.067c-0.21,0.055-0.418,0.116-0.622,0.187c-0.085,0.03-0.168,0.061-0.252,0.092c-0.205,0.079-0.404,0.166-0.601,0.26c-0.075,0.036-0.152,0.07-0.227,0.109c-0.215,0.111-0.424,0.232-0.627,0.362c-0.05,0.031-0.101,0.058-0.15,0.091c-0.249,0.165-0.488,0.344-0.717,0.534c-0.047,0.039-0.09,0.083-0.137,0.123c-0.177,0.154-0.348,0.314-0.512,0.482c-0.069,0.073-0.137,0.149-0.204,0.224c-0.137,0.152-0.268,0.307-0.393,0.469c-0.033,0.044-0.072,0.081-0.105,0.124c-6.703,9.033-16.913,14.215-28.009,14.215c-10.967,0-21.419-5.304-27.96-14.19C191.284,163.646,187.563,162.457,184.172,163.569z M280.37,324.083c-8.312,2.022-16.857,4.1-24.37,8.137c-7.514-4.037-16.058-6.115-24.37-8.137c-21.262-5.172-36.623-8.908-36.623-38.718v-20.444h121.986v20.444C316.993,315.175,301.632,318.911,280.37,324.083z M290.611,197.225c9.368,0,18.488-2.621,26.382-7.368v58.549h-52.735v-58.546C272.138,194.599,281.242,197.225,290.611,197.225z M221.359,197.225c9.496,0,18.536-2.57,26.382-7.308v58.489h-52.735v-58.532C202.887,194.611,211.994,197.225,221.359,197.225z M256,146.941c30.146,0,51.2-12.771,51.2-31.057S286.146,84.827,256,84.827s-51.2,12.771-51.2,31.057S225.854,146.941,256,146.941z M256,101.343c21.424,0,34.684,7.548,34.684,14.542c0,6.993-13.26,14.541-34.684,14.541s-34.684-7.548-34.684-14.541C221.316,108.891,234.576,101.343,256,101.343z M303.484,297.28c-2.434,3.855-7.535,5.008-11.392,2.571c-14.271-9.013-21.827-5.087-32.286,0.346c-6.855,3.562-14.689,7.63-24.434,7.63c-6.995,0-14.972-2.094-24.285-7.977c-3.856-2.436-5.008-7.536-2.571-11.392c2.434-3.855,7.535-5.009,11.392-2.571c14.27,9.012,21.828,5.087,32.286-0.346c11.775-6.119,26.431-13.733,48.72,0.346C304.769,288.324,305.921,293.424,303.484,297.28z" style="fill:#808080;"/>
</svg>