<svg width="512" height="512" version="1.1" xmlns="http://www.w3.org/2000/svg" desc="Created with imagetracer.js version 1.2.6" ><path fill="rgb(74,172,78)" stroke="rgb(74,172,78)" stroke-width="1" opacity="0.5529411764705883" d="M 448.5 0 L 483 0.5 L 448.5 1 L 448.5 0 Z " /><path fill="rgb(74,172,78)" stroke="rgb(74,172,78)" stroke-width="1" opacity="0.5529411764705883" d="M 502.5 0 Q 508.9 0.7 511 5.5 L 512 9.5 L 511 9.5 Q 510.6 4 506.5 2 L 502.5 1 L 502.5 0 Z " /><path fill="rgb(74,172,78)" stroke="rgb(74,172,78)" stroke-width="1" opacity="0.5529411764705883" d="M 424.5 1 L 442 1.5 L 424.5 2 L 424.5 1 Z " /><path fill="rgb(74,172,78)" stroke="rgb(74,172,78)" stroke-width="1" opacity="0.5529411764705883" d="M 408.5 2 L 419 2.5 L 408.5 3 L 408.5 2 Z " /><path fill="rgb(74,172,78)" stroke="rgb(74,172,78)" stroke-width="1" opacity="0.5529411764705883" d="M 394.5 3 L 405 3.5 L 394.5 4 L 394.5 3 Z " /><path fill="rgb(74,172,78)" stroke="rgb(74,172,78)" stroke-width="1" opacity="0.5529411764705883" d="M 381.5 4 L 390 4.5 L 381.5 5 L 381.5 4 Z " /><path fill="rgb(74,172,78)" stroke="rgb(74,172,78)" stroke-width="1" opacity="0.5529411764705883" d="M 371.5 5 L 378 5.5 L 371.5 6 L 371.5 5 Z " /><path fill="rgb(74,172,78)" stroke="rgb(74,172,78)" stroke-width="1" opacity="0.5529411764705883" d="M 361.5 6 L 369 6.5 L 361.5 7 L 361.5 6 Z " /><path fill="rgb(74,172,78)" stroke="rgb(74,172,78)" stroke-width="1" opacity="0.5529411764705883" d="M 351.5 7 L 359 7.5 L 351.5 8 L 351.5 7 Z " /><path fill="rgb(74,172,78)" stroke="rgb(74,172,78)" stroke-width="1" opacity="0.5529411764705883" d="M 343.5 8 L 349 8.5 L 343.5 9 L 343.5 8 Z " /><path fill="rgb(74,172,78)" stroke="rgb(74,172,78)" stroke-width="1" opacity="0.5529411764705883" d="M 336.5 9 L 342 9.5 L 336.5 10 L 336.5 9 Z " /><path fill="rgb(74,172,78)" stroke="rgb(74,172,78)" stroke-width="1" opacity="0.5529411764705883" d="M 328.5 10 L 334 10.5 L 328.5 11 L 328.5 10 Z " /><path fill="rgb(74,172,78)" stroke="rgb(74,172,78)" stroke-width="1" opacity="0.5529411764705883" d="M 321.5 11 L 327 11.5 L 321.5 12 L 321.5 11 Z " /><path fill="rgb(74,172,78)" stroke="rgb(74,172,78)" stroke-width="1" opacity="0.5529411764705883" d="M 314.5 12 L 319 12.5 L 314.5 13 L 314.5 12 Z " /><path fill="rgb(74,172,78)" stroke="rgb(74,172,78)" stroke-width="1" opacity="0.5529411764705883" d="M 308.5 13 L 313 13.5 L 308.5 14 L 308.5 13 Z " /><path fill="rgb(74,172,78)" stroke="rgb(74,172,78)" stroke-width="1" opacity="0.5529411764705883" d="M 303.5 14 L 307 14.5 L 303.5 15 L 303.5 14 Z " /><path fill="rgb(74,172,78)" stroke="rgb(74,172,78)" stroke-width="1" opacity="0.5529411764705883" d="M 297.5 15 L 301 15.5 L 297.5 16 L 297.5 15 Z " /><path fill="rgb(74,172,78)" stroke="rgb(74,172,78)" stroke-width="1" opacity="0.5529411764705883" d="M 291.5 16 L 296 16.5 L 291.5 17 L 291.5 16 Z " /><path fill="rgb(74,172,78)" stroke="rgb(74,172,78)" stroke-width="1" opacity="0.5529411764705883" d="M 285.5 17 L 290 17.5 L 281.5 19 L 281.5 18 L 285.5 17 Z " /><path fill="rgb(74,172,78)" stroke="rgb(74,172,78)" stroke-width="1" opacity="0.5529411764705883" d="M 510.5 17 L 510 18.5 Q 466.1 60.6 435.5 116 L 436 114.5 Q 466.1 58.6 510.5 17 Z " /><path fill="rgb(74,172,78)" stroke="rgb(74,172,78)" stroke-width="1" opacity="0.5529411764705883" d="M 276.5 19 L 280 19.5 L 276.5 20 L 276.5 19 Z " /><path fill="rgb(74,172,78)" stroke="rgb(74,172,78)" stroke-width="1" opacity="0.5529411764705883" d="M 271.5 20 L 275 20.5 L 271.5 21 L 271.5 20 Z " /><path fill="rgb(74,172,78)" stroke="rgb(74,172,78)" stroke-width="1" opacity="0.5529411764705883" d="M 266.5 21 L 270 21.5 L 262.5 23 L 262.5 22 L 266.5 21 Z " /><path fill="rgb(74,172,78)" stroke="rgb(74,172,78)" stroke-width="1" opacity="0.5529411764705883" d="M 257.5 23 L 261 23.5 L 257.5 24 L 257.5 23 Z " /><path fill="rgb(74,172,78)" stroke="rgb(74,172,78)" stroke-width="1" opacity="0.5529411764705883" d="M 253.5 24 L 256 24.5 L 253.5 25 L 253.5 24 Z " /><path fill="rgb(74,172,78)" stroke="rgb(74,172,78)" stroke-width="1" opacity="0.5529411764705883" d="M 249.5 25 L 252 25.5 L 230.5 31 L 230.5 30 L 249.5 25 Z " /><path fill="rgb(74,172,78)" stroke="rgb(74,172,78)" stroke-width="1" opacity="0.5529411764705883" d="M 226.5 31 L 229 31.5 L 220.5 34 L 220.5 33 L 226.5 31 Z " /><path fill="rgb(74,172,78)" stroke="rgb(74,172,78)" stroke-width="1" opacity="0.5529411764705883" d="M 216.5 34 L 219 34.5 L 210.5 37 L 210.5 36 L 216.5 34 Z " /><path fill="rgb(74,172,78)" stroke="rgb(74,172,78)" stroke-width="1" opacity="0.5529411764705883" d="M 206.5 37 L 209 37.5 L 204.5 39 L 204.5 38 L 206.5 37 Z " /><path fill="rgb(74,172,78)" stroke="rgb(74,172,78)" stroke-width="1" opacity="0.5529411764705883" d="M 195.5 41 L 197 41.5 L 184.5 46 L 184.5 45 L 195.5 41 Z " /><path fill="rgb(74,172,78)" stroke="rgb(74,172,78)" stroke-width="1" opacity="0.5529411764705883" d="M 181.5 46 L 183 46.5 L 179.5 48 L 179.5 47 L 181.5 46 Z " /><path fill="rgb(74,172,78)" stroke="rgb(74,172,78)" stroke-width="1" opacity="0.5529411764705883" d="M 176.5 48 L 178 48.5 L 174.5 50 L 174.5 49 L 176.5 48 Z " /><path fill="rgb(74,172,78)" stroke="rgb(74,172,78)" stroke-width="1" opacity="0.5529411764705883" d="M 171.5 50 L 173 50.5 L 169.5 52 L 169.5 51 L 171.5 50 Z " /><path fill="rgb(74,172,78)" stroke="rgb(74,172,78)" stroke-width="1" opacity="0.5529411764705883" d="M 166.5 52 L 168 52.5 L 162.5 55 L 162.5 54 L 166.5 52 Z " /><path fill="rgb(74,172,78)" stroke="rgb(74,172,78)" stroke-width="1" opacity="0.5529411764705883" d="M 159.5 55 L 161 55.5 L 149.5 61 L 149.5 60 L 159.5 55 Z " /><path fill="rgb(74,172,78)" stroke="rgb(74,172,78)" stroke-width="1" opacity="0.5529411764705883" d="M 146.5 61 L 148 61.5 L 139.5 66 L 140.5 64 L 146.5 61 Z " /><path fill="rgb(74,172,78)" stroke="rgb(74,172,78)" stroke-width="1" opacity="0.5529411764705883" d="M 137.5 66 L 136.5 68 Q 87.3 91.8 53 130.5 Q 33.6 151.6 20.5 179 L 21 177.5 Q 41 136 74.5 108 Q 102.4 83.4 137.5 66 Z " /><path fill="rgb(74,172,78)" stroke="rgb(74,172,78)" stroke-width="1" opacity="0.5529411764705883" d="M 434.5 117 L 434 118.5 L 419.5 149 L 419 147.5 L 434.5 117 Z " /><path fill="rgb(74,172,78)" stroke="rgb(74,172,78)" stroke-width="1" opacity="0.5529411764705883" d="M 418.5 150 L 419 151.5 L 416.5 156 L 416 154.5 L 418.5 150 Z " /><path fill="rgb(74,172,78)" stroke="rgb(74,172,78)" stroke-width="1" opacity="0.5529411764705883" d="M 415.5 157 L 416 158.5 L 411.5 169 L 411 167.5 L 415.5 157 Z " /><path fill="rgb(74,172,78)" stroke="rgb(74,172,78)" stroke-width="1" opacity="0.5529411764705883" d="M 408.5 176 L 409 177.5 L 405.5 187 L 405 184.5 L 408.5 176 Z " /><path fill="rgb(74,172,78)" stroke="rgb(74,172,78)" stroke-width="1" opacity="0.5529411764705883" d="M 18.5 182 L 19 183.5 L 16.5 188 L 16 186.5 L 18.5 182 Z " /><path fill="rgb(74,172,78)" stroke="rgb(74,172,78)" stroke-width="1" opacity="0.5529411764705883" d="M 15.5 189 L 16 190.5 L 12.5 198 L 12 196.5 L 15.5 189 Z " /><path fill="rgb(74,172,78)" stroke="rgb(74,172,78)" stroke-width="1" opacity="0.5529411764705883" d="M 403.5 191 L 404 193.5 L 402.5 197 L 402 194.5 L 403.5 191 Z " /><path fill="rgb(74,172,78)" stroke="rgb(74,172,78)" stroke-width="1" opacity="0.5529411764705883" d="M 401.5 198 L 402 200.5 L 400.5 204 L 400 201.5 L 401.5 198 Z " /><path fill="rgb(74,172,78)" stroke="rgb(74,172,78)" stroke-width="1" opacity="0.5529411764705883" d="M 399.5 205 L 400 207.5 L 399 207.5 L 399.5 205 Z " /><path fill="rgb(74,172,78)" stroke="rgb(74,172,78)" stroke-width="1" opacity="0.5529411764705883" d="M 8.5 208 L 9 210.5 L 7.5 214 L 7 211.5 L 8.5 208 Z " /><path fill="rgb(74,172,78)" stroke="rgb(74,172,78)" stroke-width="1" opacity="0.5529411764705883" d="M 398.5 209 L 399 211.5 L 398 211.5 L 398.5 209 Z " /><path fill="rgb(74,172,78)" stroke="rgb(74,172,78)" stroke-width="1" opacity="0.5529411764705883" d="M 397.5 213 L 398 216.5 L 396.5 221 L 396 217.5 L 397.5 213 Z " /><path fill="rgb(74,172,78)" stroke="rgb(74,172,78)" stroke-width="1" opacity="0.5529411764705883" d="M 6.5 215 L 7 217.5 L 6 217.5 L 6.5 215 Z " /><path fill="rgb(74,172,78)" stroke="rgb(74,172,78)" stroke-width="1" opacity="0.5529411764705883" d="M 5.5 219 L 6 221.5 L 5 221.5 L 5.5 219 Z " /><path fill="rgb(74,172,78)" stroke="rgb(74,172,78)" stroke-width="1" opacity="0.5529411764705883" d="M 395.5 222 L 396 224.5 L 395 224.5 L 395.5 222 Z " /><path fill="rgb(74,172,78)" stroke="rgb(74,172,78)" stroke-width="1" opacity="0.5529411764705883" d="M 4.5 223 L 5 226.5 L 4 226.5 L 4.5 223 Z " /><path fill="rgb(74,172,78)" stroke="rgb(74,172,78)" stroke-width="1" opacity="0.5529411764705883" d="M 394.5 226 L 395 229.5 L 394 229.5 L 394.5 226 Z " /><path fill="rgb(74,172,78)" stroke="rgb(74,172,78)" stroke-width="1" opacity="0.5529411764705883" d="M 3.5 228 L 4 231.5 L 3 231.5 L 3.5 228 Z " /><path fill="rgb(74,172,78)" stroke="rgb(74,172,78)" stroke-width="1" opacity="0.5529411764705883" d="M 393.5 231 L 394 233.5 L 393 233.5 L 393.5 231 Z " /><path fill="rgb(74,172,78)" stroke="rgb(74,172,78)" stroke-width="1" opacity="0.5529411764705883" d="M 2.5 233 L 3 238.5 L 2 238.5 L 2.5 233 Z " /><path fill="rgb(74,172,78)" stroke="rgb(74,172,78)" stroke-width="1" opacity="0.5529411764705883" d="M 392.5 235 L 393 238.5 L 391.5 243 L 391 239.5 L 392.5 235 Z " /><path fill="rgb(74,172,78)" stroke="rgb(74,172,78)" stroke-width="1" opacity="0.5529411764705883" d="M 1.5 241 L 2 246.5 L 1 246.5 L 1.5 241 Z " /><path fill="rgb(74,172,78)" stroke="rgb(74,172,78)" stroke-width="1" opacity="0.5529411764705883" d="M 390.5 244 L 391 246.5 L 390 246.5 L 390.5 244 Z " /><path fill="rgb(74,172,78)" stroke="rgb(74,172,78)" stroke-width="1" opacity="0.5529411764705883" d="M 389.5 248 L 390 251.5 L 388.5 256 L 388 252.5 L 389.5 248 Z " /><path fill="rgb(74,172,78)" stroke="rgb(74,172,78)" stroke-width="1" opacity="0.5529411764705883" d="M 0.5 249 L 1 261.5 L 0 261.5 L 0.5 249 Z " /><path fill="rgb(74,172,78)" stroke="rgb(74,172,78)" stroke-width="1" opacity="0.5529411764705883" d="M 387.5 257 L 388 259.5 L 385.5 267 L 385 264.5 L 387.5 257 Z " /><path fill="rgb(74,172,78)" stroke="rgb(74,172,78)" stroke-width="1" opacity="0.5529411764705883" d="M 384.5 268 L 385 270.5 L 384 270.5 L 384.5 268 Z " /><path fill="rgb(74,172,78)" stroke="rgb(74,172,78)" stroke-width="1" opacity="0.5529411764705883" d="M 383.5 272 L 384 274.5 L 382.5 278 L 382 275.5 L 383.5 272 Z " /><path fill="rgb(74,172,78)" stroke="rgb(74,172,78)" stroke-width="1" opacity="0.5529411764705883" d="M 0.5 273 L 1 286.5 L 0 286.5 L 0.5 273 Z " /><path fill="rgb(74,172,78)" stroke="rgb(74,172,78)" stroke-width="1" opacity="0.5529411764705883" d="M 380.5 282 L 381 284.5 L 379.5 288 L 379 285.5 L 380.5 282 Z " /><path fill="rgb(74,172,78)" stroke="rgb(74,172,78)" stroke-width="1" opacity="0.5529411764705883" d="M 1.5 289 L 2 293.5 L 1 293.5 L 1.5 289 Z " /><path fill="rgb(74,172,78)" stroke="rgb(74,172,78)" stroke-width="1" opacity="0.5529411764705883" d="M 2.5 296 L 3 300.5 L 2 300.5 L 2.5 296 Z " /><path fill="rgb(74,172,78)" stroke="rgb(74,172,78)" stroke-width="1" opacity="0.5529411764705883" d="M 3.5 302 L 6 313.5 L 5 313.5 L 3 306.5 L 3.5 302 Z " /><path fill="rgb(74,172,78)" stroke="rgb(74,172,78)" stroke-width="1" opacity="0.5529411764705883" d="M 373.5 304 L 374 305.5 L 371.5 311 L 371 309.5 L 373.5 304 Z " /><path fill="rgb(74,172,78)" stroke="rgb(74,172,78)" stroke-width="1" opacity="0.5529411764705883" d="M 370.5 312 L 371 313.5 L 369.5 316 L 369 314.5 L 370.5 312 Z " /><path fill="rgb(74,172,78)" stroke="rgb(74,172,78)" stroke-width="1" opacity="0.5529411764705883" d="M 6.5 315 L 7 317.5 L 6 317.5 L 6.5 315 Z " /><path fill="rgb(74,172,78)" stroke="rgb(74,172,78)" stroke-width="1" opacity="0.5529411764705883" d="M 368.5 317 L 369 318.5 L 367.5 321 L 367 319.5 L 368.5 317 Z " /><path fill="rgb(74,172,78)" stroke="rgb(74,172,78)" stroke-width="1" opacity="0.5529411764705883" d="M 7.5 319 L 8 321.5 L 7 321.5 L 7.5 319 Z " /><path fill="rgb(74,172,78)" stroke="rgb(74,172,78)" stroke-width="1" opacity="0.5529411764705883" d="M 366.5 322 L 367 323.5 L 365.5 326 L 365 324.5 L 366.5 322 Z " /><path fill="rgb(74,172,78)" stroke="rgb(74,172,78)" stroke-width="1" opacity="0.5529411764705883" d="M 8.5 323 L 11 329.5 L 10 329.5 L 8.5 323 Z " /><path fill="rgb(74,172,78)" stroke="rgb(74,172,78)" stroke-width="1" opacity="0.5529411764705883" d="M 363.5 329 L 364 330.5 Q 345.1 373.6 312.5 403 L 288.5 420 L 289.5 418 Q 310.9 406.4 326 388.5 Q 348.9 362.9 363.5 329 Z " /><path fill="rgb(74,172,78)" stroke="rgb(74,172,78)" stroke-width="1" opacity="0.5529411764705883" d="M 12.5 334 Q 23.3 362.7 43 382.5 L 39 379.5 L 21 354.5 L 13 338.5 L 12.5 334 Z " /><path fill="rgb(74,172,78)" stroke="rgb(74,172,78)" stroke-width="1" opacity="0.5529411764705883" d="M 41.5 384 L 41 385.5 L 37.5 392 L 38 390.5 L 41.5 384 Z " /><path fill="rgb(74,172,78)" stroke="rgb(74,172,78)" stroke-width="1" opacity="0.5529411764705883" d="M 35.5 395 L 35 396.5 L 31.5 404 L 31 402.5 L 35.5 395 Z " /><path fill="rgb(74,172,78)" stroke="rgb(74,172,78)" stroke-width="1" opacity="0.5529411764705883" d="M 59 399 L 61.5 399 L 82.5 414 L 107 425.5 L 105.5 426 Q 80.1 415.9 60.5 400 L 55.5 408 L 56 406.5 L 59 399 Z " /><path fill="rgb(74,172,78)" stroke="rgb(74,172,78)" stroke-width="1" opacity="0.5529411764705883" d="M 26.5 413 L 27 414.5 L 21.5 425 L 21 423.5 L 26.5 413 Z " /><path fill="rgb(74,172,78)" stroke="rgb(74,172,78)" stroke-width="1" opacity="0.5529411764705883" d="M 49.5 419 L 50 420.5 L 46.5 427 L 46 425.5 L 49.5 419 Z " /><path fill="rgb(74,172,78)" stroke="rgb(74,172,78)" stroke-width="1" opacity="0.5529411764705883" d="M 286.5 420 L 285.5 422 L 270.5 429 L 270.5 428 L 286.5 420 Z " /><path fill="rgb(74,172,78)" stroke="rgb(74,172,78)" stroke-width="1" opacity="0.5529411764705883" d="M 20.5 426 L 21 427.5 L 19.5 430 L 19 428.5 L 20.5 426 Z " /><path fill="rgb(74,172,78)" stroke="rgb(74,172,78)" stroke-width="1" opacity="0.5529411764705883" d="M 108.5 426 L 112 427.5 L 110.5 428 L 108.5 426 Z " /><path fill="rgb(74,172,78)" stroke="rgb(74,172,78)" stroke-width="1" opacity="0.5529411764705883" d="M 113.5 428 L 121 430.5 L 118.5 431 L 113.5 429 L 113.5 428 Z " /><path fill="rgb(74,172,78)" stroke="rgb(74,172,78)" stroke-width="1" opacity="0.5529411764705883" d="M 267.5 429 L 269 429.5 L 262.5 432 L 262.5 431 L 267.5 429 Z " /><path fill="rgb(74,172,78)" stroke="rgb(74,172,78)" stroke-width="1" opacity="0.5529411764705883" d="M 125.5 432 L 131 433.5 L 128.5 434 L 125.5 433 L 125.5 432 Z " /><path fill="rgb(74,172,78)" stroke="rgb(74,172,78)" stroke-width="1" opacity="0.5529411764705883" d="M 17.5 433 L 18 434.5 L 16.5 437 L 16 435.5 L 17.5 433 Z " /><path fill="rgb(74,172,78)" stroke="rgb(74,172,78)" stroke-width="1" opacity="0.5529411764705883" d="M 42.5 434 L 43 435.5 L 41.5 438 L 41 436.5 L 42.5 434 Z " /><path fill="rgb(74,172,78)" stroke="rgb(74,172,78)" stroke-width="1" opacity="0.5529411764705883" d="M 132.5 434 L 139 435.5 L 135.5 436 L 132.5 435 L 132.5 434 Z " /><path fill="rgb(74,172,78)" stroke="rgb(74,172,78)" stroke-width="1" opacity="0.5529411764705883" d="M 252.5 434 L 255 434.5 L 249.5 436 L 249.5 435 L 252.5 434 Z " /><path fill="rgb(74,172,78)" stroke="rgb(74,172,78)" stroke-width="1" opacity="0.5529411764705883" d="M 140.5 436 L 144 436.5 L 140.5 437 L 140.5 436 Z " /><path fill="rgb(74,172,78)" stroke="rgb(74,172,78)" stroke-width="1" opacity="0.5529411764705883" d="M 245.5 436 L 248 436.5 L 245.5 437 L 245.5 436 Z " /><path fill="rgb(74,172,78)" stroke="rgb(74,172,78)" stroke-width="1" opacity="0.5529411764705883" d="M 145.5 437 L 149 437.5 L 145.5 438 L 145.5 437 Z " /><path fill="rgb(74,172,78)" stroke="rgb(74,172,78)" stroke-width="1" opacity="0.5529411764705883" d="M 240.5 437 L 244 437.5 L 236.5 439 L 236.5 438 L 240.5 437 Z " /><path fill="rgb(74,172,78)" stroke="rgb(74,172,78)" stroke-width="1" opacity="0.5529411764705883" d="M 15.5 438 L 16 439.5 L 14.5 442 L 14 440.5 L 15.5 438 Z " /><path fill="rgb(74,172,78)" stroke="rgb(74,172,78)" stroke-width="1" opacity="0.5529411764705883" d="M 150.5 438 L 154 438.5 L 150.5 439 L 150.5 438 Z " /><path fill="rgb(74,172,78)" stroke="rgb(74,172,78)" stroke-width="1" opacity="0.5529411764705883" d="M 40.5 439 L 41 440.5 L 39.5 443 L 39 441.5 L 40.5 439 Z " /><path fill="rgb(74,172,78)" stroke="rgb(74,172,78)" stroke-width="1" opacity="0.5529411764705883" d="M 155.5 439 L 162 439.5 L 155.5 440 L 155.5 439 Z " /><path fill="rgb(74,172,78)" stroke="rgb(74,172,78)" stroke-width="1" opacity="0.5529411764705883" d="M 229.5 439 L 234 439.5 L 229.5 440 L 229.5 439 Z " /><path fill="rgb(74,172,78)" stroke="rgb(74,172,78)" stroke-width="1" opacity="0.5529411764705883" d="M 164.5 440 L 171 440.5 L 164.5 441 L 164.5 440 Z " /><path fill="rgb(74,172,78)" stroke="rgb(74,172,78)" stroke-width="1" opacity="0.5529411764705883" d="M 222.5 440 L 228 440.5 L 222.5 441 L 222.5 440 Z " /><path fill="rgb(74,172,78)" stroke="rgb(74,172,78)" stroke-width="1" opacity="0.5529411764705883" d="M 173.5 441 L 186 441.5 L 173.5 442 L 173.5 441 Z " /><path fill="rgb(74,172,78)" stroke="rgb(74,172,78)" stroke-width="1" opacity="0.5529411764705883" d="M 212.5 441 L 220 441.5 L 212.5 442 L 212.5 441 Z " /><path fill="rgb(74,172,78)" stroke="rgb(74,172,78)" stroke-width="1" opacity="0.5529411764705883" d="M 193.5 442 L 204 442.5 L 193.5 443 L 193.5 442 Z " /><path fill="rgb(74,172,78)" stroke="rgb(74,172,78)" stroke-width="1" opacity="0.5529411764705883" d="M 13.5 443 L 14 444.5 L 12.5 447 L 12 445.5 L 13.5 443 Z " /><path fill="rgb(74,172,78)" stroke="rgb(74,172,78)" stroke-width="1" opacity="0.5529411764705883" d="M 36.5 449 L 37 450.5 L 35.5 453 L 35 451.5 L 36.5 449 Z " /><path fill="rgb(74,172,78)" stroke="rgb(74,172,78)" stroke-width="1" opacity="0.5529411764705883" d="M 34.5 454 L 35 455.5 L 32.5 461 L 32 459.5 L 34.5 454 Z " /><path fill="rgb(74,172,78)" stroke="rgb(74,172,78)" stroke-width="1" opacity="0.5529411764705883" d="M 31.5 462 L 32 464.5 L 30.5 468 L 30 465.5 L 31.5 462 Z " /><path fill="rgb(74,172,78)" stroke="rgb(74,172,78)" stroke-width="1" opacity="0.5529411764705883" d="M 5.5 466 L 6 468.5 L 5 468.5 L 5.5 466 Z " /><path fill="rgb(74,172,78)" stroke="rgb(74,172,78)" stroke-width="1" opacity="0.5529411764705883" d="M 4.5 470 L 5 472.5 L 4 472.5 L 4.5 470 Z " /><path fill="rgb(74,172,78)" stroke="rgb(74,172,78)" stroke-width="1" opacity="0.5529411764705883" d="M 3.5 474 L 4 476.5 L 3 476.5 L 3.5 474 Z " /><path fill="rgb(74,172,78)" stroke="rgb(74,172,78)" stroke-width="1" opacity="0.5529411764705883" d="M 27.5 475 L 28 477.5 L 27 477.5 L 27.5 475 Z " /><path fill="rgb(74,172,78)" stroke="rgb(74,172,78)" stroke-width="1" opacity="0.5529411764705883" d="M 2.5 479 L 3 481.5 L 2 481.5 L 2.5 479 Z " /><path fill="rgb(74,172,78)" stroke="rgb(74,172,78)" stroke-width="1" opacity="0.5529411764705883" d="M 26.5 479 L 27 481.5 L 26 481.5 L 26.5 479 Z " /><path fill="rgb(74,172,78)" stroke="rgb(74,172,78)" stroke-width="1" opacity="0.5529411764705883" d="M 1.5 483 L 2 485.5 L 1 485.5 L 1.5 483 Z " /><path fill="rgb(74,172,78)" stroke="rgb(74,172,78)" stroke-width="1" opacity="0.5529411764705883" d="M 24.5 488 L 25 491.5 L 24 491.5 L 24.5 488 Z " /><path fill="rgb(74,172,78)" stroke="rgb(74,172,78)" stroke-width="1" opacity="0.5529411764705883" d="M 0.5 489 L 1 492.5 L 0 492.5 L 0.5 489 Z " /><path fill="rgb(74,172,78)" stroke="rgb(74,172,78)" stroke-width="1" opacity="0.5529411764705883" d="M 23.5 494 L 24 501.5 L 23 501.5 L 23.5 494 Z " /><path fill="rgb(74,172,78)" stroke="rgb(74,172,78)" stroke-width="1" opacity="0.5529411764705883" d="M 0.5 502 L 1 504.5 L 0 504.5 L 0.5 502 Z " /><path fill="rgb(74,172,78)" stroke="rgb(74,172,78)" stroke-width="1" opacity="0.5529411764705883" d="M 22.5 504 L 23 505.5 L 20.5 509 L 20 507.5 L 22.5 504 Z " /><path fill="rgb(74,172,78)" stroke="rgb(74,172,78)" stroke-width="1" opacity="0.5529411764705883" d="M 1.5 506 L 5.5 511 L 1.5 506 Z " /><path fill="rgb(74,172,78)" stroke="rgb(74,172,78)" stroke-width="1" opacity="0.5529411764705883" d="M 18.5 509 L 17.5 511 L 18.5 509 Z " /><path fill="rgb(74,172,78)" stroke="rgb(74,172,78)" stroke-width="1" opacity="0.5529411764705883" d="M 7.5 511 L 10 511.5 L 7.5 512 L 7.5 511 Z " /><path fill="rgb(74,172,78)" stroke="rgb(74,172,78)" stroke-width="1" opacity="0.5529411764705883" d="M 13.5 511 L 16 511.5 L 13.5 512 L 13.5 511 Z " /><path fill="rgb(76,174,80)" stroke="rgb(76,174,80)" stroke-width="1" opacity="0.996078431372549" d="M 483.5 0 L 502 0.5 L 483.5 1 L 483.5 0 Z " /><path fill="rgb(76,174,80)" stroke="rgb(76,174,80)" stroke-width="1" opacity="0.996078431372549" d="M 442.5 1 L 448 1.5 L 442.5 2 L 442.5 1 Z " /><path fill="rgb(76,174,80)" stroke="rgb(76,174,80)" stroke-width="1" opacity="0.996078431372549" d="M 419.5 2 L 423 2.5 L 419.5 3 L 419.5 2 Z " /><path fill="rgb(76,174,80)" stroke="rgb(76,174,80)" stroke-width="1" opacity="0.996078431372549" d="M 405.5 3 L 408 3.5 L 405.5 4 L 405.5 3 Z " /><path fill="rgb(76,174,80)" stroke="rgb(76,174,80)" stroke-width="1" opacity="0.996078431372549" d="M 390.5 4 L 394 4.5 L 390.5 5 L 390.5 4 Z " /><path fill="rgb(76,174,80)" stroke="rgb(76,174,80)" stroke-width="1" opacity="0.996078431372549" d="M 378.5 5 L 381 5.5 L 378.5 6 L 378.5 5 Z " /><path fill="rgb(76,174,80)" stroke="rgb(76,174,80)" stroke-width="1" opacity="0.996078431372549" d="M 511.5 10 L 512 13.5 L 511 13.5 L 511.5 10 Z " /><path fill="rgb(76,174,80)" stroke="rgb(76,174,80)" stroke-width="1" opacity="0.996078431372549" d="M 508.5 19 L 490.5 38 L 508.5 19 Z " /><path fill="rgb(76,174,80)" stroke="rgb(76,174,80)" stroke-width="1" opacity="0.996078431372549" d="M 485.5 43 L 482.5 47 L 485.5 43 Z " /><path fill="rgb(76,174,80)" stroke="rgb(76,174,80)" stroke-width="1" opacity="0.996078431372549" d="M 479.5 50 L 476.5 54 L 479.5 50 Z " /><path fill="rgb(76,174,80)" stroke="rgb(76,174,80)" stroke-width="1" opacity="0.996078431372549" d="M 474.5 56 L 472.5 59 L 474.5 56 Z " /><path fill="rgb(76,174,80)" stroke="rgb(76,174,80)" stroke-width="1" opacity="0.996078431372549" d="M 470.5 61 L 468.5 64 L 470.5 61 Z " /><path fill="rgb(76,174,80)" stroke="rgb(76,174,80)" stroke-width="1" opacity="0.996078431372549" d="M 467.5 65 L 466.5 67 L 467.5 65 Z " /><path fill="rgb(76,174,80)" stroke="rgb(76,174,80)" stroke-width="1" opacity="0.996078431372549" d="M 464.5 69 L 463.5 71 L 464.5 69 Z " /><path fill="rgb(76,174,80)" stroke="rgb(76,174,80)" stroke-width="1" opacity="0.996078431372549" d="M 461.5 73 L 460.5 75 L 461.5 73 Z " /><path fill="rgb(76,174,80)" stroke="rgb(76,174,80)" stroke-width="1" opacity="0.996078431372549" d="M 456.5 80 L 455.5 82 L 456.5 80 Z " /><path fill="rgb(76,174,80)" stroke="rgb(76,174,80)" stroke-width="1" opacity="0.996078431372549" d="M 110.5 82 L 109.5 84 L 110.5 82 Z " /><path fill="rgb(76,174,80)" stroke="rgb(76,174,80)" stroke-width="1" opacity="0.996078431372549" d="M 454.5 83 L 453.5 85 L 454.5 83 Z " /><path fill="rgb(76,174,80)" stroke="rgb(76,174,80)" stroke-width="1" opacity="0.996078431372549" d="M 107.5 84 L 106.5 86 L 107.5 84 Z " /><path fill="rgb(76,174,80)" stroke="rgb(76,174,80)" stroke-width="1" opacity="0.996078431372549" d="M 104.5 86 L 103.5 88 L 104.5 86 Z " /><path fill="rgb(76,174,80)" stroke="rgb(76,174,80)" stroke-width="1" opacity="0.996078431372549" d="M 452.5 86 L 451.5 88 L 452.5 86 Z " /><path fill="rgb(76,174,80)" stroke="rgb(76,174,80)" stroke-width="1" opacity="0.996078431372549" d="M 450.5 89 L 449.5 91 L 450.5 89 Z " /><path fill="rgb(76,174,80)" stroke="rgb(76,174,80)" stroke-width="1" opacity="0.996078431372549" d="M 94.5 93 L 93.5 95 L 94.5 93 Z " /><path fill="rgb(76,174,80)" stroke="rgb(76,174,80)" stroke-width="1" opacity="0.996078431372549" d="M 90.5 96 L 88.5 99 L 90.5 96 Z " /><path fill="rgb(76,174,80)" stroke="rgb(76,174,80)" stroke-width="1" opacity="0.996078431372549" d="M 445.5 97 L 444.5 99 L 445.5 97 Z " /><path fill="rgb(76,174,80)" stroke="rgb(76,174,80)" stroke-width="1" opacity="0.996078431372549" d="M 85.5 100 L 84.5 102 L 85.5 100 Z " /><path fill="rgb(76,174,80)" stroke="rgb(76,174,80)" stroke-width="1" opacity="0.996078431372549" d="M 81.5 103 L 78.5 107 L 81.5 103 Z " /><path fill="rgb(76,174,80)" stroke="rgb(76,174,80)" stroke-width="1" opacity="0.996078431372549" d="M 73.5 110 L 69.5 115 L 73.5 110 Z " /><path fill="rgb(76,174,80)" stroke="rgb(76,174,80)" stroke-width="1" opacity="0.996078431372549" d="M 314.5 116 L 318 116.5 L 314.5 117 L 314.5 116 Z " /><path fill="rgb(76,174,80)" stroke="rgb(76,174,80)" stroke-width="1" opacity="0.996078431372549" d="M 321.5 118 L 323.5 121 L 321.5 118 Z " /><path fill="rgb(76,174,80)" stroke="rgb(76,174,80)" stroke-width="1" opacity="0.996078431372549" d="M 298.5 122 L 297.5 124 L 289.5 128 L 290.5 126 L 298.5 122 Z " /><path fill="rgb(76,174,80)" stroke="rgb(76,174,80)" stroke-width="1" opacity="0.996078431372549" d="M 57.5 126 L 53.5 131 L 57.5 126 Z " /><path fill="rgb(76,174,80)" stroke="rgb(76,174,80)" stroke-width="1" opacity="0.996078431372549" d="M 285.5 129 L 284.5 131 L 282.5 132 L 283.5 130 L 285.5 129 Z " /><path fill="rgb(76,174,80)" stroke="rgb(76,174,80)" stroke-width="1" opacity="0.996078431372549" d="M 325.5 129 L 326 131.5 L 325 131.5 L 325.5 129 Z " /><path fill="rgb(76,174,80)" stroke="rgb(76,174,80)" stroke-width="1" opacity="0.996078431372549" d="M 276.5 134 L 275.5 136 L 273.5 137 L 274.5 135 L 276.5 134 Z " /><path fill="rgb(76,174,80)" stroke="rgb(76,174,80)" stroke-width="1" opacity="0.996078431372549" d="M 49.5 135 L 47.5 138 L 49.5 135 Z " /><path fill="rgb(76,174,80)" stroke="rgb(76,174,80)" stroke-width="1" opacity="0.996078431372549" d="M 323.5 135 L 322.5 137 L 323.5 135 Z " /><path fill="rgb(76,174,80)" stroke="rgb(76,174,80)" stroke-width="1" opacity="0.996078431372549" d="M 271.5 137 L 270.5 139 L 271.5 137 Z " /><path fill="rgb(76,174,80)" stroke="rgb(76,174,80)" stroke-width="1" opacity="0.996078431372549" d="M 317.5 139 L 316.5 141 L 304.5 147 L 305.5 145 L 317.5 139 Z " /><path fill="rgb(76,174,80)" stroke="rgb(76,174,80)" stroke-width="1" opacity="0.996078431372549" d="M 45.5 140 L 43.5 143 L 45.5 140 Z " /><path fill="rgb(76,174,80)" stroke="rgb(76,174,80)" stroke-width="1" opacity="0.996078431372549" d="M 266.5 140 L 265.5 142 L 266.5 140 Z " /><path fill="rgb(76,174,80)" stroke="rgb(76,174,80)" stroke-width="1" opacity="0.996078431372549" d="M 263.5 142 L 262.5 144 L 263.5 142 Z " /><path fill="rgb(76,174,80)" stroke="rgb(76,174,80)" stroke-width="1" opacity="0.996078431372549" d="M 41.5 145 L 40.5 147 L 41.5 145 Z " /><path fill="rgb(76,174,80)" stroke="rgb(76,174,80)" stroke-width="1" opacity="0.996078431372549" d="M 258.5 145 L 257.5 147 L 258.5 145 Z " /><path fill="rgb(76,174,80)" stroke="rgb(76,174,80)" stroke-width="1" opacity="0.996078431372549" d="M 255.5 147 L 254.5 149 L 255.5 147 Z " /><path fill="rgb(76,174,80)" stroke="rgb(76,174,80)" stroke-width="1" opacity="0.996078431372549" d="M 252.5 149 L 251.5 151 L 252.5 149 Z " /><path fill="rgb(76,174,80)" stroke="rgb(76,174,80)" stroke-width="1" opacity="0.996078431372549" d="M 296.5 150 L 295.5 152 L 293.5 153 L 294.5 151 L 296.5 150 Z " /><path fill="rgb(76,174,80)" stroke="rgb(76,174,80)" stroke-width="1" opacity="0.996078431372549" d="M 249.5 151 L 248.5 153 L 249.5 151 Z " /><path fill="rgb(76,174,80)" stroke="rgb(76,174,80)" stroke-width="1" opacity="0.996078431372549" d="M 246.5 153 L 245.5 155 L 246.5 153 Z " /><path fill="rgb(76,174,80)" stroke="rgb(76,174,80)" stroke-width="1" opacity="0.996078431372549" d="M 289.5 154 L 288.5 156 L 286.5 157 L 287.5 155 L 289.5 154 Z " /><path fill="rgb(76,174,80)" stroke="rgb(76,174,80)" stroke-width="1" opacity="0.996078431372549" d="M 34.5 155 L 33.5 157 L 34.5 155 Z " /><path fill="rgb(76,174,80)" stroke="rgb(76,174,80)" stroke-width="1" opacity="0.996078431372549" d="M 243.5 155 L 242.5 157 L 243.5 155 Z " /><path fill="rgb(76,174,80)" stroke="rgb(76,174,80)" stroke-width="1" opacity="0.996078431372549" d="M 240.5 157 L 238.5 160 L 240.5 157 Z " /><path fill="rgb(76,174,80)" stroke="rgb(76,174,80)" stroke-width="1" opacity="0.996078431372549" d="M 282.5 158 L 281.5 160 L 282.5 158 Z " /><path fill="rgb(76,174,80)" stroke="rgb(76,174,80)" stroke-width="1" opacity="0.996078431372549" d="M 236.5 160 L 234.5 163 L 236.5 160 Z " /><path fill="rgb(76,174,80)" stroke="rgb(76,174,80)" stroke-width="1" opacity="0.996078431372549" d="M 279.5 160 L 278.5 162 L 276.5 163 L 277.5 161 L 279.5 160 Z " /><path fill="rgb(76,174,80)" stroke="rgb(76,174,80)" stroke-width="1" opacity="0.996078431372549" d="M 232.5 163 L 230.5 166 L 227.5 168 L 229.5 165 L 232.5 163 Z " /><path fill="rgb(76,174,80)" stroke="rgb(76,174,80)" stroke-width="1" opacity="0.996078431372549" d="M 274.5 163 L 273.5 165 L 274.5 163 Z " /><path fill="rgb(76,174,80)" stroke="rgb(76,174,80)" stroke-width="1" opacity="0.996078431372549" d="M 271.5 165 L 270.5 167 L 268.5 168 L 269.5 166 L 271.5 165 Z " /><path fill="rgb(76,174,80)" stroke="rgb(76,174,80)" stroke-width="1" opacity="0.996078431372549" d="M 225.5 168 L 222.5 172 L 225.5 168 Z " /><path fill="rgb(76,174,80)" stroke="rgb(76,174,80)" stroke-width="1" opacity="0.996078431372549" d="M 266.5 168 L 265.5 170 L 266.5 168 Z " /><path fill="rgb(76,174,80)" stroke="rgb(76,174,80)" stroke-width="1" opacity="0.996078431372549" d="M 263.5 170 L 262.5 172 L 263.5 170 Z " /><path fill="rgb(76,174,80)" stroke="rgb(76,174,80)" stroke-width="1" opacity="0.996078431372549" d="M 220.5 172 L 218.5 175 L 220.5 172 Z " /><path fill="rgb(76,174,80)" stroke="rgb(76,174,80)" stroke-width="1" opacity="0.996078431372549" d="M 260.5 172 L 259.5 174 L 260.5 172 Z " /><path fill="rgb(76,174,80)" stroke="rgb(76,174,80)" stroke-width="1" opacity="0.996078431372549" d="M 257.5 174 L 255.5 177 L 252.5 179 L 254.5 176 L 257.5 174 Z " /><path fill="rgb(76,174,80)" stroke="rgb(76,174,80)" stroke-width="1" opacity="0.996078431372549" d="M 216.5 175 L 213.5 179 L 216.5 175 Z " /><path fill="rgb(76,174,80)" stroke="rgb(76,174,80)" stroke-width="1" opacity="0.996078431372549" d="M 211.5 179 L 208.5 183 L 211.5 179 Z " /><path fill="rgb(76,174,80)" stroke="rgb(76,174,80)" stroke-width="1" opacity="0.996078431372549" d="M 250.5 179 L 249.5 181 L 250.5 179 Z " /><path fill="rgb(76,174,80)" stroke="rgb(76,174,80)" stroke-width="1" opacity="0.996078431372549" d="M 247.5 181 L 245.5 184 L 247.5 181 Z " /><path fill="rgb(76,174,80)" stroke="rgb(76,174,80)" stroke-width="1" opacity="0.996078431372549" d="M 206.5 183 L 202.5 188 L 206.5 183 Z " /><path fill="rgb(76,174,80)" stroke="rgb(76,174,80)" stroke-width="1" opacity="0.996078431372549" d="M 243.5 184 L 241.5 187 L 243.5 184 Z " /><path fill="rgb(76,174,80)" stroke="rgb(76,174,80)" stroke-width="1" opacity="0.996078431372549" d="M 239.5 187 L 238.5 189 L 239.5 187 Z " /><path fill="rgb(76,174,80)" stroke="rgb(76,174,80)" stroke-width="1" opacity="0.996078431372549" d="M 200.5 188 L 196.5 193 L 200.5 188 Z " /><path fill="rgb(76,174,80)" stroke="rgb(76,174,80)" stroke-width="1" opacity="0.996078431372549" d="M 236.5 189 L 233.5 193 L 236.5 189 Z " /><path fill="rgb(76,174,80)" stroke="rgb(76,174,80)" stroke-width="1" opacity="0.996078431372549" d="M 194.5 193 L 187.5 201 L 194.5 193 Z " /><path fill="rgb(76,174,80)" stroke="rgb(76,174,80)" stroke-width="1" opacity="0.996078431372549" d="M 231.5 193 L 229.5 196 L 231.5 193 Z " /><path fill="rgb(76,174,80)" stroke="rgb(76,174,80)" stroke-width="1" opacity="0.996078431372549" d="M 227.5 196 L 224.5 200 L 227.5 196 Z " /><path fill="rgb(76,174,80)" stroke="rgb(76,174,80)" stroke-width="1" opacity="0.996078431372549" d="M 222.5 200 L 219.5 204 L 222.5 200 Z " /><path fill="rgb(76,174,80)" stroke="rgb(76,174,80)" stroke-width="1" opacity="0.996078431372549" d="M 184.5 202 L 175.5 212 L 184.5 202 Z " /><path fill="rgb(76,174,80)" stroke="rgb(76,174,80)" stroke-width="1" opacity="0.996078431372549" d="M 216.5 205 L 212.5 210 L 216.5 205 Z " /><path fill="rgb(76,174,80)" stroke="rgb(76,174,80)" stroke-width="1" opacity="0.996078431372549" d="M 210.5 210 L 206.5 215 L 210.5 210 Z " /><path fill="rgb(76,174,80)" stroke="rgb(76,174,80)" stroke-width="1" opacity="0.996078431372549" d="M 171.5 214 L 150.5 236 L 171.5 214 Z " /><path fill="rgb(76,174,80)" stroke="rgb(76,174,80)" stroke-width="1" opacity="0.996078431372549" d="M 203.5 216 L 196.5 224 L 203.5 216 Z " /><path fill="rgb(76,174,80)" stroke="rgb(76,174,80)" stroke-width="1" opacity="0.996078431372549" d="M 193.5 225 L 158.5 261 L 193.5 225 Z " /><path fill="rgb(76,174,80)" stroke="rgb(76,174,80)" stroke-width="1" opacity="0.996078431372549" d="M 147.5 239 L 137.5 250 L 147.5 239 Z " /><path fill="rgb(76,174,80)" stroke="rgb(76,174,80)" stroke-width="1" opacity="0.996078431372549" d="M 135.5 252 L 128.5 260 L 135.5 252 Z " /><path fill="rgb(76,174,80)" stroke="rgb(76,174,80)" stroke-width="1" opacity="0.996078431372549" d="M 127.5 261 L 123.5 266 L 127.5 261 Z " /><path fill="rgb(76,174,80)" stroke="rgb(76,174,80)" stroke-width="1" opacity="0.996078431372549" d="M 0.5 262 L 1 272.5 L 0 272.5 L 0.5 262 Z " /><path fill="rgb(76,174,80)" stroke="rgb(76,174,80)" stroke-width="1" opacity="0.996078431372549" d="M 156.5 263 L 149.5 271 L 156.5 263 Z " /><path fill="rgb(76,174,80)" stroke="rgb(76,174,80)" stroke-width="1" opacity="0.996078431372549" d="M 122.5 267 L 119.5 271 L 122.5 267 Z " /><path fill="rgb(76,174,80)" stroke="rgb(76,174,80)" stroke-width="1" opacity="0.996078431372549" d="M 117.5 273 L 114.5 277 L 117.5 273 Z " /><path fill="rgb(76,174,80)" stroke="rgb(76,174,80)" stroke-width="1" opacity="0.996078431372549" d="M 147.5 273 L 142.5 279 L 147.5 273 Z " /><path fill="rgb(76,174,80)" stroke="rgb(76,174,80)" stroke-width="1" opacity="0.996078431372549" d="M 112.5 279 L 109.5 283 L 112.5 279 Z " /><path fill="rgb(76,174,80)" stroke="rgb(76,174,80)" stroke-width="1" opacity="0.996078431372549" d="M 140.5 281 L 137.5 285 L 140.5 281 Z " /><path fill="rgb(76,174,80)" stroke="rgb(76,174,80)" stroke-width="1" opacity="0.996078431372549" d="M 108.5 284 L 104.5 289 L 108.5 284 Z " /><path fill="rgb(76,174,80)" stroke="rgb(76,174,80)" stroke-width="1" opacity="0.996078431372549" d="M 136.5 286 L 133.5 290 L 136.5 286 Z " /><path fill="rgb(76,174,80)" stroke="rgb(76,174,80)" stroke-width="1" opacity="0.996078431372549" d="M 103.5 290 L 101.5 293 L 103.5 290 Z " /><path fill="rgb(76,174,80)" stroke="rgb(76,174,80)" stroke-width="1" opacity="0.996078431372549" d="M 132.5 291 L 129.5 295 L 132.5 291 Z " /><path fill="rgb(76,174,80)" stroke="rgb(76,174,80)" stroke-width="1" opacity="0.996078431372549" d="M 100.5 294 L 98.5 297 L 100.5 294 Z " /><path fill="rgb(76,174,80)" stroke="rgb(76,174,80)" stroke-width="1" opacity="0.996078431372549" d="M 127.5 297 L 124.5 301 L 127.5 297 Z " /><path fill="rgb(76,174,80)" stroke="rgb(76,174,80)" stroke-width="1" opacity="0.996078431372549" d="M 97.5 298 L 95.5 301 L 97.5 298 Z " /><path fill="rgb(76,174,80)" stroke="rgb(76,174,80)" stroke-width="1" opacity="0.996078431372549" d="M 94.5 302 L 93.5 304 L 94.5 302 Z " /><path fill="rgb(76,174,80)" stroke="rgb(76,174,80)" stroke-width="1" opacity="0.996078431372549" d="M 123.5 302 L 120.5 306 L 123.5 302 Z " /><path fill="rgb(76,174,80)" stroke="rgb(76,174,80)" stroke-width="1" opacity="0.996078431372549" d="M 92.5 305 L 90.5 308 L 92.5 305 Z " /><path fill="rgb(76,174,80)" stroke="rgb(76,174,80)" stroke-width="1" opacity="0.996078431372549" d="M 119.5 307 L 117.5 310 L 119.5 307 Z " /><path fill="rgb(76,174,80)" stroke="rgb(76,174,80)" stroke-width="1" opacity="0.996078431372549" d="M 89.5 309 L 87.5 312 L 89.5 309 Z " /><path fill="rgb(76,174,80)" stroke="rgb(76,174,80)" stroke-width="1" opacity="0.996078431372549" d="M 116.5 311 L 114.5 314 L 116.5 311 Z " /><path fill="rgb(76,174,80)" stroke="rgb(76,174,80)" stroke-width="1" opacity="0.996078431372549" d="M 86.5 313 L 84.5 316 L 86.5 313 Z " /><path fill="rgb(76,174,80)" stroke="rgb(76,174,80)" stroke-width="1" opacity="0.996078431372549" d="M 113.5 315 L 112.5 317 L 113.5 315 Z " /><path fill="rgb(76,174,80)" stroke="rgb(76,174,80)" stroke-width="1" opacity="0.996078431372549" d="M 83.5 317 L 82 319.5 L 77.5 326 L 79 323.5 L 83.5 317 Z " /><path fill="rgb(76,174,80)" stroke="rgb(76,174,80)" stroke-width="1" opacity="0.996078431372549" d="M 111.5 318 L 109.5 321 L 111.5 318 Z " /><path fill="rgb(76,174,80)" stroke="rgb(76,174,80)" stroke-width="1" opacity="0.996078431372549" d="M 108.5 322 L 106.5 325 L 108.5 322 Z " /><path fill="rgb(76,174,80)" stroke="rgb(76,174,80)" stroke-width="1" opacity="0.996078431372549" d="M 105.5 326 L 103.5 329 L 105.5 326 Z " /><path fill="rgb(76,174,80)" stroke="rgb(76,174,80)" stroke-width="1" opacity="0.996078431372549" d="M 76.5 327 L 75.5 329 L 76.5 327 Z " /><path fill="rgb(76,174,80)" stroke="rgb(76,174,80)" stroke-width="1" opacity="0.996078431372549" d="M 74.5 330 L 73.5 332 L 74.5 330 Z " /><path fill="rgb(76,174,80)" stroke="rgb(76,174,80)" stroke-width="1" opacity="0.996078431372549" d="M 102.5 330 L 101.5 332 L 102.5 330 Z " /><path fill="rgb(76,174,80)" stroke="rgb(76,174,80)" stroke-width="1" opacity="0.996078431372549" d="M 72.5 333 L 71.5 335 L 72.5 333 Z " /><path fill="rgb(76,174,80)" stroke="rgb(76,174,80)" stroke-width="1" opacity="0.996078431372549" d="M 100.5 333 L 99 335.5 L 93.5 344 L 94 342.5 L 100.5 333 Z " /><path fill="rgb(76,174,80)" stroke="rgb(76,174,80)" stroke-width="1" opacity="0.996078431372549" d="M 70.5 336 L 69.5 338 L 70.5 336 Z " /><path fill="rgb(76,174,80)" stroke="rgb(76,174,80)" stroke-width="1" opacity="0.996078431372549" d="M 68.5 339 L 67.5 341 L 68.5 339 Z " /><path fill="rgb(76,174,80)" stroke="rgb(76,174,80)" stroke-width="1" opacity="0.996078431372549" d="M 66.5 342 L 65.5 344 L 66.5 342 Z " /><path fill="rgb(76,174,80)" stroke="rgb(76,174,80)" stroke-width="1" opacity="0.996078431372549" d="M 64.5 345 L 63.5 347 L 64.5 345 Z " /><path fill="rgb(76,174,80)" stroke="rgb(76,174,80)" stroke-width="1" opacity="0.996078431372549" d="M 92.5 345 L 91.5 347 L 92.5 345 Z " /><path fill="rgb(76,174,80)" stroke="rgb(76,174,80)" stroke-width="1" opacity="0.996078431372549" d="M 90.5 348 L 89.5 350 L 90.5 348 Z " /><path fill="rgb(76,174,80)" stroke="rgb(76,174,80)" stroke-width="1" opacity="0.996078431372549" d="M 61.5 350 L 60.5 352 L 61.5 350 Z " /><path fill="rgb(76,174,80)" stroke="rgb(76,174,80)" stroke-width="1" opacity="0.996078431372549" d="M 88.5 351 L 87.5 353 L 88.5 351 Z " /><path fill="rgb(76,174,80)" stroke="rgb(76,174,80)" stroke-width="1" opacity="0.996078431372549" d="M 22.5 354 L 23.5 356 L 22.5 354 Z " /><path fill="rgb(76,174,80)" stroke="rgb(76,174,80)" stroke-width="1" opacity="0.996078431372549" d="M 86.5 354 L 85.5 356 L 86.5 354 Z " /><path fill="rgb(76,174,80)" stroke="rgb(76,174,80)" stroke-width="1" opacity="0.996078431372549" d="M 58.5 355 L 57.5 357 L 58.5 355 Z " /><path fill="rgb(76,174,80)" stroke="rgb(76,174,80)" stroke-width="1" opacity="0.996078431372549" d="M 84.5 357 L 83.5 359 L 84.5 357 Z " /><path fill="rgb(76,174,80)" stroke="rgb(76,174,80)" stroke-width="1" opacity="0.996078431372549" d="M 56.5 358 L 56 359.5 L 54.5 362 L 55 360.5 L 56.5 358 Z " /><path fill="rgb(76,174,80)" stroke="rgb(76,174,80)" stroke-width="1" opacity="0.996078431372549" d="M 82.5 360 L 81.5 362 L 82.5 360 Z " /><path fill="rgb(76,174,80)" stroke="rgb(76,174,80)" stroke-width="1" opacity="0.996078431372549" d="M 53.5 363 L 53 364.5 L 51.5 367 L 52 365.5 L 53.5 363 Z " /><path fill="rgb(76,174,80)" stroke="rgb(76,174,80)" stroke-width="1" opacity="0.996078431372549" d="M 344.5 363 L 343.5 365 L 344.5 363 Z " /><path fill="rgb(76,174,80)" stroke="rgb(76,174,80)" stroke-width="1" opacity="0.996078431372549" d="M 79.5 365 L 78.5 367 L 79.5 365 Z " /><path fill="rgb(76,174,80)" stroke="rgb(76,174,80)" stroke-width="1" opacity="0.996078431372549" d="M 342.5 366 L 341.5 368 L 342.5 366 Z " /><path fill="rgb(76,174,80)" stroke="rgb(76,174,80)" stroke-width="1" opacity="0.996078431372549" d="M 50.5 368 L 49.5 370 L 50.5 368 Z " /><path fill="rgb(76,174,80)" stroke="rgb(76,174,80)" stroke-width="1" opacity="0.996078431372549" d="M 32.5 369 L 33.5 371 L 32.5 369 Z " /><path fill="rgb(76,174,80)" stroke="rgb(76,174,80)" stroke-width="1" opacity="0.996078431372549" d="M 76.5 370 L 75.5 372 L 76.5 370 Z " /><path fill="rgb(76,174,80)" stroke="rgb(76,174,80)" stroke-width="1" opacity="0.996078431372549" d="M 47.5 373 L 47 374.5 L 44.5 379 L 45 377.5 L 47.5 373 Z " /><path fill="rgb(76,174,80)" stroke="rgb(76,174,80)" stroke-width="1" opacity="0.996078431372549" d="M 337.5 373 L 336.5 375 L 337.5 373 Z " /><path fill="rgb(76,174,80)" stroke="rgb(76,174,80)" stroke-width="1" opacity="0.996078431372549" d="M 36.5 374 L 38.5 377 L 36.5 374 Z " /><path fill="rgb(76,174,80)" stroke="rgb(76,174,80)" stroke-width="1" opacity="0.996078431372549" d="M 73.5 375 L 73 376.5 L 71.5 379 L 72 377.5 L 73.5 375 Z " /><path fill="rgb(76,174,80)" stroke="rgb(76,174,80)" stroke-width="1" opacity="0.996078431372549" d="M 335.5 376 L 334.5 378 L 335.5 376 Z " /><path fill="rgb(76,174,80)" stroke="rgb(76,174,80)" stroke-width="1" opacity="0.996078431372549" d="M 40.5 379 Q 42.3 382.1 44 380.5 L 42.5 382 L 40.5 379 Z " /><path fill="rgb(76,174,80)" stroke="rgb(76,174,80)" stroke-width="1" opacity="0.996078431372549" d="M 70.5 380 L 70 381.5 L 68.5 384 L 69 382.5 L 70.5 380 Z " /><path fill="rgb(76,174,80)" stroke="rgb(76,174,80)" stroke-width="1" opacity="0.996078431372549" d="M 331.5 381 L 329.5 384 L 331.5 381 Z " /><path fill="rgb(76,174,80)" stroke="rgb(76,174,80)" stroke-width="1" opacity="0.996078431372549" d="M 67.5 385 L 67 386.5 L 64.5 391 L 65 389.5 L 67.5 385 Z " /><path fill="rgb(76,174,80)" stroke="rgb(76,174,80)" stroke-width="1" opacity="0.996078431372549" d="M 325.5 388 L 313.5 401 L 325.5 388 Z " /><path fill="rgb(76,174,80)" stroke="rgb(76,174,80)" stroke-width="1" opacity="0.996078431372549" d="M 63.5 400 L 64.5 402 L 63.5 400 Z " /><path fill="rgb(76,174,80)" stroke="rgb(76,174,80)" stroke-width="1" opacity="0.996078431372549" d="M 309.5 403 L 306.5 407 L 309.5 403 Z " /><path fill="rgb(76,174,80)" stroke="rgb(76,174,80)" stroke-width="1" opacity="0.996078431372549" d="M 303.5 408 L 302.5 410 L 303.5 408 Z " /><path fill="rgb(76,174,80)" stroke="rgb(76,174,80)" stroke-width="1" opacity="0.996078431372549" d="M 76.5 409 L 77.5 411 L 76.5 409 Z " /><path fill="rgb(76,174,80)" stroke="rgb(76,174,80)" stroke-width="1" opacity="0.996078431372549" d="M 299.5 411 L 298.5 413 L 299.5 411 Z " /><path fill="rgb(76,174,80)" stroke="rgb(76,174,80)" stroke-width="1" opacity="0.996078431372549" d="M 296.5 413 L 295.5 415 L 296.5 413 Z " /><path fill="rgb(76,174,80)" stroke="rgb(76,174,80)" stroke-width="1" opacity="0.996078431372549" d="M 186.5 441 L 193 441.5 L 186.5 442 L 186.5 441 Z " /><path fill="rgb(76,174,80)" stroke="rgb(76,174,80)" stroke-width="1" opacity="0.996078431372549" d="M 204.5 441 L 212 441.5 L 204.5 442 L 204.5 441 Z " /><path fill="rgb(0,0,0)" stroke="rgb(0,0,0)" stroke-width="1" opacity="0" d="M 0 0 L 448 0.5 L 381.5 4 L 380.5 5 L 351.5 7 L 350.5 8 L 314.5 12 L 257.5 23 L 206.5 37 L 159.5 55 L 110.5 81 Q 76.8 102.3 51 131.5 Q 29.7 155.2 16 186.5 L 4 223.5 L 0.5 249 L 0 0 Z " /><path fill="rgb(0,0,0)" stroke="rgb(0,0,0)" stroke-width="1" opacity="0" d="M 505.5 0 Q 515.3 -3.3 512 6.5 L 511 6.5 L 506.5 1 L 505.5 0 Z " /><path fill="rgb(0,0,0)" stroke="rgb(0,0,0)" stroke-width="1" opacity="0" d="M 511.5 16 L 512 512 L 16 511.5 L 21 509 L 24 501.5 L 25 486.5 L 32 461.5 L 43 433.5 L 60.5 400 L 82.5 415 L 102.5 425 L 118.5 431 L 155.5 440 L 163.5 440 L 173.5 442 L 203.5 443 L 204.5 442 L 219.5 442 L 220.5 441 L 239.5 439 L 271.5 429 Q 306.1 413.6 329 386.5 Q 343.6 369.1 355 348.5 L 373 308.5 L 387 263.5 L 395 225.5 L 398 216.5 L 398 212.5 L 404 190.5 Q 412 164 423 140.5 Q 438.9 105.9 460 76.5 L 482 48.5 L 510 19.5 L 511.5 16 Z " /><path fill="rgb(0,0,0)" stroke="rgb(0,0,0)" stroke-width="1" opacity="0" d="M 0.5 287 L 3 306.5 L 13 338.5 L 21 354.5 L 42 383.5 L 31 402.5 L 12 445.5 L 5 466.5 L 0.5 489 L 0.5 287 Z " /><path fill="rgb(0,0,0)" stroke="rgb(0,0,0)" stroke-width="1" opacity="0" d="M 0.5 505 L 5.5 511 L 7 511.5 L 0 512 L 0.5 505 Z " /><path fill="rgb(76,175,80)" stroke="rgb(76,175,80)" stroke-width="1" opacity="1" d="M 448.5 1 L 503.5 1 L 509 4.5 Q 512.6 7.4 511 15.5 L 468 63.5 Q 448 89.5 432 119.5 Q 416.1 149.1 405 183.5 L 396 216.5 L 396 220.5 L 384 270.5 L 375 299.5 L 365 325.5 Q 345.3 371.8 310.5 403 Q 289.6 421.6 260.5 432 L 243.5 437 L 227.5 440 L 193.5 442 L 192.5 441 L 173.5 441 L 172.5 440 L 156.5 439 L 122.5 431 Q 86.6 419.9 61 398.5 Q 114.8 297.8 195.5 224 Q 225 197 258.5 174 L 283.5 158 L 316.5 141 L 324 135.5 Q 327.2 132.2 326 124.5 L 321.5 118 Q 318.5 115 311.5 116 L 274.5 135 L 229.5 165 Q 186.4 196.9 150 235.5 Q 88.2 300.2 42.5 381 Q 30.6 368.9 22 353.5 L 8 321.5 L 1 286.5 L 1 249.5 L 7 215.5 L 12 199.5 L 24 172.5 Q 42.1 139.6 68.5 115 Q 98 87.5 135.5 68 L 184.5 46 L 230.5 31 L 276.5 20 L 321.5 12 L 328.5 12 L 351.5 8 L 380.5 6 L 381.5 5 L 422.5 3 L 423.5 2 L 447.5 2 L 448.5 1 Z " /><path fill="rgb(56,142,60)" stroke="rgb(56,142,60)" stroke-width="1" opacity="0.984313725490196" d="M 313.5 116 L 320.5 118 L 324 121.5 L 326 128.5 Q 325.1 135.1 320.5 138 Q 274.6 159.6 236.5 189 Q 193.9 221.4 158 260.5 Q 105.7 317.2 66 386.5 L 46 425.5 L 33 456.5 L 24 488.5 L 23 503.5 L 20 509 Q 17 511.7 10.5 512 L 6.5 511 L 1 505.5 L 0 493.5 L 6 465.5 L 21 425.5 Q 39.6 384.1 63 347.5 Q 111.3 272.3 174.5 212 Q 205.9 182.4 241.5 157 Q 274.3 133.3 313.5 116 Z " /></svg>