<svg width="512" height="512" version="1.1" xmlns="http://www.w3.org/2000/svg" desc="Created with imagetracer.js version 1.2.6" ><path fill="rgb(0,0,0)" stroke="rgb(0,0,0)" stroke-width="1" opacity="0" d="M 0 0 L 512 0 L 512 512 L 0 512 L 0 0 Z M 220 25 L 215 29 L 223 72 L 223 100 Q 221 101 222 107 Q 219 125 211 140 L 195 164 L 154 205 Q 137 223 124 245 L 105 283 L 97 310 L 95 328 L 94 329 L 94 357 L 99 383 Q 109 413 128 434 L 152 455 L 193 481 Q 198 482 199 479 L 198 473 L 184 445 L 176 423 L 173 409 L 172 391 L 171 390 L 172 365 L 173 364 L 173 357 L 176 341 Q 182 312 193 288 L 198 284 Q 204 283 206 286 L 208 291 L 209 305 L 213 320 Q 217 332 225 341 L 246 359 L 278 381 Q 291 391 300 407 L 305 419 L 307 428 L 307 451 L 300 484 L 305 487 Q 339 470 367 446 Q 385 429 398 408 Q 407 393 412 376 L 418 344 L 418 313 L 417 312 L 417 304 L 416 303 L 414 285 L 408 261 L 393 218 L 389 214 L 386 215 L 372 243 L 365 253 Q 352 269 328 275 Q 303 278 293 267 Q 285 261 281 253 L 277 240 L 277 232 L 276 231 L 278 208 L 287 178 L 290 161 L 290 153 L 291 152 L 290 123 L 283 98 Q 274 77 260 62 L 230 32 L 220 25 Z " /><path fill="rgb(233,129,48)" stroke="rgb(233,129,48)" stroke-width="1" opacity="0.9803921568627451" d="M 147.5 214 L 146 216.5 L 369.5 441 L 373.5 438 L 370.5 442 L 367.5 444 L 345.5 463 Q 326.4 476.4 304.5 487 L 300 483.5 L 307 450.5 L 307 427.5 L 305 418.5 L 300 406.5 L 288 390 L 265.5 372 L 240.5 355 L 225 340.5 Q 217.4 331.6 213 319.5 L 209 304.5 L 208 290.5 L 204.5 285 L 197.5 284 L 193 287.5 Q 182.4 311.9 176 340.5 L 173 356.5 L 173 363.5 L 172 364.5 L 171 389.5 L 172 390.5 L 173 408.5 L 176 422.5 L 184 444.5 L 198 472.5 L 199 478.5 Q 198 482 192.5 481 L 151.5 455 L 128 433.5 Q 108.6 412.9 99 382.5 L 94 356.5 L 94 328.5 L 100 297.5 L 111 268.5 Q 125.2 238.7 145.5 215 L 147.5 214 Z " /><path fill="rgb(233,129,48)" stroke="rgb(233,129,48)" stroke-width="1" opacity="0.9803921568627451" d="M 377.5 434 L 376.5 436 L 377.5 434 Z " /><path fill="rgb(219,87,65)" stroke="rgb(219,87,65)" stroke-width="1" opacity="0.9921568627450981" d="M 210.5 143 L 277 209.5 L 277 212.5 L 276 215.5 L 277 218.5 L 276 231.5 Q 278.8 233.2 277 239.5 L 281 252.5 Q 285.6 261.9 293.5 268 Q 304.3 277.7 327.5 275 L 332.5 273 Q 334 275.5 335.5 272 L 338.5 273 L 339.5 272 L 417 349.5 L 415 353.5 L 416 357.5 Q 405.6 408.1 374.5 438 L 369.5 441 L 146 216.5 L 148 212.5 L 154 204.5 L 195 163.5 L 206.5 147 L 208 146.5 L 207.5 145 L 209 145.5 L 210.5 143 Z " /><path fill="rgb(219,87,65)" stroke="rgb(219,87,65)" stroke-width="1" opacity="0.9921568627450981" d="M 367.5 444 L 366.5 446 L 367.5 444 Z " /><path fill="rgb(209,54,78)" stroke="rgb(209,54,78)" stroke-width="1" opacity="0.9764705882352941" d="M 219.5 25 L 229.5 32 L 260 61.5 Q 274.1 76.9 283 97.5 L 290 122.5 L 291 151.5 L 290 152.5 L 290 160.5 L 287 177.5 L 279 203.5 L 276.5 216 L 276 213.5 L 277 209.5 L 210.5 143 L 209 144.5 L 207.5 147 L 208 145.5 L 217 125.5 L 221 111.5 L 222 100.5 L 223 99.5 L 223 71.5 L 215 28.5 L 219.5 25 Z " /><path fill="rgb(209,54,78)" stroke="rgb(209,54,78)" stroke-width="1" opacity="0.9764705882352941" d="M 388.5 214 L 393 217.5 L 408 260.5 L 414 284.5 L 416 302.5 L 417 303.5 L 417 311.5 L 418 312.5 L 418 343.5 L 416.5 349 L 339.5 272 L 338.5 273 L 337 272.5 Q 354.7 265.2 366 251.5 L 372 242.5 L 385.5 215 L 388.5 214 Z " /><path fill="rgb(209,54,78)" stroke="rgb(209,54,78)" stroke-width="1" opacity="0.9764705882352941" d="M 416.5 350 L 417 352.5 L 415 353.5 L 416.5 350 Z " /></svg>