<svg width="512" height="512" version="1.1" xmlns="http://www.w3.org/2000/svg" desc="Created with imagetracer.js version 1.2.6" ><path fill="rgb(16,11,6)" stroke="rgb(16,11,6)" stroke-width="1" opacity="0.8823529411764706" d="M 173.5 119 L 174 388.5 L 176 390.5 L 173 388.5 L 173.5 119 Z " /><path fill="rgb(16,11,6)" stroke="rgb(16,11,6)" stroke-width="1" opacity="0.8823529411764706" d="M 338.5 119 L 339 388.5 L 336 390.5 L 338 388.5 L 338.5 119 Z " /><path fill="rgb(16,11,6)" stroke="rgb(16,11,6)" stroke-width="1" opacity="0.8823529411764706" d="M 114.5 151 L 115 216.5 L 114 216.5 L 114.5 151 Z " /><path fill="rgb(16,11,6)" stroke="rgb(16,11,6)" stroke-width="1" opacity="0.8823529411764706" d="M 397.5 151 L 398 214.5 L 397 214.5 L 397.5 151 Z " /><path fill="rgb(16,11,6)" stroke="rgb(16,11,6)" stroke-width="1" opacity="0.8823529411764706" d="M 67.5 168 L 68 187.5 L 67 187.5 L 67.5 168 Z " /><path fill="rgb(16,11,6)" stroke="rgb(16,11,6)" stroke-width="1" opacity="0.8823529411764706" d="M 444.5 174 L 445 185.5 L 444 185.5 L 444.5 174 Z " /><path fill="rgb(16,11,6)" stroke="rgb(16,11,6)" stroke-width="1" opacity="0.8823529411764706" d="M 217.5 195 L 216.5 197 L 217.5 195 Z " /><path fill="rgb(16,11,6)" stroke="rgb(16,11,6)" stroke-width="1" opacity="0.8823529411764706" d="M 294.5 195 L 295.5 197 L 294.5 195 Z " /><path fill="rgb(16,11,6)" stroke="rgb(16,11,6)" stroke-width="1" opacity="0.8823529411764706" d="M 209.5 201 L 208.5 203 L 209.5 201 Z " /><path fill="rgb(16,11,6)" stroke="rgb(16,11,6)" stroke-width="1" opacity="0.8823529411764706" d="M 302.5 201 L 303.5 203 L 302.5 201 Z " /><path fill="rgb(16,11,6)" stroke="rgb(16,11,6)" stroke-width="1" opacity="0.8823529411764706" d="M 202.5 208 L 201.5 210 L 202.5 208 Z " /><path fill="rgb(16,11,6)" stroke="rgb(16,11,6)" stroke-width="1" opacity="0.8823529411764706" d="M 309.5 208 L 311.5 211 L 309.5 208 Z " /><path fill="rgb(16,11,6)" stroke="rgb(16,11,6)" stroke-width="1" opacity="0.8823529411764706" d="M 410.5 222 L 411 227.5 L 410 227.5 L 410.5 222 Z " /><path fill="rgb(16,11,6)" stroke="rgb(16,11,6)" stroke-width="1" opacity="0.8823529411764706" d="M 101.5 223 L 102 228.5 L 101 228.5 L 101.5 223 Z " /><path fill="rgb(16,11,6)" stroke="rgb(16,11,6)" stroke-width="1" opacity="0.8823529411764706" d="M 235.5 231 L 231.5 236 L 235.5 231 Z " /><path fill="rgb(16,11,6)" stroke="rgb(16,11,6)" stroke-width="1" opacity="0.8823529411764706" d="M 276.5 231 L 280.5 236 L 276.5 231 Z " /><path fill="rgb(16,11,6)" stroke="rgb(16,11,6)" stroke-width="1" opacity="0.8823529411764706" d="M 254.5 237 L 258 237.5 L 254.5 238 L 254.5 237 Z " /><path fill="rgb(16,11,6)" stroke="rgb(16,11,6)" stroke-width="1" opacity="0.8823529411764706" d="M 115.5 245 L 116 250.5 L 115 250.5 L 115.5 245 Z " /><path fill="rgb(16,11,6)" stroke="rgb(16,11,6)" stroke-width="1" opacity="0.8823529411764706" d="M 396.5 245 L 397 250.5 L 396 250.5 L 396.5 245 Z " /><path fill="rgb(16,11,6)" stroke="rgb(16,11,6)" stroke-width="1" opacity="0.8823529411764706" d="M 443.5 246 L 444 250.5 L 443 250.5 L 443.5 246 Z " /><path fill="rgb(16,11,6)" stroke="rgb(16,11,6)" stroke-width="1" opacity="0.8823529411764706" d="M 68.5 247 L 69 251.5 L 68 251.5 L 68.5 247 Z " /><path fill="rgb(16,11,6)" stroke="rgb(16,11,6)" stroke-width="1" opacity="0.8823529411764706" d="M 184.5 247 L 185 249.5 L 184 249.5 L 184.5 247 Z " /><path fill="rgb(16,11,6)" stroke="rgb(16,11,6)" stroke-width="1" opacity="0.8823529411764706" d="M 197.5 251 L 198 253.5 L 197 253.5 L 197.5 251 Z " /><path fill="rgb(16,11,6)" stroke="rgb(16,11,6)" stroke-width="1" opacity="0.8823529411764706" d="M 314.5 251 L 315 253.5 L 314 253.5 L 314.5 251 Z " /><path fill="rgb(16,11,6)" stroke="rgb(16,11,6)" stroke-width="1" opacity="0.8823529411764706" d="M 102.5 253 L 103 255.5 L 102 255.5 L 102.5 253 Z " /><path fill="rgb(16,11,6)" stroke="rgb(16,11,6)" stroke-width="1" opacity="0.8823529411764706" d="M 409.5 253 L 410 255.5 L 409 255.5 L 409.5 253 Z " /><path fill="rgb(16,11,6)" stroke="rgb(16,11,6)" stroke-width="1" opacity="0.8823529411764706" d="M 395.5 265 L 396 268.5 L 395 268.5 L 395.5 265 Z " /><path fill="rgb(16,11,6)" stroke="rgb(16,11,6)" stroke-width="1" opacity="0.8823529411764706" d="M 116.5 266 L 117 268.5 L 116 268.5 L 116.5 266 Z " /><path fill="rgb(16,11,6)" stroke="rgb(16,11,6)" stroke-width="1" opacity="0.8823529411764706" d="M 241.5 268 L 244.5 272 L 241.5 268 Z " /><path fill="rgb(16,11,6)" stroke="rgb(16,11,6)" stroke-width="1" opacity="0.8823529411764706" d="M 270.5 268 L 267.5 272 L 270.5 268 Z " /><path fill="rgb(16,11,6)" stroke="rgb(16,11,6)" stroke-width="1" opacity="0.8823529411764706" d="M 408.5 270 L 409 272.5 L 408 272.5 L 408.5 270 Z " /><path fill="rgb(16,11,6)" stroke="rgb(16,11,6)" stroke-width="1" opacity="0.8823529411764706" d="M 117.5 279 L 118 281.5 L 117 281.5 L 117.5 279 Z " /><path fill="rgb(16,11,6)" stroke="rgb(16,11,6)" stroke-width="1" opacity="0.8823529411764706" d="M 253.5 288 L 259 288.5 L 253.5 289 L 253.5 288 Z " /><path fill="rgb(16,11,6)" stroke="rgb(16,11,6)" stroke-width="1" opacity="0.8823529411764706" d="M 207.5 289 L 208.5 291 L 207.5 289 Z " /><path fill="rgb(16,11,6)" stroke="rgb(16,11,6)" stroke-width="1" opacity="0.8823529411764706" d="M 304.5 289 L 303.5 291 L 304.5 289 Z " /><path fill="rgb(16,11,6)" stroke="rgb(16,11,6)" stroke-width="1" opacity="0.8823529411764706" d="M 210.5 293 L 212.5 296 L 210.5 293 Z " /><path fill="rgb(16,11,6)" stroke="rgb(16,11,6)" stroke-width="1" opacity="0.8823529411764706" d="M 301.5 293 L 299.5 296 L 301.5 293 Z " /><path fill="rgb(16,11,6)" stroke="rgb(16,11,6)" stroke-width="1" opacity="0.8823529411764706" d="M 216.5 299 L 218.5 302 L 216.5 299 Z " /><path fill="rgb(16,11,6)" stroke="rgb(16,11,6)" stroke-width="1" opacity="0.8823529411764706" d="M 295.5 299 L 293.5 302 L 295.5 299 Z " /><path fill="rgb(16,11,6)" stroke="rgb(16,11,6)" stroke-width="1" opacity="0.8823529411764706" d="M 202.5 304 L 207.5 310 L 202.5 304 Z " /><path fill="rgb(16,11,6)" stroke="rgb(16,11,6)" stroke-width="1" opacity="0.8823529411764706" d="M 309.5 304 L 303.5 311 L 309.5 304 Z " /><path fill="rgb(16,11,6)" stroke="rgb(16,11,6)" stroke-width="1" opacity="0.8823529411764706" d="M 212.5 313 L 213.5 315 L 212.5 313 Z " /><path fill="rgb(16,11,6)" stroke="rgb(16,11,6)" stroke-width="1" opacity="0.8823529411764706" d="M 299.5 313 L 298.5 315 L 299.5 313 Z " /><path fill="rgb(16,11,6)" stroke="rgb(16,11,6)" stroke-width="1" opacity="0.8823529411764706" d="M 144.5 362 L 145.5 364 L 144.5 362 Z " /><path fill="rgb(16,11,6)" stroke="rgb(16,11,6)" stroke-width="1" opacity="0.8823529411764706" d="M 367.5 362 L 366.5 364 L 367.5 362 Z " /><path fill="rgb(16,11,6)" stroke="rgb(16,11,6)" stroke-width="1" opacity="0.8823529411764706" d="M 135.5 372 L 136.5 374 L 135.5 372 Z " /><path fill="rgb(16,11,6)" stroke="rgb(16,11,6)" stroke-width="1" opacity="0.8823529411764706" d="M 376.5 372 L 375.5 374 L 376.5 372 Z " /><path fill="rgb(16,11,6)" stroke="rgb(16,11,6)" stroke-width="1" opacity="0.8823529411764706" d="M 103.5 386 L 104.5 388 L 103.5 386 Z " /><path fill="rgb(16,11,6)" stroke="rgb(16,11,6)" stroke-width="1" opacity="0.8823529411764706" d="M 149.5 386 L 151.5 389 L 149.5 386 Z " /><path fill="rgb(16,11,6)" stroke="rgb(16,11,6)" stroke-width="1" opacity="0.8823529411764706" d="M 362.5 386 L 360.5 389 L 362.5 386 Z " /><path fill="rgb(16,11,6)" stroke="rgb(16,11,6)" stroke-width="1" opacity="0.8823529411764706" d="M 408.5 386 L 407.5 388 L 408.5 386 Z " /><path fill="rgb(16,11,6)" stroke="rgb(16,11,6)" stroke-width="1" opacity="0.8823529411764706" d="M 107.5 391 L 108.5 393 L 107.5 391 Z " /><path fill="rgb(16,11,6)" stroke="rgb(16,11,6)" stroke-width="1" opacity="0.8823529411764706" d="M 404.5 391 L 403.5 393 L 404.5 391 Z " /><path fill="rgb(16,11,6)" stroke="rgb(16,11,6)" stroke-width="1" opacity="0.8823529411764706" d="M 156.5 392 L 157.5 394 L 156.5 392 Z " /><path fill="rgb(16,11,6)" stroke="rgb(16,11,6)" stroke-width="1" opacity="0.8823529411764706" d="M 355.5 392 L 354.5 394 L 355.5 392 Z " /><path fill="rgb(16,11,6)" stroke="rgb(16,11,6)" stroke-width="1" opacity="0.8823529411764706" d="M 113.5 398 L 124.5 410 L 113.5 398 Z " /><path fill="rgb(16,11,6)" stroke="rgb(16,11,6)" stroke-width="1" opacity="0.8823529411764706" d="M 398.5 398 L 387.5 410 L 398.5 398 Z " /><path fill="rgb(16,11,6)" stroke="rgb(16,11,6)" stroke-width="1" opacity="0.8823529411764706" d="M 131.5 415 L 132.5 417 L 131.5 415 Z " /><path fill="rgb(16,11,6)" stroke="rgb(16,11,6)" stroke-width="1" opacity="0.8823529411764706" d="M 380.5 415 L 379.5 417 L 380.5 415 Z " /><path fill="rgb(16,11,6)" stroke="rgb(16,11,6)" stroke-width="1" opacity="0.8823529411764706" d="M 137.5 420 L 138.5 422 L 137.5 420 Z " /><path fill="rgb(16,11,6)" stroke="rgb(16,11,6)" stroke-width="1" opacity="0.8823529411764706" d="M 374.5 420 L 373.5 422 L 374.5 420 Z " /><path fill="rgb(16,11,6)" stroke="rgb(16,11,6)" stroke-width="1" opacity="0.8823529411764706" d="M 141.5 423 L 142.5 425 L 141.5 423 Z " /><path fill="rgb(16,11,6)" stroke="rgb(16,11,6)" stroke-width="1" opacity="0.8823529411764706" d="M 370.5 423 L 369.5 425 L 370.5 423 Z " /><path fill="rgb(16,11,6)" stroke="rgb(16,11,6)" stroke-width="1" opacity="0.8823529411764706" d="M 145.5 426 L 146.5 428 L 145.5 426 Z " /><path fill="rgb(16,11,6)" stroke="rgb(16,11,6)" stroke-width="1" opacity="0.8823529411764706" d="M 366.5 426 L 365.5 428 L 366.5 426 Z " /><path fill="rgb(0,0,0)" stroke="rgb(0,0,0)" stroke-width="1" opacity="0.996078431372549" d="M 254.5 8 L 258 8.5 L 254.5 9 L 254.5 8 Z " /><path fill="rgb(0,0,0)" stroke="rgb(0,0,0)" stroke-width="1" opacity="0.996078431372549" d="M 251.5 9 L 253 9.5 L 250.5 11 L 251.5 9 Z " /><path fill="rgb(0,0,0)" stroke="rgb(0,0,0)" stroke-width="1" opacity="0.996078431372549" d="M 259.5 9 L 264 11.5 L 262.5 11 Q 258.8 10.7 259.5 9 Z " /><path fill="rgb(0,0,0)" stroke="rgb(0,0,0)" stroke-width="1" opacity="0.996078431372549" d="M 240.5 15 L 239.5 17 L 235.5 19 L 236.5 17 L 240.5 15 Z " /><path fill="rgb(0,0,0)" stroke="rgb(0,0,0)" stroke-width="1" opacity="0.996078431372549" d="M 271.5 15 L 281 20.5 L 279.5 20 L 272.5 17 L 271.5 15 Z " /><path fill="rgb(0,0,0)" stroke="rgb(0,0,0)" stroke-width="1" opacity="0.996078431372549" d="M 225.5 23 L 224.5 25 L 218.5 28 L 219.5 26 L 225.5 23 Z " /><path fill="rgb(0,0,0)" stroke="rgb(0,0,0)" stroke-width="1" opacity="0.996078431372549" d="M 288.5 24 L 296 28.5 L 294.5 28 Q 288.9 27.2 288.5 24 Z " /><path fill="rgb(0,0,0)" stroke="rgb(0,0,0)" stroke-width="1" opacity="0.996078431372549" d="M 208.5 32 L 207.5 34 L 201.5 37 L 202.5 35 L 208.5 32 Z " /><path fill="rgb(0,0,0)" stroke="rgb(0,0,0)" stroke-width="1" opacity="0.996078431372549" d="M 305.5 33 L 313 37.5 L 311.5 37 Q 305.9 36.2 305.5 33 Z " /><path fill="rgb(0,0,0)" stroke="rgb(0,0,0)" stroke-width="1" opacity="0.996078431372549" d="M 191.5 41 L 190.5 43 L 184.5 46 L 185.5 44 L 191.5 41 Z " /><path fill="rgb(0,0,0)" stroke="rgb(0,0,0)" stroke-width="1" opacity="0.996078431372549" d="M 322.5 42 L 330 46.5 L 328.5 46 Q 322.9 45.2 322.5 42 Z " /><path fill="rgb(0,0,0)" stroke="rgb(0,0,0)" stroke-width="1" opacity="0.996078431372549" d="M 174.5 50 L 173.5 52 L 167.5 55 L 168.5 53 L 174.5 50 Z " /><path fill="rgb(0,0,0)" stroke="rgb(0,0,0)" stroke-width="1" opacity="0.996078431372549" d="M 337.5 50 L 347 55.5 L 345.5 55 L 338.5 52 L 337.5 50 Z " /><path fill="rgb(0,0,0)" stroke="rgb(0,0,0)" stroke-width="1" opacity="0.996078431372549" d="M 157.5 59 L 156.5 61 L 152.5 63 L 153.5 61 L 157.5 59 Z " /><path fill="rgb(0,0,0)" stroke="rgb(0,0,0)" stroke-width="1" opacity="0.996078431372549" d="M 354.5 59 L 362 63.5 L 360.5 63 Q 354.9 62.2 354.5 59 Z " /><path fill="rgb(0,0,0)" stroke="rgb(0,0,0)" stroke-width="1" opacity="0.996078431372549" d="M 142.5 67 L 141.5 69 L 135.5 72 L 136.5 70 L 142.5 67 Z " /><path fill="rgb(0,0,0)" stroke="rgb(0,0,0)" stroke-width="1" opacity="0.996078431372549" d="M 371.5 68 L 379 72.5 L 377.5 72 Q 371.9 71.2 371.5 68 Z " /><path fill="rgb(0,0,0)" stroke="rgb(0,0,0)" stroke-width="1" opacity="0.996078431372549" d="M 125.5 76 L 124.5 78 L 118.5 81 L 119.5 79 L 125.5 76 Z " /><path fill="rgb(0,0,0)" stroke="rgb(0,0,0)" stroke-width="1" opacity="0.996078431372549" d="M 388.5 77 L 396 81.5 L 394.5 81 Q 388.9 80.2 388.5 77 Z " /><path fill="rgb(0,0,0)" stroke="rgb(0,0,0)" stroke-width="1" opacity="0.996078431372549" d="M 262 79 L 264 79.5 L 263 80.5 L 262.5 185 L 262 79 Z " /><path fill="rgb(0,0,0)" stroke="rgb(0,0,0)" stroke-width="1" opacity="0.996078431372549" d="M 108.5 85 L 107.5 87 L 101.5 90 L 102.5 88 L 108.5 85 Z " /><path fill="rgb(0,0,0)" stroke="rgb(0,0,0)" stroke-width="1" opacity="0.996078431372549" d="M 403.5 85 L 413 90.5 L 411.5 90 L 404.5 87 L 403.5 85 Z " /><path fill="rgb(0,0,0)" stroke="rgb(0,0,0)" stroke-width="1" opacity="0.996078431372549" d="M 91.5 94 L 90.5 96 L 86.5 98 L 87.5 96 L 91.5 94 Z " /><path fill="rgb(0,0,0)" stroke="rgb(0,0,0)" stroke-width="1" opacity="0.996078431372549" d="M 420.5 94 L 430 99.5 L 428.5 99 L 421.5 96 L 420.5 94 Z " /><path fill="rgb(0,0,0)" stroke="rgb(0,0,0)" stroke-width="1" opacity="0.996078431372549" d="M 76.5 102 L 75.5 104 L 69.5 107 L 70.5 105 L 76.5 102 Z " /><path fill="rgb(0,0,0)" stroke="rgb(0,0,0)" stroke-width="1" opacity="0.996078431372549" d="M 437.5 103 L 445 107.5 L 443.5 107 Q 437.9 106.2 437.5 103 Z " /><path fill="rgb(0,0,0)" stroke="rgb(0,0,0)" stroke-width="1" opacity="0.996078431372549" d="M 59.5 111 L 58.5 113 L 55.5 115 L 57.5 112 L 59.5 111 Z " /><path fill="rgb(0,0,0)" stroke="rgb(0,0,0)" stroke-width="1" opacity="0.996078431372549" d="M 452.5 111 L 457 114.5 L 454.5 113 L 452.5 111 Z " /><path fill="rgb(0,0,0)" stroke="rgb(0,0,0)" stroke-width="1" opacity="0.996078431372549" d="M 54.5 116 L 55 151.5 L 54 151.5 L 54.5 116 Z " /><path fill="rgb(0,0,0)" stroke="rgb(0,0,0)" stroke-width="1" opacity="0.996078431372549" d="M 457.5 116 L 458 152.5 L 457 152.5 L 457.5 116 Z " /><path fill="rgb(0,0,0)" stroke="rgb(0,0,0)" stroke-width="1" opacity="0.996078431372549" d="M 67.5 153 L 68 167.5 L 67 167.5 L 67.5 153 Z " /><path fill="rgb(0,0,0)" stroke="rgb(0,0,0)" stroke-width="1" opacity="0.996078431372549" d="M 444.5 157 L 445 173.5 L 444 173.5 L 444.5 157 Z " /><path fill="rgb(0,0,0)" stroke="rgb(0,0,0)" stroke-width="1" opacity="0.996078431372549" d="M 444.5 186 L 445 191.5 L 444 191.5 L 444.5 186 Z " /><path fill="rgb(0,0,0)" stroke="rgb(0,0,0)" stroke-width="1" opacity="0.996078431372549" d="M 67.5 188 L 68 194.5 L 67 194.5 L 67.5 188 Z " /><path fill="rgb(0,0,0)" stroke="rgb(0,0,0)" stroke-width="1" opacity="0.996078431372549" d="M 457.5 194 L 458 236.5 L 457 236.5 L 457.5 194 Z " /><path fill="rgb(0,0,0)" stroke="rgb(0,0,0)" stroke-width="1" opacity="0.996078431372549" d="M 54.5 195 L 55 237.5 L 54 237.5 L 54.5 195 Z " /><path fill="rgb(0,0,0)" stroke="rgb(0,0,0)" stroke-width="1" opacity="0.996078431372549" d="M 207.5 203 L 203.5 208 L 207.5 203 Z " /><path fill="rgb(0,0,0)" stroke="rgb(0,0,0)" stroke-width="1" opacity="0.996078431372549" d="M 304.5 203 L 308.5 208 L 304.5 203 Z " /><path fill="rgb(0,0,0)" stroke="rgb(0,0,0)" stroke-width="1" opacity="0.996078431372549" d="M 397.5 215 L 398 218.5 L 397 218.5 L 397.5 215 Z " /><path fill="rgb(0,0,0)" stroke="rgb(0,0,0)" stroke-width="1" opacity="0.996078431372549" d="M 114.5 217 L 115 219.5 L 114 219.5 L 114.5 217 Z " /><path fill="rgb(0,0,0)" stroke="rgb(0,0,0)" stroke-width="1" opacity="0.996078431372549" d="M 410.5 219 L 411 221.5 L 410 221.5 L 410.5 219 Z " /><path fill="rgb(0,0,0)" stroke="rgb(0,0,0)" stroke-width="1" opacity="0.996078431372549" d="M 456.5 252 L 457 262.5 L 456 262.5 L 456.5 252 Z " /><path fill="rgb(0,0,0)" stroke="rgb(0,0,0)" stroke-width="1" opacity="0.996078431372549" d="M 55.5 253 L 56 262.5 L 55 262.5 L 55.5 253 Z " /><path fill="rgb(0,0,0)" stroke="rgb(0,0,0)" stroke-width="1" opacity="0.996078431372549" d="M 56.5 271 L 57 278.5 L 56 278.5 L 56.5 271 Z " /><path fill="rgb(0,0,0)" stroke="rgb(0,0,0)" stroke-width="1" opacity="0.996078431372549" d="M 455.5 271 L 456 278.5 L 455 278.5 L 455.5 271 Z " /><path fill="rgb(0,0,0)" stroke="rgb(0,0,0)" stroke-width="1" opacity="0.996078431372549" d="M 57.5 284 L 58 289.5 L 57 289.5 L 57.5 284 Z " /><path fill="rgb(0,0,0)" stroke="rgb(0,0,0)" stroke-width="1" opacity="0.996078431372549" d="M 454.5 284 L 455 289.5 L 454 289.5 L 454.5 284 Z " /><path fill="rgb(0,0,0)" stroke="rgb(0,0,0)" stroke-width="1" opacity="0.996078431372549" d="M 58.5 295 L 59 298.5 L 58 298.5 L 58.5 295 Z " /><path fill="rgb(0,0,0)" stroke="rgb(0,0,0)" stroke-width="1" opacity="0.996078431372549" d="M 453.5 295 L 454 298.5 L 453 298.5 L 453.5 295 Z " /><path fill="rgb(0,0,0)" stroke="rgb(0,0,0)" stroke-width="1" opacity="0.996078431372549" d="M 199.5 300 L 200.5 302 L 199.5 300 Z " /><path fill="rgb(0,0,0)" stroke="rgb(0,0,0)" stroke-width="1" opacity="0.996078431372549" d="M 312.5 300 L 311.5 302 L 312.5 300 Z " /><path fill="rgb(0,0,0)" stroke="rgb(0,0,0)" stroke-width="1" opacity="0.996078431372549" d="M 452.5 302 L 453 306.5 L 452 306.5 L 452.5 302 Z " /><path fill="rgb(0,0,0)" stroke="rgb(0,0,0)" stroke-width="1" opacity="0.996078431372549" d="M 59.5 303 L 60 306.5 L 59 306.5 L 59.5 303 Z " /><path fill="rgb(0,0,0)" stroke="rgb(0,0,0)" stroke-width="1" opacity="0.996078431372549" d="M 60.5 310 L 61 312.5 L 60 312.5 L 60.5 310 Z " /><path fill="rgb(0,0,0)" stroke="rgb(0,0,0)" stroke-width="1" opacity="0.996078431372549" d="M 451.5 310 L 452 312.5 L 451 312.5 L 451.5 310 Z " /><path fill="rgb(0,0,0)" stroke="rgb(0,0,0)" stroke-width="1" opacity="0.996078431372549" d="M 61.5 316 L 62 318.5 L 61 318.5 L 61.5 316 Z " /><path fill="rgb(0,0,0)" stroke="rgb(0,0,0)" stroke-width="1" opacity="0.996078431372549" d="M 450.5 316 L 451 318.5 L 450 318.5 L 450.5 316 Z " /><path fill="rgb(0,0,0)" stroke="rgb(0,0,0)" stroke-width="1" opacity="0.996078431372549" d="M 62.5 321 L 63 323.5 L 62 323.5 L 62.5 321 Z " /><path fill="rgb(0,0,0)" stroke="rgb(0,0,0)" stroke-width="1" opacity="0.996078431372549" d="M 449.5 321 L 450 323.5 L 449 323.5 L 449.5 321 Z " /><path fill="rgb(0,0,0)" stroke="rgb(0,0,0)" stroke-width="1" opacity="0.996078431372549" d="M 63.5 326 L 64 328.5 L 63 328.5 L 63.5 326 Z " /><path fill="rgb(0,0,0)" stroke="rgb(0,0,0)" stroke-width="1" opacity="0.996078431372549" d="M 448.5 326 L 449 328.5 L 448 328.5 L 448.5 326 Z " /><path fill="rgb(0,0,0)" stroke="rgb(0,0,0)" stroke-width="1" opacity="0.996078431372549" d="M 262.5 328 L 263 433.5 L 262 433.5 L 262.5 328 Z " /><path fill="rgb(0,0,0)" stroke="rgb(0,0,0)" stroke-width="1" opacity="0.996078431372549" d="M 65.5 334 L 66 336.5 L 65 336.5 L 65.5 334 Z " /><path fill="rgb(0,0,0)" stroke="rgb(0,0,0)" stroke-width="1" opacity="0.996078431372549" d="M 446.5 334 L 447 336.5 L 446 336.5 L 446.5 334 Z " /><path fill="rgb(0,0,0)" stroke="rgb(0,0,0)" stroke-width="1" opacity="0.996078431372549" d="M 66.5 338 L 67 340.5 L 66 340.5 L 66.5 338 Z " /><path fill="rgb(0,0,0)" stroke="rgb(0,0,0)" stroke-width="1" opacity="0.996078431372549" d="M 142.5 360 L 143.5 362 L 142.5 360 Z " /><path fill="rgb(0,0,0)" stroke="rgb(0,0,0)" stroke-width="1" opacity="0.996078431372549" d="M 369.5 360 L 368.5 362 L 369.5 360 Z " /><path fill="rgb(0,0,0)" stroke="rgb(0,0,0)" stroke-width="1" opacity="0.996078431372549" d="M 76.5 366 L 82 376.5 L 80 375.5 L 76 367.5 L 76.5 366 Z " /><path fill="rgb(0,0,0)" stroke="rgb(0,0,0)" stroke-width="1" opacity="0.996078431372549" d="M 435.5 366 L 436 367.5 L 430.5 377 L 431 375.5 L 435.5 366 Z " /><path fill="rgb(0,0,0)" stroke="rgb(0,0,0)" stroke-width="1" opacity="0.996078431372549" d="M 148.5 367 L 155.5 375 L 148.5 367 Z " /><path fill="rgb(0,0,0)" stroke="rgb(0,0,0)" stroke-width="1" opacity="0.996078431372549" d="M 362.5 368 L 356.5 375 L 362.5 368 Z " /><path fill="rgb(0,0,0)" stroke="rgb(0,0,0)" stroke-width="1" opacity="0.996078431372549" d="M 137.5 374 L 138.5 376 L 137.5 374 Z " /><path fill="rgb(0,0,0)" stroke="rgb(0,0,0)" stroke-width="1" opacity="0.996078431372549" d="M 374.5 374 L 373.5 376 L 374.5 374 Z " /><path fill="rgb(0,0,0)" stroke="rgb(0,0,0)" stroke-width="1" opacity="0.996078431372549" d="M 83.5 380 L 86 383.5 L 84 382.5 L 83.5 380 Z " /><path fill="rgb(0,0,0)" stroke="rgb(0,0,0)" stroke-width="1" opacity="0.996078431372549" d="M 428.5 380 L 428 381.5 L 426.5 384 L 427 382.5 L 428.5 380 Z " /><path fill="rgb(0,0,0)" stroke="rgb(0,0,0)" stroke-width="1" opacity="0.996078431372549" d="M 147.5 384 L 148.5 386 L 147.5 384 Z " /><path fill="rgb(0,0,0)" stroke="rgb(0,0,0)" stroke-width="1" opacity="0.996078431372549" d="M 364.5 384 L 363.5 386 L 364.5 384 Z " /><path fill="rgb(0,0,0)" stroke="rgb(0,0,0)" stroke-width="1" opacity="0.996078431372549" d="M 86.5 385 L 87.5 387 L 86.5 385 Z " /><path fill="rgb(0,0,0)" stroke="rgb(0,0,0)" stroke-width="1" opacity="0.996078431372549" d="M 425.5 385 L 424.5 387 L 425.5 385 Z " /><path fill="rgb(0,0,0)" stroke="rgb(0,0,0)" stroke-width="1" opacity="0.996078431372549" d="M 88.5 388 L 89.5 390 L 88.5 388 Z " /><path fill="rgb(0,0,0)" stroke="rgb(0,0,0)" stroke-width="1" opacity="0.996078431372549" d="M 423.5 388 L 422.5 390 L 423.5 388 Z " /><path fill="rgb(0,0,0)" stroke="rgb(0,0,0)" stroke-width="1" opacity="0.996078431372549" d="M 90.5 391 L 92.5 394 L 90.5 391 Z " /><path fill="rgb(0,0,0)" stroke="rgb(0,0,0)" stroke-width="1" opacity="0.996078431372549" d="M 421.5 391 L 419.5 394 L 421.5 391 Z " /><path fill="rgb(0,0,0)" stroke="rgb(0,0,0)" stroke-width="1" opacity="0.996078431372549" d="M 93.5 395 L 95.5 398 L 93.5 395 Z " /><path fill="rgb(0,0,0)" stroke="rgb(0,0,0)" stroke-width="1" opacity="0.996078431372549" d="M 418.5 395 L 416.5 398 L 418.5 395 Z " /><path fill="rgb(0,0,0)" stroke="rgb(0,0,0)" stroke-width="1" opacity="0.996078431372549" d="M 111.5 396 L 112.5 398 L 111.5 396 Z " /><path fill="rgb(0,0,0)" stroke="rgb(0,0,0)" stroke-width="1" opacity="0.996078431372549" d="M 400.5 396 L 399.5 398 L 400.5 396 Z " /><path fill="rgb(0,0,0)" stroke="rgb(0,0,0)" stroke-width="1" opacity="0.996078431372549" d="M 96.5 399 L 101.5 405 L 96.5 399 Z " /><path fill="rgb(0,0,0)" stroke="rgb(0,0,0)" stroke-width="1" opacity="0.996078431372549" d="M 415.5 399 L 410.5 405 L 415.5 399 Z " /><path fill="rgb(0,0,0)" stroke="rgb(0,0,0)" stroke-width="1" opacity="0.996078431372549" d="M 102.5 406 L 117.5 422 L 102.5 406 Z " /><path fill="rgb(0,0,0)" stroke="rgb(0,0,0)" stroke-width="1" opacity="0.996078431372549" d="M 409.5 406 L 395.5 421 L 409.5 406 Z " /><path fill="rgb(0,0,0)" stroke="rgb(0,0,0)" stroke-width="1" opacity="0.996078431372549" d="M 125.5 410 L 127.5 413 L 125.5 410 Z " /><path fill="rgb(0,0,0)" stroke="rgb(0,0,0)" stroke-width="1" opacity="0.996078431372549" d="M 386.5 410 L 385.5 412 L 386.5 410 Z " /><path fill="rgb(0,0,0)" stroke="rgb(0,0,0)" stroke-width="1" opacity="0.996078431372549" d="M 393.5 421 L 387.5 428 L 393.5 421 Z " /><path fill="rgb(0,0,0)" stroke="rgb(0,0,0)" stroke-width="1" opacity="0.996078431372549" d="M 119.5 422 L 124.5 428 L 119.5 422 Z " /><path fill="rgb(0,0,0)" stroke="rgb(0,0,0)" stroke-width="1" opacity="0.996078431372549" d="M 126.5 428 L 129.5 432 L 126.5 428 Z " /><path fill="rgb(0,0,0)" stroke="rgb(0,0,0)" stroke-width="1" opacity="0.996078431372549" d="M 385.5 428 L 382.5 432 L 385.5 428 Z " /><path fill="rgb(0,0,0)" stroke="rgb(0,0,0)" stroke-width="1" opacity="0.996078431372549" d="M 131.5 432 L 133.5 435 L 131.5 432 Z " /><path fill="rgb(0,0,0)" stroke="rgb(0,0,0)" stroke-width="1" opacity="0.996078431372549" d="M 380.5 432 L 378.5 435 L 380.5 432 Z " /><path fill="rgb(0,0,0)" stroke="rgb(0,0,0)" stroke-width="1" opacity="0.996078431372549" d="M 135.5 435 L 137.5 438 L 135.5 435 Z " /><path fill="rgb(0,0,0)" stroke="rgb(0,0,0)" stroke-width="1" opacity="0.996078431372549" d="M 376.5 435 L 374.5 438 L 376.5 435 Z " /><path fill="rgb(0,0,0)" stroke="rgb(0,0,0)" stroke-width="1" opacity="0.996078431372549" d="M 139.5 438 L 145 442.5 L 142.5 441 L 139.5 438 Z " /><path fill="rgb(0,0,0)" stroke="rgb(0,0,0)" stroke-width="1" opacity="0.996078431372549" d="M 372.5 438 L 370.5 441 L 367.5 443 L 369.5 440 L 372.5 438 Z " /><path fill="rgb(0,0,0)" stroke="rgb(0,0,0)" stroke-width="1" opacity="0.996078431372549" d="M 146.5 443 L 147.5 445 L 146.5 443 Z " /><path fill="rgb(0,0,0)" stroke="rgb(0,0,0)" stroke-width="1" opacity="0.996078431372549" d="M 365.5 443 L 364.5 445 L 365.5 443 Z " /><path fill="rgb(0,0,0)" stroke="rgb(0,0,0)" stroke-width="1" opacity="0.996078431372549" d="M 149.5 445 L 150.5 447 L 149.5 445 Z " /><path fill="rgb(0,0,0)" stroke="rgb(0,0,0)" stroke-width="1" opacity="0.996078431372549" d="M 362.5 445 L 360.5 448 L 358.5 449 L 359.5 447 L 362.5 445 Z " /><path fill="rgb(0,0,0)" stroke="rgb(0,0,0)" stroke-width="1" opacity="0.996078431372549" d="M 152.5 447 L 153.5 449 L 152.5 447 Z " /><path fill="rgb(0,0,0)" stroke="rgb(0,0,0)" stroke-width="1" opacity="0.996078431372549" d="M 155.5 449 L 156.5 451 L 155.5 449 Z " /><path fill="rgb(0,0,0)" stroke="rgb(0,0,0)" stroke-width="1" opacity="0.996078431372549" d="M 356.5 449 L 355.5 451 L 356.5 449 Z " /><path fill="rgb(0,0,0)" stroke="rgb(0,0,0)" stroke-width="1" opacity="0.996078431372549" d="M 158.5 451 L 159.5 453 L 158.5 451 Z " /><path fill="rgb(0,0,0)" stroke="rgb(0,0,0)" stroke-width="1" opacity="0.996078431372549" d="M 353.5 451 L 352.5 453 L 353.5 451 Z " /><path fill="rgb(0,0,0)" stroke="rgb(0,0,0)" stroke-width="1" opacity="0.996078431372549" d="M 161.5 453 L 165 455.5 L 163.5 455 L 161.5 453 Z " /><path fill="rgb(0,0,0)" stroke="rgb(0,0,0)" stroke-width="1" opacity="0.996078431372549" d="M 350.5 453 L 349.5 455 L 347.5 456 L 348.5 454 L 350.5 453 Z " /><path fill="rgb(0,0,0)" stroke="rgb(0,0,0)" stroke-width="1" opacity="0.996078431372549" d="M 166.5 456 L 170 458.5 L 168.5 458 L 166.5 456 Z " /><path fill="rgb(0,0,0)" stroke="rgb(0,0,0)" stroke-width="1" opacity="0.996078431372549" d="M 345.5 456 L 344.5 458 L 342.5 459 L 343.5 457 L 345.5 456 Z " /><path fill="rgb(0,0,0)" stroke="rgb(0,0,0)" stroke-width="1" opacity="0.996078431372549" d="M 171.5 459 L 175 461.5 L 173.5 461 L 171.5 459 Z " /><path fill="rgb(0,0,0)" stroke="rgb(0,0,0)" stroke-width="1" opacity="0.996078431372549" d="M 340.5 459 L 339.5 461 L 340.5 459 Z " /><path fill="rgb(0,0,0)" stroke="rgb(0,0,0)" stroke-width="1" opacity="0.996078431372549" d="M 176.5 462 L 180 464.5 L 178.5 464 L 176.5 462 Z " /><path fill="rgb(0,0,0)" stroke="rgb(0,0,0)" stroke-width="1" opacity="0.996078431372549" d="M 335.5 462 L 334.5 464 L 332.5 465 L 333.5 463 L 335.5 462 Z " /><path fill="rgb(0,0,0)" stroke="rgb(0,0,0)" stroke-width="1" opacity="0.996078431372549" d="M 330.5 465 L 329.5 467 L 325.5 469 L 326.5 467 L 330.5 465 Z " /><path fill="rgb(0,0,0)" stroke="rgb(0,0,0)" stroke-width="1" opacity="0.996078431372549" d="M 183.5 466 L 187 468.5 L 185.5 468 L 183.5 466 Z " /><path fill="rgb(0,0,0)" stroke="rgb(0,0,0)" stroke-width="1" opacity="0.996078431372549" d="M 190.5 470 L 196 473.5 L 194.5 473 Q 190.5 472.5 190.5 470 Z " /><path fill="rgb(0,0,0)" stroke="rgb(0,0,0)" stroke-width="1" opacity="0.996078431372549" d="M 321.5 470 L 320.5 472 L 316.5 474 L 317.5 472 L 321.5 470 Z " /><path fill="rgb(0,0,0)" stroke="rgb(0,0,0)" stroke-width="1" opacity="0.996078431372549" d="M 312.5 475 L 311.5 477 L 305.5 480 L 306.5 478 L 312.5 475 Z " /><path fill="rgb(0,0,0)" stroke="rgb(0,0,0)" stroke-width="1" opacity="0.996078431372549" d="M 201.5 476 L 209 480.5 L 207.5 480 Q 201.9 479.2 201.5 476 Z " /><path fill="rgb(0,0,0)" stroke="rgb(0,0,0)" stroke-width="1" opacity="0.996078431372549" d="M 218.5 485 L 253.5 503 L 258.5 503 L 293.5 485 L 292.5 487 L 258.5 504 L 253.5 504 L 219.5 487 L 218.5 485 Z " /><path fill="rgb(0,0,0)" stroke="rgb(0,0,0)" stroke-width="1" opacity="0" d="M 0 0 L 512 0 L 512 512 L 0 512 L 0 0 Z M 255 8 L 58 112 L 54 117 L 54 238 L 55 239 L 56 279 L 57 280 L 59 307 L 66 341 L 76 368 Q 87 389 102 407 Q 128 435 163 455 Q 206 481 254 504 L 259 504 L 330 467 Q 366 447 396 421 Q 425 395 441 356 L 449 329 L 453 307 L 455 280 L 456 279 L 457 238 L 458 237 L 458 117 L 457 115 L 444 106 L 263 10 L 255 8 Z " /><path fill="rgb(0,0,0)" stroke="rgb(0,0,0)" stroke-width="1" opacity="1" d="M 253.5 9 L 258.5 9 L 270.5 15 L 451.5 111 L 457 115.5 L 458 193.5 L 457 194.5 L 457 251.5 L 456 252.5 L 455 283.5 L 454 284.5 L 454 294.5 L 453 295.5 L 451 315.5 L 445 341.5 Q 438.1 365.6 426 384.5 Q 412.5 405 394.5 421 Q 368.9 443.4 338.5 461 Q 300 483.5 258.5 503 L 253.5 503 Q 204.8 480.2 160.5 453 Q 127.4 433.1 102 405.5 Q 84.8 386.7 74 361.5 L 67 341.5 L 61 315.5 L 59 295.5 L 58 294.5 L 57 271.5 L 56 270.5 L 56 253.5 L 55 252.5 L 54 152.5 L 55 151.5 L 55 115.5 L 57.5 113 L 253.5 9 Z M 256 22 L 70 121 L 68 123 L 68 153 L 67 154 L 68 253 L 69 254 L 70 284 L 71 285 L 71 294 L 72 295 L 74 315 L 80 341 L 88 362 Q 97 381 111 397 Q 136 423 169 443 Q 210 468 256 490 Q 302 469 344 443 Q 366 429 386 412 Q 403 397 416 377 Q 426 360 432 341 L 438 315 L 440 295 L 441 294 L 441 285 L 442 284 L 443 253 L 444 252 L 444 193 L 445 192 L 444 123 L 440 119 L 256 22 Z " /><path fill="rgb(0,0,0)" stroke="rgb(0,0,0)" stroke-width="1" opacity="1" d="M 253.5 62 L 258.5 62 L 264.5 65 L 398.5 136 L 410 143.5 L 411 147.5 L 411 218.5 L 410 219.5 L 410 251.5 L 409 252.5 L 408 281.5 L 407 282.5 L 407 291.5 L 406 292.5 L 405 305.5 L 401 324.5 Q 390.9 361.9 365.5 384 Q 347.1 400.6 325.5 414 L 287.5 436 L 257.5 451 L 254.5 451 Q 218.8 434.3 186.5 414 Q 160.1 397.9 139 376.5 Q 125.3 362.2 117 342.5 L 111 324.5 L 106 299.5 L 105 282.5 L 104 281.5 L 104 270.5 L 103 269.5 L 103 252.5 L 102 251.5 L 101 146.5 L 104.5 141 L 253.5 62 Z M 249 79 L 175 119 L 173 120 L 173 389 L 195 404 L 249 434 L 249 328 Q 225 325 211 312 Q 198 302 191 288 L 186 274 L 185 263 L 184 262 L 184 251 L 187 236 Q 191 222 199 213 Q 216 190 249 185 L 249 79 Z M 262 79 L 262 185 Q 286 187 301 200 Q 313 209 320 224 L 325 236 L 328 252 Q 328 285 311 303 Q 295 322 266 328 L 262 329 L 262 434 Q 302 416 337 391 L 339 389 L 339 119 L 262 79 Z M 159 127 L 114 150 L 115 252 L 116 253 L 116 270 L 117 271 L 117 282 L 118 283 L 118 292 L 120 300 L 120 306 L 124 324 L 130 341 Q 137 356 148 368 L 157 375 L 160 378 L 160 128 L 159 127 Z M 352 127 L 353 378 L 357 375 Q 370 363 379 347 L 388 324 L 392 306 L 393 293 L 394 292 L 394 283 L 395 282 L 395 271 L 396 270 L 396 253 L 397 252 L 398 150 L 352 127 Z M 247 198 Q 231 201 221 209 Q 202 223 197 251 Q 196 279 210 294 Q 223 310 248 315 L 265 315 L 274 313 L 293 303 L 307 287 L 313 273 L 315 262 L 315 252 L 313 241 L 303 221 Q 294 208 280 202 L 266 198 L 247 198 Z " /><path fill="rgb(0,0,0)" stroke="rgb(0,0,0)" stroke-width="1" opacity="1" d="M 253.5 224 L 258.5 224 L 269.5 227 L 282 237.5 Q 289 245.5 288 261.5 Q 285.1 275.1 275.5 282 L 262.5 288 L 249.5 288 Q 237.5 285 231 276.5 L 225 265.5 L 224 251.5 Q 227.1 237.1 237.5 230 L 242.5 227 L 253.5 224 Z M 254 237 L 246 240 Q 239 244 237 253 Q 236 263 240 268 Q 244 273 251 275 Q 262 277 268 272 Q 273 268 275 261 Q 276 250 272 246 Q 267 237 254 237 Z " /><path fill="rgb(106,72,47)" stroke="rgb(106,72,47)" stroke-width="1" opacity="0.807843137254902" d="M 211.5 199 L 210.5 201 L 211.5 199 Z " /><path fill="rgb(106,72,47)" stroke="rgb(106,72,47)" stroke-width="1" opacity="0.807843137254902" d="M 300.5 199 L 301.5 201 L 300.5 199 Z " /><path fill="rgb(106,72,47)" stroke="rgb(106,72,47)" stroke-width="1" opacity="0.807843137254902" d="M 200.5 210 L 199.5 212 L 200.5 210 Z " /><path fill="rgb(106,72,47)" stroke="rgb(106,72,47)" stroke-width="1" opacity="0.807843137254902" d="M 218.5 211 L 217.5 213 L 218.5 211 Z " /><path fill="rgb(106,72,47)" stroke="rgb(106,72,47)" stroke-width="1" opacity="0.807843137254902" d="M 293.5 211 L 294.5 213 L 293.5 211 Z " /><path fill="rgb(106,72,47)" stroke="rgb(106,72,47)" stroke-width="1" opacity="0.807843137254902" d="M 212.5 217 L 211.5 219 L 212.5 217 Z " /><path fill="rgb(106,72,47)" stroke="rgb(106,72,47)" stroke-width="1" opacity="0.807843137254902" d="M 299.5 217 L 300.5 219 L 299.5 217 Z " /><path fill="rgb(106,72,47)" stroke="rgb(106,72,47)" stroke-width="1" opacity="0.807843137254902" d="M 410.5 228 L 411 232.5 L 410 232.5 L 410.5 228 Z " /><path fill="rgb(106,72,47)" stroke="rgb(106,72,47)" stroke-width="1" opacity="0.807843137254902" d="M 101.5 229 L 102 233.5 L 101 233.5 L 101.5 229 Z " /><path fill="rgb(106,72,47)" stroke="rgb(106,72,47)" stroke-width="1" opacity="0.807843137254902" d="M 396.5 238 L 397 244.5 L 396 244.5 L 396.5 238 Z " /><path fill="rgb(106,72,47)" stroke="rgb(106,72,47)" stroke-width="1" opacity="0.807843137254902" d="M 115.5 239 L 116 244.5 L 115 244.5 L 115.5 239 Z " /><path fill="rgb(106,72,47)" stroke="rgb(106,72,47)" stroke-width="1" opacity="0.807843137254902" d="M 243.5 242 L 241.5 245 L 243.5 242 Z " /><path fill="rgb(106,72,47)" stroke="rgb(106,72,47)" stroke-width="1" opacity="0.807843137254902" d="M 268.5 242 L 270.5 245 L 268.5 242 Z " /><path fill="rgb(106,72,47)" stroke="rgb(106,72,47)" stroke-width="1" opacity="0.807843137254902" d="M 443.5 242 L 444 245.5 L 443 245.5 L 443.5 242 Z " /><path fill="rgb(106,72,47)" stroke="rgb(106,72,47)" stroke-width="1" opacity="0.807843137254902" d="M 68.5 243 L 69 246.5 L 68 246.5 L 68.5 243 Z " /><path fill="rgb(106,72,47)" stroke="rgb(106,72,47)" stroke-width="1" opacity="0.807843137254902" d="M 197.5 254 L 198 258.5 L 197 258.5 L 197.5 254 Z " /><path fill="rgb(106,72,47)" stroke="rgb(106,72,47)" stroke-width="1" opacity="0.807843137254902" d="M 314.5 254 L 315 258.5 L 314 258.5 L 314.5 254 Z " /><path fill="rgb(106,72,47)" stroke="rgb(106,72,47)" stroke-width="1" opacity="0.807843137254902" d="M 102.5 256 L 103 258.5 L 102 258.5 L 102.5 256 Z " /><path fill="rgb(106,72,47)" stroke="rgb(106,72,47)" stroke-width="1" opacity="0.807843137254902" d="M 116.5 261 L 117 265.5 L 116 265.5 L 116.5 261 Z " /><path fill="rgb(106,72,47)" stroke="rgb(106,72,47)" stroke-width="1" opacity="0.807843137254902" d="M 395.5 261 L 396 264.5 L 395 264.5 L 395.5 261 Z " /><path fill="rgb(106,72,47)" stroke="rgb(106,72,47)" stroke-width="1" opacity="0.807843137254902" d="M 117.5 276 L 118 278.5 L 117 278.5 L 117.5 276 Z " /><path fill="rgb(106,72,47)" stroke="rgb(106,72,47)" stroke-width="1" opacity="0.807843137254902" d="M 394.5 276 L 395 278.5 L 394 278.5 L 394.5 276 Z " /><path fill="rgb(106,72,47)" stroke="rgb(106,72,47)" stroke-width="1" opacity="0.807843137254902" d="M 231.5 277 L 232.5 279 L 231.5 277 Z " /><path fill="rgb(106,72,47)" stroke="rgb(106,72,47)" stroke-width="1" opacity="0.807843137254902" d="M 280.5 277 L 277.5 281 L 280.5 277 Z " /><path fill="rgb(106,72,47)" stroke="rgb(106,72,47)" stroke-width="1" opacity="0.807843137254902" d="M 213.5 296 L 215.5 299 L 213.5 296 Z " /><path fill="rgb(106,72,47)" stroke="rgb(106,72,47)" stroke-width="1" opacity="0.807843137254902" d="M 298.5 296 L 296.5 299 L 298.5 296 Z " /><path fill="rgb(106,72,47)" stroke="rgb(106,72,47)" stroke-width="1" opacity="0.807843137254902" d="M 200.5 302 L 201.5 304 L 200.5 302 Z " /><path fill="rgb(106,72,47)" stroke="rgb(106,72,47)" stroke-width="1" opacity="0.807843137254902" d="M 311.5 302 L 310.5 304 L 311.5 302 Z " /><path fill="rgb(106,72,47)" stroke="rgb(106,72,47)" stroke-width="1" opacity="0.807843137254902" d="M 208.5 310 L 209.5 312 L 208.5 310 Z " /><path fill="rgb(106,72,47)" stroke="rgb(106,72,47)" stroke-width="1" opacity="0.807843137254902" d="M 146.5 364 L 147.5 366 L 146.5 364 Z " /><path fill="rgb(106,72,47)" stroke="rgb(106,72,47)" stroke-width="1" opacity="0.807843137254902" d="M 365.5 364 L 363.5 367 L 365.5 364 Z " /><path fill="rgb(106,72,47)" stroke="rgb(106,72,47)" stroke-width="1" opacity="0.807843137254902" d="M 157.5 375 L 158.5 377 L 157.5 375 Z " /><path fill="rgb(106,72,47)" stroke="rgb(106,72,47)" stroke-width="1" opacity="0.807843137254902" d="M 354.5 375 L 353.5 377 L 354.5 375 Z " /><path fill="rgb(113,82,45)" stroke="rgb(113,82,45)" stroke-width="1" opacity="0.7647058823529411" d="M 216.5 213 L 215.5 215 L 216.5 213 Z " /><path fill="rgb(113,82,45)" stroke="rgb(113,82,45)" stroke-width="1" opacity="0.7647058823529411" d="M 396.5 232 L 397 237.5 L 396 237.5 L 396.5 232 Z " /><path fill="rgb(113,82,45)" stroke="rgb(113,82,45)" stroke-width="1" opacity="0.7647058823529411" d="M 115.5 233 L 116 238.5 L 115 238.5 L 115.5 233 Z " /><path fill="rgb(113,82,45)" stroke="rgb(113,82,45)" stroke-width="1" opacity="0.7647058823529411" d="M 410.5 233 L 411 236.5 L 410 236.5 L 410.5 233 Z " /><path fill="rgb(113,82,45)" stroke="rgb(113,82,45)" stroke-width="1" opacity="0.7647058823529411" d="M 101.5 234 L 102 237.5 L 101 237.5 L 101.5 234 Z " /><path fill="rgb(113,82,45)" stroke="rgb(113,82,45)" stroke-width="1" opacity="0.7647058823529411" d="M 443.5 239 L 444 241.5 L 443 241.5 L 443.5 239 Z " /><path fill="rgb(113,82,45)" stroke="rgb(113,82,45)" stroke-width="1" opacity="0.7647058823529411" d="M 68.5 240 L 69 242.5 L 68 242.5 L 68.5 240 Z " /><path fill="rgb(113,82,45)" stroke="rgb(113,82,45)" stroke-width="1" opacity="0.7647058823529411" d="M 237.5 254 L 238 258.5 L 237 258.5 L 237.5 254 Z " /><path fill="rgb(113,82,45)" stroke="rgb(113,82,45)" stroke-width="1" opacity="0.7647058823529411" d="M 395.5 257 L 396 260.5 L 395 260.5 L 395.5 257 Z " /><path fill="rgb(113,82,45)" stroke="rgb(113,82,45)" stroke-width="1" opacity="0.7647058823529411" d="M 116.5 258 L 117 260.5 L 116 260.5 L 116.5 258 Z " /><path fill="rgb(113,82,45)" stroke="rgb(113,82,45)" stroke-width="1" opacity="0.7647058823529411" d="M 148.5 366 L 156.5 375 L 148.5 366 Z " /><path fill="rgb(113,82,45)" stroke="rgb(113,82,45)" stroke-width="1" opacity="0.7647058823529411" d="M 362.5 367 L 361.5 369 L 362.5 367 Z " /><path fill="rgb(113,82,45)" stroke="rgb(113,82,45)" stroke-width="1" opacity="0.7647058823529411" d="M 356.5 373 L 355.5 375 L 356.5 373 Z " /><path fill="rgb(155,102,72)" stroke="rgb(155,102,72)" stroke-width="1" opacity="0.996078431372549" d="M 248.5 80 L 249 184 L 236.5 186 L 223.5 191 Q 211.1 197.6 202 207.5 Q 192.4 217.9 187 232.5 L 184 244.5 L 183 260.5 L 184 261.5 L 185 273.5 L 192 291.5 Q 199.7 304.9 211.5 314 L 228.5 324 L 249 329 L 248.5 433 L 204.5 409 L 174 388.5 L 174 120.5 L 175.5 119 L 248.5 80 Z " /><path fill="rgb(155,102,72)" stroke="rgb(155,102,72)" stroke-width="1" opacity="0.996078431372549" d="M 263.5 80 L 338 120.5 L 338 388.5 L 336.5 390 L 307.5 409 L 263.5 433 L 263 329 Q 297.2 324 314 300.5 Q 322.9 289.4 327 273.5 L 329 252.5 L 328 251.5 L 327 239.5 L 323 227.5 Q 316.3 212.3 304.5 202 Q 289.2 187.1 263 184 L 263.5 80 Z " /><path fill="rgb(155,102,72)" stroke="rgb(155,102,72)" stroke-width="1" opacity="0.996078431372549" d="M 158.5 128 L 159 375.5 L 145 362.5 Q 135 351 129 335.5 L 123 315.5 L 119 292.5 L 118 272.5 L 117 271.5 L 117 255.5 L 116 254.5 L 116 227.5 L 115 226.5 L 115 151.5 L 158.5 128 Z " /><path fill="rgb(155,102,72)" stroke="rgb(155,102,72)" stroke-width="1" opacity="0.996078431372549" d="M 353.5 128 L 397 151.5 L 397 225.5 L 396 226.5 L 396 253.5 L 395 254.5 L 395 270.5 L 394 271.5 L 394 282.5 L 393 283.5 L 391 305.5 L 387 323.5 L 379 344.5 Q 369.1 363.1 353.5 376 L 353.5 128 Z " /><path fill="rgb(155,102,72)" stroke="rgb(155,102,72)" stroke-width="1" opacity="0.996078431372549" d="M 253.5 238 Q 265.2 237.8 270 244.5 Q 275.3 249.2 274 260.5 Q 271.9 268.4 265.5 272 Q 260.8 275.8 250.5 274 L 240 265.5 Q 236.9 261.1 238 252.5 L 244.5 242 L 253.5 238 Z " /><path fill="rgb(162,112,70)" stroke="rgb(162,112,70)" stroke-width="1" opacity="0.8274509803921568" d="M 159.5 128 L 160 376.5 L 159 376.5 L 159.5 128 Z " /><path fill="rgb(162,112,70)" stroke="rgb(162,112,70)" stroke-width="1" opacity="0.8274509803921568" d="M 352.5 128 L 353 376.5 L 352 376.5 L 352.5 128 Z " /><path fill="rgb(162,112,70)" stroke="rgb(162,112,70)" stroke-width="1" opacity="0.8274509803921568" d="M 207.5 202 L 202.5 208 L 207.5 202 Z " /><path fill="rgb(162,112,70)" stroke="rgb(162,112,70)" stroke-width="1" opacity="0.8274509803921568" d="M 304.5 202 L 309.5 208 L 304.5 202 Z " /><path fill="rgb(162,112,70)" stroke="rgb(162,112,70)" stroke-width="1" opacity="0.8274509803921568" d="M 296.5 214 L 297.5 216 L 296.5 214 Z " /><path fill="rgb(162,112,70)" stroke="rgb(162,112,70)" stroke-width="1" opacity="0.8274509803921568" d="M 396.5 226 L 397 231.5 L 396 231.5 L 396.5 226 Z " /><path fill="rgb(162,112,70)" stroke="rgb(162,112,70)" stroke-width="1" opacity="0.8274509803921568" d="M 115.5 227 L 116 232.5 L 115 232.5 L 115.5 227 Z " /><path fill="rgb(162,112,70)" stroke="rgb(162,112,70)" stroke-width="1" opacity="0.8274509803921568" d="M 443.5 229 L 444 238.5 L 443 238.5 L 443.5 229 Z " /><path fill="rgb(162,112,70)" stroke="rgb(162,112,70)" stroke-width="1" opacity="0.8274509803921568" d="M 68.5 230 L 69 239.5 L 68 239.5 L 68.5 230 Z " /><path fill="rgb(162,112,70)" stroke="rgb(162,112,70)" stroke-width="1" opacity="0.8274509803921568" d="M 410.5 237 L 411 243.5 L 410 243.5 L 410.5 237 Z " /><path fill="rgb(162,112,70)" stroke="rgb(162,112,70)" stroke-width="1" opacity="0.8274509803921568" d="M 101.5 238 L 102 243.5 L 101 243.5 L 101.5 238 Z " /><path fill="rgb(162,112,70)" stroke="rgb(162,112,70)" stroke-width="1" opacity="0.8274509803921568" d="M 241.5 245 L 240.5 247 L 241.5 245 Z " /><path fill="rgb(162,112,70)" stroke="rgb(162,112,70)" stroke-width="1" opacity="0.8274509803921568" d="M 270.5 245 L 271.5 247 L 270.5 245 Z " /><path fill="rgb(162,112,70)" stroke="rgb(162,112,70)" stroke-width="1" opacity="0.8274509803921568" d="M 183.5 252 L 184 260.5 L 183 260.5 L 183.5 252 Z " /><path fill="rgb(162,112,70)" stroke="rgb(162,112,70)" stroke-width="1" opacity="0.8274509803921568" d="M 328.5 252 L 329 259.5 L 328 259.5 L 328.5 252 Z " /><path fill="rgb(162,112,70)" stroke="rgb(162,112,70)" stroke-width="1" opacity="0.8274509803921568" d="M 223.5 253 L 224 259.5 L 223 259.5 L 223.5 253 Z " /><path fill="rgb(162,112,70)" stroke="rgb(162,112,70)" stroke-width="1" opacity="0.8274509803921568" d="M 288.5 253 L 289 259.5 L 288 259.5 L 288.5 253 Z " /><path fill="rgb(162,112,70)" stroke="rgb(162,112,70)" stroke-width="1" opacity="0.8274509803921568" d="M 395.5 254 L 396 256.5 L 395 256.5 L 395.5 254 Z " /><path fill="rgb(162,112,70)" stroke="rgb(162,112,70)" stroke-width="1" opacity="0.8274509803921568" d="M 116.5 255 L 117 257.5 L 116 257.5 L 116.5 255 Z " /><path fill="rgb(162,112,70)" stroke="rgb(162,112,70)" stroke-width="1" opacity="0.8274509803921568" d="M 69.5 259 L 70 264.5 L 69 264.5 L 69.5 259 Z " /><path fill="rgb(162,112,70)" stroke="rgb(162,112,70)" stroke-width="1" opacity="0.8274509803921568" d="M 442.5 259 L 443 263.5 L 442 263.5 L 442.5 259 Z " /><path fill="rgb(162,112,70)" stroke="rgb(162,112,70)" stroke-width="1" opacity="0.8274509803921568" d="M 409.5 260 L 410 264.5 L 409 264.5 L 409.5 260 Z " /><path fill="rgb(162,112,70)" stroke="rgb(162,112,70)" stroke-width="1" opacity="0.8274509803921568" d="M 102.5 261 L 103 264.5 L 102 264.5 L 102.5 261 Z " /><path fill="rgb(162,112,70)" stroke="rgb(162,112,70)" stroke-width="1" opacity="0.8274509803921568" d="M 241.5 267 L 245.5 272 L 241.5 267 Z " /><path fill="rgb(162,112,70)" stroke="rgb(162,112,70)" stroke-width="1" opacity="0.8274509803921568" d="M 270.5 267 L 266.5 272 L 270.5 267 Z " /><path fill="rgb(162,112,70)" stroke="rgb(162,112,70)" stroke-width="1" opacity="0.8274509803921568" d="M 394.5 271 L 395 273.5 L 394 273.5 L 394.5 271 Z " /><path fill="rgb(162,112,70)" stroke="rgb(162,112,70)" stroke-width="1" opacity="0.8274509803921568" d="M 252.5 274 L 260 274.5 L 252.5 275 L 252.5 274 Z " /><path fill="rgb(162,112,70)" stroke="rgb(162,112,70)" stroke-width="1" opacity="0.8274509803921568" d="M 70.5 276 L 71 278.5 L 70 278.5 L 70.5 276 Z " /><path fill="rgb(162,112,70)" stroke="rgb(162,112,70)" stroke-width="1" opacity="0.8274509803921568" d="M 103.5 276 L 104 278.5 L 103 278.5 L 103.5 276 Z " /><path fill="rgb(162,112,70)" stroke="rgb(162,112,70)" stroke-width="1" opacity="0.8274509803921568" d="M 408.5 276 L 409 278.5 L 408 278.5 L 408.5 276 Z " /><path fill="rgb(162,112,70)" stroke="rgb(162,112,70)" stroke-width="1" opacity="0.8274509803921568" d="M 441.5 276 L 442 278.5 L 441 278.5 L 441.5 276 Z " /><path fill="rgb(162,112,70)" stroke="rgb(162,112,70)" stroke-width="1" opacity="0.8274509803921568" d="M 440.5 287 L 441 289.5 L 440 289.5 L 440.5 287 Z " /><path fill="rgb(162,112,70)" stroke="rgb(162,112,70)" stroke-width="1" opacity="0.8274509803921568" d="M 251.5 314 L 261 314.5 L 251.5 315 L 251.5 314 Z " /><path fill="rgb(162,112,70)" stroke="rgb(162,112,70)" stroke-width="1" opacity="0.8274509803921568" d="M 360.5 369 L 359.5 371 L 360.5 369 Z " /><path fill="rgb(162,112,70)" stroke="rgb(162,112,70)" stroke-width="1" opacity="0.8274509803921568" d="M 137.5 375 L 147.5 386 L 137.5 375 Z " /><path fill="rgb(162,112,70)" stroke="rgb(162,112,70)" stroke-width="1" opacity="0.8274509803921568" d="M 374.5 375 L 364.5 386 L 374.5 375 Z " /><path fill="rgb(162,112,70)" stroke="rgb(162,112,70)" stroke-width="1" opacity="0.8274509803921568" d="M 110.5 394 L 111.5 396 L 110.5 394 Z " /><path fill="rgb(162,112,70)" stroke="rgb(162,112,70)" stroke-width="1" opacity="0.8274509803921568" d="M 401.5 394 L 400.5 396 L 401.5 394 Z " /><path fill="rgb(162,112,70)" stroke="rgb(162,112,70)" stroke-width="1" opacity="0.8274509803921568" d="M 126.5 410 L 129.5 414 L 126.5 410 Z " /><path fill="rgb(162,112,70)" stroke="rgb(162,112,70)" stroke-width="1" opacity="0.8274509803921568" d="M 384.5 411 L 383.5 413 L 384.5 411 Z " /><path fill="rgb(162,112,70)" stroke="rgb(162,112,70)" stroke-width="1" opacity="0.8274509803921568" d="M 372.5 421 L 371.5 423 L 372.5 421 Z " /><path fill="rgb(162,112,70)" stroke="rgb(162,112,70)" stroke-width="1" opacity="0.8274509803921568" d="M 368.5 424 L 367.5 426 L 368.5 424 Z " /><path fill="rgb(162,112,70)" stroke="rgb(162,112,70)" stroke-width="1" opacity="0.8274509803921568" d="M 254.5 451 L 258 451.5 L 254.5 452 L 254.5 451 Z " /><path fill="rgb(246,187,91)" stroke="rgb(246,187,91)" stroke-width="1" opacity="0.996078431372549" d="M 255.5 23 L 426.5 113 L 444 123.5 L 444 228.5 L 443 229.5 L 443 258.5 L 442 259.5 L 442 275.5 L 441 276.5 L 440 296.5 L 439 297.5 L 437 316.5 L 427 352.5 L 418 371.5 Q 404.7 394.2 385.5 411 Q 364.6 429.1 340.5 444 Q 300.1 468.6 255.5 489 Q 211.7 468.3 171.5 444 Q 138 424 112 396.5 Q 96.8 379.7 87 357.5 L 80 337.5 L 73 304.5 L 72 288.5 L 71 287.5 L 71 276.5 L 70 275.5 L 69 230.5 L 68 229.5 L 68 123.5 L 72.5 120 L 255.5 23 Z M 255 61 L 105 140 L 101 145 L 101 244 L 102 245 L 102 265 L 103 266 L 103 279 L 104 280 L 105 298 L 111 328 L 117 345 Q 125 362 137 376 Q 158 397 184 413 Q 217 434 255 452 L 258 452 L 286 438 L 321 418 Q 344 404 365 386 Q 390 364 401 328 L 407 298 L 408 280 L 409 279 L 409 266 L 410 265 L 410 245 L 411 244 L 411 145 L 410 143 L 408 140 L 263 63 L 255 61 Z " /><path fill="rgb(246,187,91)" stroke="rgb(246,187,91)" stroke-width="1" opacity="0.996078431372549" d="M 251.5 198 L 267.5 199 L 277.5 202 Q 292.7 208.3 302 220.5 L 312 239.5 L 314 249.5 L 314 263.5 Q 309.5 289 292.5 302 Q 283.5 309.5 270.5 313 L 266.5 314 L 245.5 314 Q 223 309 211 293.5 Q 203.9 285.1 200 273.5 L 198 263.5 L 198 248.5 Q 202.9 222.9 220.5 210 L 234.5 202 L 251.5 198 Z M 250 224 L 238 229 L 227 241 L 223 254 Q 223 269 230 277 Q 237 286 251 289 L 262 289 L 276 283 Q 286 275 289 260 Q 289 245 283 238 Q 277 229 267 225 Q 260 223 250 224 Z " /></svg>