<svg width="512" height="512" version="1.1" xmlns="http://www.w3.org/2000/svg" desc="Created with imagetracer.js version 1.2.6" ><path fill="rgb(57,47,43)" stroke="rgb(57,47,43)" stroke-width="1" opacity="0.6470588235294118" d="M 9.5 0 L 21 0.5 L 9.5 1 L 9.5 0 Z " /><path fill="rgb(57,47,43)" stroke="rgb(57,47,43)" stroke-width="1" opacity="0.6470588235294118" d="M 484.5 0 L 499 0.5 L 484.5 1 L 484.5 0 Z " /><path fill="rgb(57,47,43)" stroke="rgb(57,47,43)" stroke-width="1" opacity="0.6470588235294118" d="M 500.5 0 L 504.5 0 L 510 4.5 L 511 7.5 L 510 7.5 L 507.5 3 Q 505.8 0.2 500.5 1 L 500.5 0 Z " /><path fill="rgb(57,47,43)" stroke="rgb(57,47,43)" stroke-width="1" opacity="0.6470588235294118" d="M 6.5 1 L 8 1.5 L 5.5 3 L 6.5 1 Z " /><path fill="rgb(57,47,43)" stroke="rgb(57,47,43)" stroke-width="1" opacity="0.6470588235294118" d="M 26.5 1 L 42 1.5 L 26.5 2 L 26.5 1 Z " /><path fill="rgb(57,47,43)" stroke="rgb(57,47,43)" stroke-width="1" opacity="0.6470588235294118" d="M 463.5 1 L 479 1.5 L 463.5 2 L 463.5 1 Z " /><path fill="rgb(57,47,43)" stroke="rgb(57,47,43)" stroke-width="1" opacity="0.6470588235294118" d="M 47.5 2 L 63 2.5 L 47.5 3 L 47.5 2 Z " /><path fill="rgb(57,47,43)" stroke="rgb(57,47,43)" stroke-width="1" opacity="0.6470588235294118" d="M 443.5 2 L 458 2.5 L 443.5 3 L 443.5 2 Z " /><path fill="rgb(57,47,43)" stroke="rgb(57,47,43)" stroke-width="1" opacity="0.6470588235294118" d="M 3.5 3 L 3 4.5 L 1 8.5 L 0.5 25 L 0 8.5 L 3.5 3 Z " /><path fill="rgb(57,47,43)" stroke="rgb(57,47,43)" stroke-width="1" opacity="0.6470588235294118" d="M 67.5 3 L 82 3.5 L 67.5 4 L 67.5 3 Z " /><path fill="rgb(57,47,43)" stroke="rgb(57,47,43)" stroke-width="1" opacity="0.6470588235294118" d="M 422.5 3 L 438 3.5 L 422.5 4 L 422.5 3 Z " /><path fill="rgb(57,47,43)" stroke="rgb(57,47,43)" stroke-width="1" opacity="0.6470588235294118" d="M 87.5 4 L 103 4.5 L 87.5 5 L 87.5 4 Z " /><path fill="rgb(57,47,43)" stroke="rgb(57,47,43)" stroke-width="1" opacity="0.6470588235294118" d="M 402.5 4 L 417 4.5 L 402.5 5 L 402.5 4 Z " /><path fill="rgb(57,47,43)" stroke="rgb(57,47,43)" stroke-width="1" opacity="0.6470588235294118" d="M 108.5 5 L 120 5.5 L 108.5 6 L 108.5 5 Z " /><path fill="rgb(57,47,43)" stroke="rgb(57,47,43)" stroke-width="1" opacity="0.6470588235294118" d="M 390.5 5 L 397 5.5 L 390.5 6 L 390.5 5 Z " /><path fill="rgb(57,47,43)" stroke="rgb(57,47,43)" stroke-width="1" opacity="0.6470588235294118" d="M 121.5 6 L 125 7.5 L 123.5 7 Q 120.5 7.5 121.5 6 Z " /><path fill="rgb(57,47,43)" stroke="rgb(57,47,43)" stroke-width="1" opacity="0.6470588235294118" d="M 387.5 6 L 389 6.5 L 376 18.5 L 256.5 153 L 252 149.5 L 126 8.5 L 133 14.5 L 255.5 152 L 260 148.5 L 366 28.5 L 387.5 6 Z " /><path fill="rgb(57,47,43)" stroke="rgb(57,47,43)" stroke-width="1" opacity="0.6470588235294118" d="M 511.5 9 L 512 20.5 L 511 20.5 L 511.5 9 Z " /><path fill="rgb(57,47,43)" stroke="rgb(57,47,43)" stroke-width="1" opacity="0.6470588235294118" d="M 510.5 26 L 511 40.5 L 510 40.5 L 510.5 26 Z " /><path fill="rgb(57,47,43)" stroke="rgb(57,47,43)" stroke-width="1" opacity="0.6470588235294118" d="M 1.5 29 L 2 43.5 L 1 43.5 L 1.5 29 Z " /><path fill="rgb(57,47,43)" stroke="rgb(57,47,43)" stroke-width="1" opacity="0.6470588235294118" d="M 509.5 46 L 510 60.5 L 509 60.5 L 509.5 46 Z " /><path fill="rgb(57,47,43)" stroke="rgb(57,47,43)" stroke-width="1" opacity="0.6470588235294118" d="M 2.5 49 L 3 63.5 L 2 63.5 L 2.5 49 Z " /><path fill="rgb(57,47,43)" stroke="rgb(57,47,43)" stroke-width="1" opacity="0.6470588235294118" d="M 508.5 66 L 509 80.5 L 508 80.5 L 508.5 66 Z " /><path fill="rgb(57,47,43)" stroke="rgb(57,47,43)" stroke-width="1" opacity="0.6470588235294118" d="M 3.5 69 L 4 83.5 L 3 83.5 L 3.5 69 Z " /><path fill="rgb(57,47,43)" stroke="rgb(57,47,43)" stroke-width="1" opacity="0.6470588235294118" d="M 507.5 86 L 508 100.5 L 507 100.5 L 507.5 86 Z " /><path fill="rgb(57,47,43)" stroke="rgb(57,47,43)" stroke-width="1" opacity="0.6470588235294118" d="M 4.5 89 L 5 103.5 L 4 103.5 L 4.5 89 Z " /><path fill="rgb(57,47,43)" stroke="rgb(57,47,43)" stroke-width="1" opacity="0.6470588235294118" d="M 506.5 105 L 507 119.5 L 506 119.5 L 506.5 105 Z " /><path fill="rgb(57,47,43)" stroke="rgb(57,47,43)" stroke-width="1" opacity="0.6470588235294118" d="M 5.5 109 L 6 120.5 L 5 120.5 L 5.5 109 Z " /><path fill="rgb(57,47,43)" stroke="rgb(57,47,43)" stroke-width="1" opacity="0.6470588235294118" d="M 505.5 121 L 506 123.5 L 503 125.5 L 505.5 121 Z " /><path fill="rgb(57,47,43)" stroke="rgb(57,47,43)" stroke-width="1" opacity="0.6470588235294118" d="M 6.5 122 Q 9 129.5 15.5 133 L 159 261.5 L 122.5 303 L 124 300.5 L 158 261.5 L 7 125.5 L 6.5 122 Z " /><path fill="rgb(57,47,43)" stroke="rgb(57,47,43)" stroke-width="1" opacity="0.6470588235294118" d="M 502.5 127 L 501.5 129 L 354 260.5 Q 357.2 268.3 364 272.5 L 355 264.5 L 353 260.5 L 502.5 127 Z " /><path fill="rgb(57,47,43)" stroke="rgb(57,47,43)" stroke-width="1" opacity="0.6470588235294118" d="M 364.5 274 L 390 302.5 L 389 302.5 L 364.5 274 Z " /><path fill="rgb(57,47,43)" stroke="rgb(57,47,43)" stroke-width="1" opacity="0.6470588235294118" d="M 100.5 291 L 104 291.5 L 98.5 293 L 70 321.5 L 68.5 326 L 68 323.5 L 98.5 292 L 100.5 291 Z " /><path fill="rgb(57,47,43)" stroke="rgb(57,47,43)" stroke-width="1" opacity="0.6470588235294118" d="M 106.5 291 L 110.5 292 L 121 302.5 L 110.5 293 L 106.5 292 L 106.5 291 Z " /><path fill="rgb(57,47,43)" stroke="rgb(57,47,43)" stroke-width="1" opacity="0.6470588235294118" d="M 403.5 291 L 406 291.5 L 401.5 293 L 391.5 303 L 401.5 292 L 403.5 291 Z " /><path fill="rgb(57,47,43)" stroke="rgb(57,47,43)" stroke-width="1" opacity="0.6470588235294118" d="M 409.5 291 L 412 291.5 L 409.5 292 L 409.5 291 Z " /><path fill="rgb(57,47,43)" stroke="rgb(57,47,43)" stroke-width="1" opacity="0.6470588235294118" d="M 413.5 292 L 441 318.5 L 444 324.5 L 443 324.5 L 443 322.5 L 413.5 292 Z " /><path fill="rgb(57,47,43)" stroke="rgb(57,47,43)" stroke-width="1" opacity="0.6470588235294118" d="M 444.5 326 L 445 328.5 L 444 328.5 L 444.5 326 Z " /><path fill="rgb(57,47,43)" stroke="rgb(57,47,43)" stroke-width="1" opacity="0.6470588235294118" d="M 68.5 329 L 69 331.5 L 68 331.5 L 68.5 329 Z " /><path fill="rgb(57,47,43)" stroke="rgb(57,47,43)" stroke-width="1" opacity="0.6470588235294118" d="M 443.5 330 L 444 332.5 L 418 359.5 L 448 388.5 L 449.5 391 L 452 392.5 L 487.5 429 L 490 430.5 L 491.5 433 L 502 442.5 L 505 446.5 L 501 443.5 L 493.5 435 L 417 359.5 L 441 335.5 L 443.5 330 Z " /><path fill="rgb(57,47,43)" stroke="rgb(57,47,43)" stroke-width="1" opacity="0.6470588235294118" d="M 69.5 333 L 70.5 335 L 69.5 333 Z " /><path fill="rgb(57,47,43)" stroke="rgb(57,47,43)" stroke-width="1" opacity="0.6470588235294118" d="M 71.5 336 L 95 359.5 L 8.5 446 L 68 385.5 Q 67.3 383.3 69.5 384 L 94 359.5 L 71.5 336 Z " /><path fill="rgb(57,47,43)" stroke="rgb(57,47,43)" stroke-width="1" opacity="0.6470588235294118" d="M 255.5 348 L 259 350.5 L 256.5 349 L 251.5 352 L 209 390.5 Q 216.6 395.4 220 404.5 L 219 404.5 Q 215.2 395.8 208 390.5 L 255.5 348 Z " /><path fill="rgb(57,47,43)" stroke="rgb(57,47,43)" stroke-width="1" opacity="0.6470588235294118" d="M 260.5 351 L 304 390.5 L 293 400.5 L 303 390.5 L 297.5 385 L 268.5 360 L 260.5 351 Z " /><path fill="rgb(57,47,43)" stroke="rgb(57,47,43)" stroke-width="1" opacity="0.6470588235294118" d="M 292.5 402 L 292 403.5 L 291.5 411 L 291 403.5 L 292.5 402 Z " /><path fill="rgb(57,47,43)" stroke="rgb(57,47,43)" stroke-width="1" opacity="0.6470588235294118" d="M 220.5 406 L 221 409.5 L 220 409.5 L 220.5 406 Z " /><path fill="rgb(57,47,43)" stroke="rgb(57,47,43)" stroke-width="1" opacity="0.6470588235294118" d="M 219.5 411 L 220 412.5 L 190.5 443 L 188.5 444 L 189.5 442 L 218 414.5 L 219.5 411 Z " /><path fill="rgb(57,47,43)" stroke="rgb(57,47,43)" stroke-width="1" opacity="0.6470588235294118" d="M 292.5 412 L 320.5 441 L 327 443.5 L 323.5 444 L 293 414.5 L 292.5 412 Z " /><path fill="rgb(57,47,43)" stroke="rgb(57,47,43)" stroke-width="1" opacity="0.6470588235294118" d="M 359.5 417 L 442.5 501 L 359.5 418 L 335.5 442 Q 334.1 444.6 329.5 444 L 329.5 443 Q 334.1 443.6 335.5 441 L 359.5 417 Z " /><path fill="rgb(57,47,43)" stroke="rgb(57,47,43)" stroke-width="1" opacity="0.6470588235294118" d="M 151.5 418 L 175.5 441 L 180 443.5 L 178.5 444 L 151.5 419 L 67.5 503 L 57.5 509 L 58.5 507 L 67.5 502 L 151.5 418 Z " /><path fill="rgb(57,47,43)" stroke="rgb(57,47,43)" stroke-width="1" opacity="0.6470588235294118" d="M 181.5 444 L 186 444.5 L 181.5 445 L 181.5 444 Z " /><path fill="rgb(57,47,43)" stroke="rgb(57,47,43)" stroke-width="1" opacity="0.6470588235294118" d="M 7.5 447 L 6 449.5 L 2.5 458 L 2 455.5 L 7.5 447 Z " /><path fill="rgb(57,47,43)" stroke="rgb(57,47,43)" stroke-width="1" opacity="0.6470588235294118" d="M 505.5 448 L 510 457.5 L 509 457.5 L 505.5 448 Z " /><path fill="rgb(57,47,43)" stroke="rgb(57,47,43)" stroke-width="1" opacity="0.6470588235294118" d="M 1.5 459 L 2 461.5 L 0.5 469 L 0 462.5 L 1.5 459 Z " /><path fill="rgb(57,47,43)" stroke="rgb(57,47,43)" stroke-width="1" opacity="0.6470588235294118" d="M 511.5 462 L 512 468.5 L 511 468.5 L 511.5 462 Z " /><path fill="rgb(57,47,43)" stroke="rgb(57,47,43)" stroke-width="1" opacity="0.6470588235294118" d="M 0.5 473 L 1 478.5 L 0 478.5 L 0.5 473 Z " /><path fill="rgb(57,47,43)" stroke="rgb(57,47,43)" stroke-width="1" opacity="0.6470588235294118" d="M 511.5 473 L 512 478.5 L 511 478.5 L 511.5 473 Z " /><path fill="rgb(57,47,43)" stroke="rgb(57,47,43)" stroke-width="1" opacity="0.6470588235294118" d="M 1.5 480 L 3 485.5 L 2 485.5 L 1.5 480 Z " /><path fill="rgb(57,47,43)" stroke="rgb(57,47,43)" stroke-width="1" opacity="0.6470588235294118" d="M 509.5 483 L 510 485.5 L 505.5 493 L 506 491.5 L 509.5 483 Z " /><path fill="rgb(57,47,43)" stroke="rgb(57,47,43)" stroke-width="1" opacity="0.6470588235294118" d="M 3.5 487 L 13.5 501 Q 20.6 507.9 32 510.5 L 29.5 511 Q 17.3 507.3 10 498.5 Q 4.9 493.6 3.5 487 Z " /><path fill="rgb(57,47,43)" stroke="rgb(57,47,43)" stroke-width="1" opacity="0.6470588235294118" d="M 504.5 494 L 501 498.5 L 499.5 501 L 492.5 506 L 493.5 504 L 500 500 L 504.5 494 Z " /><path fill="rgb(57,47,43)" stroke="rgb(57,47,43)" stroke-width="1" opacity="0.6470588235294118" d="M 444.5 501 L 447.5 505 L 444.5 501 Z " /><path fill="rgb(57,47,43)" stroke="rgb(57,47,43)" stroke-width="1" opacity="0.6470588235294118" d="M 451.5 506 L 456 508.5 L 454.5 509 L 451.5 506 Z " /><path fill="rgb(57,47,43)" stroke="rgb(57,47,43)" stroke-width="1" opacity="0.6470588235294118" d="M 490.5 506 L 489.5 508 L 488 507.5 L 490.5 506 Z " /><path fill="rgb(57,47,43)" stroke="rgb(57,47,43)" stroke-width="1" opacity="0.6470588235294118" d="M 53.5 509 L 56 509.5 L 50.5 511 L 50.5 510 L 53.5 509 Z " /><path fill="rgb(57,47,43)" stroke="rgb(57,47,43)" stroke-width="1" opacity="0.6470588235294118" d="M 457.5 509 L 463 510.5 L 460.5 511 L 457.5 510 L 457.5 509 Z " /><path fill="rgb(57,47,43)" stroke="rgb(57,47,43)" stroke-width="1" opacity="0.6470588235294118" d="M 482.5 509 L 485 509.5 L 482.5 510 L 482.5 509 Z " /><path fill="rgb(57,47,43)" stroke="rgb(57,47,43)" stroke-width="1" opacity="0.6470588235294118" d="M 33.5 511 L 40 511.5 L 33.5 512 L 33.5 511 Z " /><path fill="rgb(57,47,43)" stroke="rgb(57,47,43)" stroke-width="1" opacity="0.6470588235294118" d="M 42.5 511 L 49 511.5 L 42.5 512 L 42.5 511 Z " /><path fill="rgb(57,47,43)" stroke="rgb(57,47,43)" stroke-width="1" opacity="0.6470588235294118" d="M 465.5 511 L 477 511.5 L 465.5 512 L 465.5 511 Z " /><path fill="rgb(250,212,97)" stroke="rgb(250,212,97)" stroke-width="1" opacity="1" d="M 103.5 319 L 193 407.5 L 183.5 416 L 95 327.5 L 103.5 319 Z " /><path fill="rgb(250,212,97)" stroke="rgb(250,212,97)" stroke-width="1" opacity="1" d="M 407.5 319 L 417 327.5 L 335 408.5 L 328.5 416 L 319 407.5 L 407.5 319 Z " /><path fill="rgb(250,212,97)" stroke="rgb(250,212,97)" stroke-width="1" opacity="1" d="M 109.5 376 L 111.5 376 L 136 400.5 L 121.5 416 L 117.5 419 L 92 392.5 L 109.5 376 Z " /><path fill="rgb(250,212,97)" stroke="rgb(250,212,97)" stroke-width="1" opacity="1" d="M 400.5 376 L 402.5 376 L 420 393.5 L 393.5 419 L 375 401.5 L 384.5 391 L 400.5 376 Z " /><path fill="rgb(250,212,97)" stroke="rgb(250,212,97)" stroke-width="1" opacity="1" d="M 75.5 410 L 101 436.5 L 85.5 452 L 80.5 455 L 56 429.5 L 75.5 410 Z " /><path fill="rgb(250,212,97)" stroke="rgb(250,212,97)" stroke-width="1" opacity="1" d="M 434.5 410 L 455 429.5 L 428.5 455 L 409 435.5 L 434.5 410 Z " /><path fill="rgb(250,212,97)" stroke="rgb(250,212,97)" stroke-width="1" opacity="1" d="M 38.5 447 L 65 471.5 L 58.5 479 L 48.5 487 L 37.5 488 Q 29.6 485.9 26 479.5 Q 22.7 474.8 24 465.5 Q 28.5 453.5 38.5 447 Z " /><path fill="rgb(250,212,97)" stroke="rgb(250,212,97)" stroke-width="1" opacity="1" d="M 471.5 447 L 486 460.5 L 489 468.5 L 489 473.5 L 483.5 483 L 473.5 488 L 465.5 488 Q 452.8 483.2 446 472.5 L 455.5 462 L 471.5 447 Z " /><path fill="rgb(0,0,0)" stroke="rgb(0,0,0)" stroke-width="1" opacity="0" d="M 0 0 L 9 0.5 L 2 4.5 L 0.5 8 L 0 0 Z " /><path fill="rgb(0,0,0)" stroke="rgb(0,0,0)" stroke-width="1" opacity="0" d="M 21.5 0 L 484 0.5 L 390.5 5 L 387.5 6 L 375 18.5 L 256.5 152 L 253 149.5 L 126.5 8 L 119.5 5 L 82.5 4 L 81.5 3 L 63.5 3 L 62.5 2 L 42.5 2 L 41.5 1 L 21.5 1 L 21.5 0 Z " /><path fill="rgb(0,0,0)" stroke="rgb(0,0,0)" stroke-width="1" opacity="0" d="M 505.5 0 L 512 0 L 512 8.5 L 511 8.5 Q 510.8 3.8 507.5 2 L 505.5 0 Z " /><path fill="rgb(0,0,0)" stroke="rgb(0,0,0)" stroke-width="1" opacity="0" d="M 511.5 21 L 512 461.5 L 511 461.5 Q 510.5 454 507 449.5 L 492.5 433 L 490 431.5 L 488.5 429 L 452 393.5 L 450.5 391 L 448 389.5 L 445.5 386 L 418 359.5 L 442 335.5 Q 445 332.5 445 326.5 L 441 318.5 L 416.5 294 L 407.5 290 L 401.5 292 L 390.5 303 L 356 264.5 L 354 260.5 L 503 127.5 L 507 119.5 L 507 101.5 L 508 100.5 L 508 81.5 L 509 80.5 L 509 61.5 L 510 60.5 L 511.5 21 Z " /><path fill="rgb(0,0,0)" stroke="rgb(0,0,0)" stroke-width="1" opacity="0" d="M 0.5 25 L 1 43.5 L 2 44.5 L 2 63.5 L 3 64.5 L 3 83.5 L 4 84.5 L 4 103.5 L 5 104.5 L 5 120.5 Q 7.7 129.8 15.5 134 L 158 261.5 L 121.5 303 L 110.5 292 Q 107.3 289.7 100.5 291 L 69 321.5 L 67 327.5 L 71 336.5 L 94 359.5 L 69.5 384 L 68 384 L 68 385.5 L 8 445.5 Q 2 451.5 0.5 462 L 0.5 25 Z " /><path fill="rgb(0,0,0)" stroke="rgb(0,0,0)" stroke-width="1" opacity="0" d="M 255.5 349 L 259.5 351 L 303 390.5 L 291 403.5 L 291 410.5 L 293 414.5 L 320.5 442 Q 323.7 445.8 332.5 444 L 359.5 418 L 442.5 501 L 454.5 509 L 465 511.5 L 49.5 512 L 49.5 511 L 55.5 510 L 67.5 503 L 152.5 419 L 175.5 442 Q 178.3 445.7 185.5 445 L 190.5 443 L 219 414.5 L 221 406.5 Q 217.3 396.2 209 390.5 L 255.5 349 Z " /><path fill="rgb(0,0,0)" stroke="rgb(0,0,0)" stroke-width="1" opacity="0" d="M 0.5 479 Q 3.5 494 13.5 502 Q 20.4 509.6 33 511.5 L 0 512 L 0.5 479 Z " /><path fill="rgb(0,0,0)" stroke="rgb(0,0,0)" stroke-width="1" opacity="0" d="M 511.5 479 L 512 512 L 477 511.5 Q 492.7 509.2 501 499.5 Q 508.8 491.8 511.5 479 Z " /><path fill="rgb(182,173,158)" stroke="rgb(182,173,158)" stroke-width="1" opacity="1" d="M 23 23 L 29.5 23 L 30.5 24 L 70.5 25 L 71.5 26 L 90.5 26 L 91.5 27 L 110.5 27 L 118 32.5 L 240 170.5 L 214.5 199 L 166.5 151 L 158.5 149 L 151 153.5 Q 148 156.5 149 163.5 L 157.5 174 L 200 215.5 L 174.5 244 L 27 113.5 L 23 23 Z " /><path fill="rgb(182,173,158)" stroke="rgb(182,173,158)" stroke-width="1" opacity="1" d="M 483.5 23 Q 491.3 20.3 489 27.5 L 488 28.5 L 488 48.5 L 487 49.5 L 485 108.5 L 484 113.5 L 476.5 121 L 193.5 373 L 191.5 373 L 173 353.5 L 361 165.5 Q 364 162.5 363 155.5 L 361 151 L 356.5 148 L 348.5 148 L 344.5 150 L 156.5 338 L 137 318.5 L 140 315.5 L 398.5 28 L 402.5 27 L 421.5 27 L 422.5 26 L 442.5 26 L 443.5 25 L 462.5 25 L 463.5 24 L 482.5 24 L 483.5 23 Z " /><path fill="rgb(182,173,158)" stroke="rgb(182,173,158)" stroke-width="1" opacity="1" d="M 335.5 276 L 374 319.5 L 354.5 339 L 313 297.5 L 317.5 292 L 335.5 276 Z " /><path fill="rgb(182,173,158)" stroke="rgb(182,173,158)" stroke-width="1" opacity="1" d="M 295.5 312 L 339 354.5 L 318.5 374 L 273 332.5 L 276.5 328 L 295.5 312 Z " /><path fill="rgb(182,173,158)" stroke="rgb(182,173,158)" stroke-width="1" opacity="1" d="M 104.5 318 L 194 407.5 L 188.5 413 L 193 407.5 L 104.5 318 Z " /><path fill="rgb(182,173,158)" stroke="rgb(182,173,158)" stroke-width="1" opacity="1" d="M 407.5 318 L 417 326.5 L 408.5 319 L 319 407.5 L 328.5 416 L 331 414.5 L 327.5 417 L 318 407.5 L 407.5 318 Z " /><path fill="rgb(182,173,158)" stroke="rgb(182,173,158)" stroke-width="1" opacity="1" d="M 95.5 328 L 183.5 416 L 186 414.5 L 183.5 417 L 95.5 328 Z " /><path fill="rgb(182,173,158)" stroke="rgb(182,173,158)" stroke-width="1" opacity="1" d="M 416.5 328 L 389.5 356 L 416.5 328 Z " /><path fill="rgb(182,173,158)" stroke="rgb(182,173,158)" stroke-width="1" opacity="1" d="M 378.5 365 L 359.5 385 L 378.5 365 Z " /><path fill="rgb(182,173,158)" stroke="rgb(182,173,158)" stroke-width="1" opacity="1" d="M 102.5 382 L 99.5 386 L 102.5 382 Z " /><path fill="rgb(182,173,158)" stroke="rgb(182,173,158)" stroke-width="1" opacity="1" d="M 388.5 387 L 385.5 391 L 388.5 387 Z " /><path fill="rgb(182,173,158)" stroke="rgb(182,173,158)" stroke-width="1" opacity="1" d="M 91.5 393 L 116.5 419 L 91.5 393 Z " /><path fill="rgb(182,173,158)" stroke="rgb(182,173,158)" stroke-width="1" opacity="1" d="M 345.5 398 L 335.5 409 L 345.5 398 Z " /><path fill="rgb(182,173,158)" stroke="rgb(182,173,158)" stroke-width="1" opacity="1" d="M 136.5 401 L 133.5 405 L 136.5 401 Z " /><path fill="rgb(182,173,158)" stroke="rgb(182,173,158)" stroke-width="1" opacity="1" d="M 435.5 409 L 454.5 429 L 435.5 409 Z " /><path fill="rgb(182,173,158)" stroke="rgb(182,173,158)" stroke-width="1" opacity="1" d="M 76.5 410 L 102 436.5 L 98 439.5 L 101 435.5 L 76.5 410 Z " /><path fill="rgb(182,173,158)" stroke="rgb(182,173,158)" stroke-width="1" opacity="1" d="M 120.5 416 L 118.5 419 L 120.5 416 Z " /><path fill="rgb(182,173,158)" stroke="rgb(182,173,158)" stroke-width="1" opacity="1" d="M 390.5 416 L 393.5 420 L 390.5 416 Z " /><path fill="rgb(182,173,158)" stroke="rgb(182,173,158)" stroke-width="1" opacity="1" d="M 40.5 447 L 47.5 455 L 40.5 447 Z " /><path fill="rgb(182,173,158)" stroke="rgb(182,173,158)" stroke-width="1" opacity="1" d="M 473.5 447 L 482.5 457 L 473.5 447 Z " /><path fill="rgb(182,173,158)" stroke="rgb(182,173,158)" stroke-width="1" opacity="1" d="M 84.5 452 L 82.5 455 L 84.5 452 Z " /><path fill="rgb(182,173,158)" stroke="rgb(182,173,158)" stroke-width="1" opacity="1" d="M 460.5 457 L 456.5 462 L 460.5 457 Z " /><path fill="rgb(182,173,158)" stroke="rgb(182,173,158)" stroke-width="1" opacity="1" d="M 57.5 479 L 54.5 483 L 57.5 479 Z " /><path fill="rgb(182,173,158)" stroke="rgb(182,173,158)" stroke-width="1" opacity="1" d="M 28.5 482 L 29.5 484 L 28.5 482 Z " /><path fill="rgb(58,48,43)" stroke="rgb(58,48,43)" stroke-width="1" opacity="0.996078431372549" d="M 22.5 1 L 26 1.5 L 22.5 2 L 22.5 1 Z " /><path fill="rgb(58,48,43)" stroke="rgb(58,48,43)" stroke-width="1" opacity="0.996078431372549" d="M 479.5 1 L 483 1.5 L 479.5 2 L 479.5 1 Z " /><path fill="rgb(58,48,43)" stroke="rgb(58,48,43)" stroke-width="1" opacity="0.996078431372549" d="M 43.5 2 L 47 2.5 L 43.5 3 L 43.5 2 Z " /><path fill="rgb(58,48,43)" stroke="rgb(58,48,43)" stroke-width="1" opacity="0.996078431372549" d="M 458.5 2 L 462 2.5 L 458.5 3 L 458.5 2 Z " /><path fill="rgb(58,48,43)" stroke="rgb(58,48,43)" stroke-width="1" opacity="0.996078431372549" d="M 4.5 3 L 3.5 5 L 4.5 3 Z " /><path fill="rgb(58,48,43)" stroke="rgb(58,48,43)" stroke-width="1" opacity="0.996078431372549" d="M 63.5 3 L 67 3.5 L 63.5 4 L 63.5 3 Z " /><path fill="rgb(58,48,43)" stroke="rgb(58,48,43)" stroke-width="1" opacity="0.996078431372549" d="M 438.5 3 L 442 3.5 L 438.5 4 L 438.5 3 Z " /><path fill="rgb(58,48,43)" stroke="rgb(58,48,43)" stroke-width="1" opacity="0.996078431372549" d="M 507.5 3 L 508.5 5 L 507.5 3 Z " /><path fill="rgb(58,48,43)" stroke="rgb(58,48,43)" stroke-width="1" opacity="0.996078431372549" d="M 84.5 4 L 87 4.5 L 84.5 5 L 84.5 4 Z " /><path fill="rgb(58,48,43)" stroke="rgb(58,48,43)" stroke-width="1" opacity="0.996078431372549" d="M 417.5 4 L 421 4.5 L 417.5 5 L 417.5 4 Z " /><path fill="rgb(58,48,43)" stroke="rgb(58,48,43)" stroke-width="1" opacity="0.996078431372549" d="M 104.5 5 L 108 5.5 L 104.5 6 L 104.5 5 Z " /><path fill="rgb(58,48,43)" stroke="rgb(58,48,43)" stroke-width="1" opacity="0.996078431372549" d="M 397.5 5 L 401 5.5 L 397.5 6 L 397.5 5 Z " /><path fill="rgb(58,48,43)" stroke="rgb(58,48,43)" stroke-width="1" opacity="0.996078431372549" d="M 125.5 8 L 131.5 15 L 125.5 8 Z " /><path fill="rgb(58,48,43)" stroke="rgb(58,48,43)" stroke-width="1" opacity="0.996078431372549" d="M 380.5 14 L 376.5 19 L 380.5 14 Z " /><path fill="rgb(58,48,43)" stroke="rgb(58,48,43)" stroke-width="1" opacity="0.996078431372549" d="M 135.5 19 L 139.5 24 L 135.5 19 Z " /><path fill="rgb(58,48,43)" stroke="rgb(58,48,43)" stroke-width="1" opacity="0.996078431372549" d="M 510.5 22 L 511 25.5 L 510 25.5 L 510.5 22 Z " /><path fill="rgb(58,48,43)" stroke="rgb(58,48,43)" stroke-width="1" opacity="0.996078431372549" d="M 372.5 23 L 368.5 28 L 372.5 23 Z " /><path fill="rgb(58,48,43)" stroke="rgb(58,48,43)" stroke-width="1" opacity="0.996078431372549" d="M 1.5 25 L 2 28.5 L 1 28.5 L 1.5 25 Z " /><path fill="rgb(58,48,43)" stroke="rgb(58,48,43)" stroke-width="1" opacity="0.996078431372549" d="M 144.5 29 L 148.5 34 L 144.5 29 Z " /><path fill="rgb(58,48,43)" stroke="rgb(58,48,43)" stroke-width="1" opacity="0.996078431372549" d="M 363.5 33 L 360.5 37 L 363.5 33 Z " /><path fill="rgb(58,48,43)" stroke="rgb(58,48,43)" stroke-width="1" opacity="0.996078431372549" d="M 153.5 39 L 156.5 43 L 153.5 39 Z " /><path fill="rgb(58,48,43)" stroke="rgb(58,48,43)" stroke-width="1" opacity="0.996078431372549" d="M 355.5 42 L 352.5 46 L 355.5 42 Z " /><path fill="rgb(58,48,43)" stroke="rgb(58,48,43)" stroke-width="1" opacity="0.996078431372549" d="M 509.5 42 L 510 45.5 L 509 45.5 L 509.5 42 Z " /><path fill="rgb(58,48,43)" stroke="rgb(58,48,43)" stroke-width="1" opacity="0.996078431372549" d="M 2.5 45 L 3 48.5 L 2 48.5 L 2.5 45 Z " /><path fill="rgb(58,48,43)" stroke="rgb(58,48,43)" stroke-width="1" opacity="0.996078431372549" d="M 161.5 48 L 165.5 53 L 161.5 48 Z " /><path fill="rgb(58,48,43)" stroke="rgb(58,48,43)" stroke-width="1" opacity="0.996078431372549" d="M 347.5 51 L 343.5 56 L 347.5 51 Z " /><path fill="rgb(58,48,43)" stroke="rgb(58,48,43)" stroke-width="1" opacity="0.996078431372549" d="M 170.5 58 L 173.5 62 L 170.5 58 Z " /><path fill="rgb(58,48,43)" stroke="rgb(58,48,43)" stroke-width="1" opacity="0.996078431372549" d="M 339.5 60 L 335.5 65 L 339.5 60 Z " /><path fill="rgb(58,48,43)" stroke="rgb(58,48,43)" stroke-width="1" opacity="0.996078431372549" d="M 508.5 62 L 509 65.5 L 508 65.5 L 508.5 62 Z " /><path fill="rgb(58,48,43)" stroke="rgb(58,48,43)" stroke-width="1" opacity="0.996078431372549" d="M 3.5 65 L 4 68.5 L 3 68.5 L 3.5 65 Z " /><path fill="rgb(58,48,43)" stroke="rgb(58,48,43)" stroke-width="1" opacity="0.996078431372549" d="M 178.5 67 L 182.5 72 L 178.5 67 Z " /><path fill="rgb(58,48,43)" stroke="rgb(58,48,43)" stroke-width="1" opacity="0.996078431372549" d="M 330.5 70 L 327.5 74 L 330.5 70 Z " /><path fill="rgb(58,48,43)" stroke="rgb(58,48,43)" stroke-width="1" opacity="0.996078431372549" d="M 187.5 77 L 191.5 82 L 187.5 77 Z " /><path fill="rgb(58,48,43)" stroke="rgb(58,48,43)" stroke-width="1" opacity="0.996078431372549" d="M 322.5 79 L 319.5 83 L 322.5 79 Z " /><path fill="rgb(58,48,43)" stroke="rgb(58,48,43)" stroke-width="1" opacity="0.996078431372549" d="M 507.5 82 L 508 85.5 L 507 85.5 L 507.5 82 Z " /><path fill="rgb(58,48,43)" stroke="rgb(58,48,43)" stroke-width="1" opacity="0.996078431372549" d="M 4.5 85 L 5 88.5 L 4 88.5 L 4.5 85 Z " /><path fill="rgb(58,48,43)" stroke="rgb(58,48,43)" stroke-width="1" opacity="0.996078431372549" d="M 195.5 86 L 199.5 91 L 195.5 86 Z " /><path fill="rgb(58,48,43)" stroke="rgb(58,48,43)" stroke-width="1" opacity="0.996078431372549" d="M 314.5 88 L 310.5 93 L 314.5 88 Z " /><path fill="rgb(58,48,43)" stroke="rgb(58,48,43)" stroke-width="1" opacity="0.996078431372549" d="M 204.5 96 L 208.5 101 L 204.5 96 Z " /><path fill="rgb(58,48,43)" stroke="rgb(58,48,43)" stroke-width="1" opacity="0.996078431372549" d="M 306.5 97 L 302.5 102 L 306.5 97 Z " /><path fill="rgb(58,48,43)" stroke="rgb(58,48,43)" stroke-width="1" opacity="0.996078431372549" d="M 506.5 102 L 507 104.5 L 506 104.5 L 506.5 102 Z " /><path fill="rgb(58,48,43)" stroke="rgb(58,48,43)" stroke-width="1" opacity="0.996078431372549" d="M 5.5 105 L 6 108.5 L 5 108.5 L 5.5 105 Z " /><path fill="rgb(58,48,43)" stroke="rgb(58,48,43)" stroke-width="1" opacity="0.996078431372549" d="M 213.5 106 L 216.5 110 L 213.5 106 Z " /><path fill="rgb(58,48,43)" stroke="rgb(58,48,43)" stroke-width="1" opacity="0.996078431372549" d="M 297.5 107 L 294.5 111 L 297.5 107 Z " /><path fill="rgb(58,48,43)" stroke="rgb(58,48,43)" stroke-width="1" opacity="0.996078431372549" d="M 221.5 115 L 225.5 120 L 221.5 115 Z " /><path fill="rgb(58,48,43)" stroke="rgb(58,48,43)" stroke-width="1" opacity="0.996078431372549" d="M 289.5 116 L 286.5 120 L 289.5 116 Z " /><path fill="rgb(58,48,43)" stroke="rgb(58,48,43)" stroke-width="1" opacity="0.996078431372549" d="M 230.5 125 L 233.5 129 L 230.5 125 Z " /><path fill="rgb(58,48,43)" stroke="rgb(58,48,43)" stroke-width="1" opacity="0.996078431372549" d="M 281.5 125 L 277.5 130 L 281.5 125 Z " /><path fill="rgb(58,48,43)" stroke="rgb(58,48,43)" stroke-width="1" opacity="0.996078431372549" d="M 502.5 126 L 501.5 128 L 502.5 126 Z " /><path fill="rgb(58,48,43)" stroke="rgb(58,48,43)" stroke-width="1" opacity="0.996078431372549" d="M 12.5 129 L 15.5 133 L 12.5 129 Z " /><path fill="rgb(58,48,43)" stroke="rgb(58,48,43)" stroke-width="1" opacity="0.996078431372549" d="M 495.5 132 L 491.5 137 L 495.5 132 Z " /><path fill="rgb(58,48,43)" stroke="rgb(58,48,43)" stroke-width="1" opacity="0.996078431372549" d="M 238.5 134 L 242.5 139 L 238.5 134 Z " /><path fill="rgb(58,48,43)" stroke="rgb(58,48,43)" stroke-width="1" opacity="0.996078431372549" d="M 273.5 134 L 269.5 139 L 273.5 134 Z " /><path fill="rgb(58,48,43)" stroke="rgb(58,48,43)" stroke-width="1" opacity="0.996078431372549" d="M 21.5 137 L 25.5 142 L 21.5 137 Z " /><path fill="rgb(58,48,43)" stroke="rgb(58,48,43)" stroke-width="1" opacity="0.996078431372549" d="M 485.5 141 L 482.5 145 L 485.5 141 Z " /><path fill="rgb(58,48,43)" stroke="rgb(58,48,43)" stroke-width="1" opacity="0.996078431372549" d="M 247.5 144 L 251.5 149 L 247.5 144 Z " /><path fill="rgb(58,48,43)" stroke="rgb(58,48,43)" stroke-width="1" opacity="0.996078431372549" d="M 264.5 144 L 261.5 148 L 264.5 144 Z " /><path fill="rgb(58,48,43)" stroke="rgb(58,48,43)" stroke-width="1" opacity="0.996078431372549" d="M 31.5 146 L 35.5 151 L 31.5 146 Z " /><path fill="rgb(58,48,43)" stroke="rgb(58,48,43)" stroke-width="1" opacity="0.996078431372549" d="M 476.5 149 L 472.5 154 L 476.5 149 Z " /><path fill="rgb(58,48,43)" stroke="rgb(58,48,43)" stroke-width="1" opacity="0.996078431372549" d="M 41.5 155 L 44.5 159 L 41.5 155 Z " /><path fill="rgb(58,48,43)" stroke="rgb(58,48,43)" stroke-width="1" opacity="0.996078431372549" d="M 466.5 158 L 462.5 163 L 466.5 158 Z " /><path fill="rgb(58,48,43)" stroke="rgb(58,48,43)" stroke-width="1" opacity="0.996078431372549" d="M 50.5 163 L 54.5 168 L 50.5 163 Z " /><path fill="rgb(58,48,43)" stroke="rgb(58,48,43)" stroke-width="1" opacity="0.996078431372549" d="M 457.5 166 L 453.5 171 L 457.5 166 Z " /><path fill="rgb(58,48,43)" stroke="rgb(58,48,43)" stroke-width="1" opacity="0.996078431372549" d="M 60.5 172 L 64.5 177 L 60.5 172 Z " /><path fill="rgb(58,48,43)" stroke="rgb(58,48,43)" stroke-width="1" opacity="0.996078431372549" d="M 447.5 175 L 443.5 180 L 447.5 175 Z " /><path fill="rgb(58,48,43)" stroke="rgb(58,48,43)" stroke-width="1" opacity="0.996078431372549" d="M 70.5 181 L 73.5 185 L 70.5 181 Z " /><path fill="rgb(58,48,43)" stroke="rgb(58,48,43)" stroke-width="1" opacity="0.996078431372549" d="M 438.5 183 L 434.5 188 L 438.5 183 Z " /><path fill="rgb(58,48,43)" stroke="rgb(58,48,43)" stroke-width="1" opacity="0.996078431372549" d="M 79.5 189 L 83.5 194 L 79.5 189 Z " /><path fill="rgb(58,48,43)" stroke="rgb(58,48,43)" stroke-width="1" opacity="0.996078431372549" d="M 428.5 192 L 424.5 197 L 428.5 192 Z " /><path fill="rgb(58,48,43)" stroke="rgb(58,48,43)" stroke-width="1" opacity="0.996078431372549" d="M 89.5 198 L 93.5 203 L 89.5 198 Z " /><path fill="rgb(58,48,43)" stroke="rgb(58,48,43)" stroke-width="1" opacity="0.996078431372549" d="M 418.5 201 L 415.5 205 L 418.5 201 Z " /><path fill="rgb(58,48,43)" stroke="rgb(58,48,43)" stroke-width="1" opacity="0.996078431372549" d="M 99.5 207 L 103.5 212 L 99.5 207 Z " /><path fill="rgb(58,48,43)" stroke="rgb(58,48,43)" stroke-width="1" opacity="0.996078431372549" d="M 409.5 209 L 405.5 214 L 409.5 209 Z " /><path fill="rgb(58,48,43)" stroke="rgb(58,48,43)" stroke-width="1" opacity="0.996078431372549" d="M 108.5 215 L 112.5 220 L 108.5 215 Z " /><path fill="rgb(58,48,43)" stroke="rgb(58,48,43)" stroke-width="1" opacity="0.996078431372549" d="M 399.5 218 L 396.5 222 L 399.5 218 Z " /><path fill="rgb(58,48,43)" stroke="rgb(58,48,43)" stroke-width="1" opacity="0.996078431372549" d="M 118.5 224 L 122.5 229 L 118.5 224 Z " /><path fill="rgb(58,48,43)" stroke="rgb(58,48,43)" stroke-width="1" opacity="0.996078431372549" d="M 390.5 226 L 386.5 231 L 390.5 226 Z " /><path fill="rgb(58,48,43)" stroke="rgb(58,48,43)" stroke-width="1" opacity="0.996078431372549" d="M 128.5 233 L 132.5 238 L 128.5 233 Z " /><path fill="rgb(58,48,43)" stroke="rgb(58,48,43)" stroke-width="1" opacity="0.996078431372549" d="M 380.5 235 L 377.5 239 L 380.5 235 Z " /><path fill="rgb(58,48,43)" stroke="rgb(58,48,43)" stroke-width="1" opacity="0.996078431372549" d="M 138.5 242 L 141.5 246 L 138.5 242 Z " /><path fill="rgb(58,48,43)" stroke="rgb(58,48,43)" stroke-width="1" opacity="0.996078431372549" d="M 371.5 243 L 367.5 248 L 371.5 243 Z " /><path fill="rgb(58,48,43)" stroke="rgb(58,48,43)" stroke-width="1" opacity="0.996078431372549" d="M 147.5 250 L 151.5 255 L 147.5 250 Z " /><path fill="rgb(58,48,43)" stroke="rgb(58,48,43)" stroke-width="1" opacity="0.996078431372549" d="M 361.5 252 L 358.5 256 L 361.5 252 Z " /><path fill="rgb(58,48,43)" stroke="rgb(58,48,43)" stroke-width="1" opacity="0.996078431372549" d="M 157.5 259 L 160 262.5 L 155 266.5 L 159 261.5 L 157.5 259 Z " /><path fill="rgb(58,48,43)" stroke="rgb(58,48,43)" stroke-width="1" opacity="0.996078431372549" d="M 352.5 260 L 355 263.5 L 352 261.5 L 352.5 260 Z " /><path fill="rgb(58,48,43)" stroke="rgb(58,48,43)" stroke-width="1" opacity="0.996078431372549" d="M 359.5 269 L 363.5 274 L 359.5 269 Z " /><path fill="rgb(58,48,43)" stroke="rgb(58,48,43)" stroke-width="1" opacity="0.996078431372549" d="M 150.5 272 L 145.5 278 L 150.5 272 Z " /><path fill="rgb(58,48,43)" stroke="rgb(58,48,43)" stroke-width="1" opacity="0.996078431372549" d="M 367.5 278 L 371.5 283 L 367.5 278 Z " /><path fill="rgb(58,48,43)" stroke="rgb(58,48,43)" stroke-width="1" opacity="0.996078431372549" d="M 140.5 283 L 136.5 288 L 140.5 283 Z " /><path fill="rgb(58,48,43)" stroke="rgb(58,48,43)" stroke-width="1" opacity="0.996078431372549" d="M 376.5 288 L 379.5 292 L 376.5 288 Z " /><path fill="rgb(58,48,43)" stroke="rgb(58,48,43)" stroke-width="1" opacity="0.996078431372549" d="M 412.5 292 L 413.5 294 L 412.5 292 Z " /><path fill="rgb(58,48,43)" stroke="rgb(58,48,43)" stroke-width="1" opacity="0.996078431372549" d="M 130.5 294 L 126.5 299 L 130.5 294 Z " /><path fill="rgb(58,48,43)" stroke="rgb(58,48,43)" stroke-width="1" opacity="0.996078431372549" d="M 384.5 297 L 388.5 302 L 384.5 297 Z " /><path fill="rgb(58,48,43)" stroke="rgb(58,48,43)" stroke-width="1" opacity="0.996078431372549" d="M 441.5 321 L 442.5 323 L 441.5 321 Z " /><path fill="rgb(58,48,43)" stroke="rgb(58,48,43)" stroke-width="1" opacity="0.996078431372549" d="M 69.5 332 L 70.5 334 L 69.5 332 Z " /><path fill="rgb(58,48,43)" stroke="rgb(58,48,43)" stroke-width="1" opacity="0.996078431372549" d="M 71.5 335 L 94.5 359 L 71.5 335 Z " /><path fill="rgb(58,48,43)" stroke="rgb(58,48,43)" stroke-width="1" opacity="0.996078431372549" d="M 440.5 335 L 417.5 359 L 440.5 335 Z " /><path fill="rgb(58,48,43)" stroke="rgb(58,48,43)" stroke-width="1" opacity="0.996078431372549" d="M 255.5 347 L 260 350.5 L 256.5 348 L 252.5 351 L 255.5 347 Z " /><path fill="rgb(58,48,43)" stroke="rgb(58,48,43)" stroke-width="1" opacity="0.996078431372549" d="M 264.5 354 L 268.5 359 L 264.5 354 Z " /><path fill="rgb(58,48,43)" stroke="rgb(58,48,43)" stroke-width="1" opacity="0.996078431372549" d="M 246.5 355 L 243.5 359 L 246.5 355 Z " /><path fill="rgb(58,48,43)" stroke="rgb(58,48,43)" stroke-width="1" opacity="0.996078431372549" d="M 237.5 363 L 233.5 368 L 237.5 363 Z " /><path fill="rgb(58,48,43)" stroke="rgb(58,48,43)" stroke-width="1" opacity="0.996078431372549" d="M 274.5 363 L 277.5 367 L 274.5 363 Z " /><path fill="rgb(58,48,43)" stroke="rgb(58,48,43)" stroke-width="1" opacity="0.996078431372549" d="M 228.5 371 L 224.5 376 L 228.5 371 Z " /><path fill="rgb(58,48,43)" stroke="rgb(58,48,43)" stroke-width="1" opacity="0.996078431372549" d="M 283.5 371 L 286.5 375 L 283.5 371 Z " /><path fill="rgb(58,48,43)" stroke="rgb(58,48,43)" stroke-width="1" opacity="0.996078431372549" d="M 292.5 379 L 296.5 384 L 292.5 379 Z " /><path fill="rgb(58,48,43)" stroke="rgb(58,48,43)" stroke-width="1" opacity="0.996078431372549" d="M 218.5 380 L 215.5 384 L 218.5 380 Z " /><path fill="rgb(58,48,43)" stroke="rgb(58,48,43)" stroke-width="1" opacity="0.996078431372549" d="M 301.5 387 L 303.5 390 L 301.5 387 Z " /><path fill="rgb(58,48,43)" stroke="rgb(58,48,43)" stroke-width="1" opacity="0.996078431372549" d="M 209.5 388 L 208.5 390 L 209.5 388 Z " /><path fill="rgb(58,48,43)" stroke="rgb(58,48,43)" stroke-width="1" opacity="0.996078431372549" d="M 210.5 393 L 214.5 398 L 210.5 393 Z " /><path fill="rgb(58,48,43)" stroke="rgb(58,48,43)" stroke-width="1" opacity="0.996078431372549" d="M 294.5 414 L 320.5 441 L 294.5 414 Z " /><path fill="rgb(58,48,43)" stroke="rgb(58,48,43)" stroke-width="1" opacity="0.996078431372549" d="M 151.5 417 L 176 440.5 L 152.5 418 L 67.5 502 L 151.5 417 Z " /><path fill="rgb(58,48,43)" stroke="rgb(58,48,43)" stroke-width="1" opacity="0.996078431372549" d="M 358.5 417 L 335.5 441 L 358.5 417 Z " /><path fill="rgb(58,48,43)" stroke="rgb(58,48,43)" stroke-width="1" opacity="0.996078431372549" d="M 360.5 417 L 443.5 501 L 360.5 417 Z " /><path fill="rgb(58,48,43)" stroke="rgb(58,48,43)" stroke-width="1" opacity="0.996078431372549" d="M 493.5 435 L 500.5 443 L 493.5 435 Z " /><path fill="rgb(58,48,43)" stroke="rgb(58,48,43)" stroke-width="1" opacity="0.996078431372549" d="M 333.5 441 L 332.5 443 L 333.5 441 Z " /><path fill="rgb(58,48,43)" stroke="rgb(58,48,43)" stroke-width="1" opacity="0.996078431372549" d="M 10.5 444 L 8.5 447 L 10.5 444 Z " /><path fill="rgb(58,48,43)" stroke="rgb(58,48,43)" stroke-width="1" opacity="0.996078431372549" d="M 502.5 445 L 504.5 448 L 502.5 445 Z " /><path fill="rgb(58,48,43)" stroke="rgb(58,48,43)" stroke-width="1" opacity="0.996078431372549" d="M 0.5 469 L 1 472.5 L 0 472.5 L 0.5 469 Z " /><path fill="rgb(58,48,43)" stroke="rgb(58,48,43)" stroke-width="1" opacity="0.996078431372549" d="M 511.5 469 L 512 472.5 L 511 472.5 L 511.5 469 Z " /><path fill="rgb(58,48,43)" stroke="rgb(58,48,43)" stroke-width="1" opacity="0.996078431372549" d="M 7.5 493 L 8.5 495 L 7.5 493 Z " /><path fill="rgb(58,48,43)" stroke="rgb(58,48,43)" stroke-width="1" opacity="0.996078431372549" d="M 504.5 493 L 502.5 496 L 504.5 493 Z " /><path fill="rgb(58,48,43)" stroke="rgb(58,48,43)" stroke-width="1" opacity="0.996078431372549" d="M 11.5 498 L 13.5 501 L 11.5 498 Z " /><path fill="rgb(58,48,43)" stroke="rgb(58,48,43)" stroke-width="1" opacity="0.996078431372549" d="M 495.5 502 L 494.5 504 L 495.5 502 Z " /><path fill="rgb(58,48,43)" stroke="rgb(58,48,43)" stroke-width="1" opacity="0.996078431372549" d="M 17.5 503 L 18.5 505 L 17.5 503 Z " /><path fill="rgb(58,48,43)" stroke="rgb(58,48,43)" stroke-width="1" opacity="0.996078431372549" d="M 447.5 503 L 448.5 505 L 447.5 503 Z " /><path fill="rgb(58,48,43)" stroke="rgb(58,48,43)" stroke-width="1" opacity="1" d="M 9.5 1 L 119.5 6 L 123.5 7 L 135 18.5 L 256.5 154 L 386.5 8 L 390.5 6 L 400.5 6 L 401.5 5 L 441.5 4 L 442.5 3 L 482.5 2 L 483.5 1 L 503.5 1 L 510 6.5 Q 512.5 12 511 21.5 L 510 22.5 L 510 41.5 L 509 42.5 L 509 61.5 L 508 62.5 L 506 118.5 Q 504.1 128.1 496.5 132 L 353.5 260 L 352 260 L 352 261.5 L 390.5 304 Q 396 294.5 407.5 291 L 414.5 294 L 441 320.5 L 444 328.5 L 442 333.5 L 417 359.5 L 502 444.5 L 509 455.5 L 511 462.5 L 511 478.5 Q 507 493.5 496.5 502 Q 486.5 512 465.5 511 Q 453.9 509.1 446.5 503 L 360.5 417 L 358.5 417 L 334.5 441 Q 331.9 444.4 324.5 443 L 293 412.5 L 292 404.5 L 304 389.5 L 255.5 347 L 208 389.5 L 219 403.5 L 220 409.5 L 217 415.5 L 191.5 441 Q 188.7 444.7 181.5 444 L 177.5 442 L 151.5 417 L 64.5 504 L 55.5 509 L 48.5 511 L 33.5 511 Q 17.8 506.8 9 495.5 L 3 485.5 L 1 478.5 L 1 462.5 Q 3.9 450.9 11 443.5 L 95 358.5 L 71 334.5 L 68 327.5 L 71 320.5 L 97.5 294 Q 100.4 290.4 108.5 292 L 121.5 304 L 160 261.5 L 9 126.5 L 6 119.5 L 1 8.5 L 5.5 3 L 9.5 1 Z M 23 23 L 27 114 L 175 244 L 200 216 L 158 174 L 149 164 Q 148 157 151 154 L 159 149 L 167 151 L 215 199 L 240 171 L 118 33 L 111 27 L 92 27 L 91 26 L 72 26 L 71 25 L 31 24 L 30 23 L 23 23 Z M 484 23 L 483 24 L 464 24 L 463 25 L 444 25 L 443 26 L 423 26 L 422 27 L 403 27 L 399 28 L 140 316 L 137 319 L 157 338 L 345 150 L 349 148 L 357 148 L 361 151 L 363 156 Q 364 163 361 166 L 173 354 L 192 373 L 194 373 L 477 121 L 484 114 L 485 109 L 487 50 L 488 49 L 488 29 L 489 28 Q 491 20 484 23 Z M 336 276 L 318 292 L 313 298 L 355 339 L 374 320 L 336 276 Z M 296 312 L 277 328 L 273 333 L 319 374 L 339 355 L 296 312 Z M 105 318 L 95 328 L 184 417 L 189 413 L 194 408 L 105 318 Z M 408 318 L 318 408 L 329 417 L 346 398 L 390 356 L 417 329 L 417 327 L 408 318 Z M 111 375 L 103 382 L 91 394 L 117 419 L 119 419 L 134 405 L 137 402 L 111 375 Z M 402 375 L 375 401 L 394 420 L 420 394 L 402 375 Z M 436 409 L 409 436 L 429 455 L 455 430 L 436 409 Z M 76 410 L 56 430 L 81 455 L 83 455 L 99 440 L 102 436 L 76 410 Z M 39 447 Q 29 453 24 465 Q 22 478 28 483 L 37 488 L 47 488 L 55 483 L 65 472 L 41 447 L 39 447 Z M 472 447 L 461 457 L 446 473 L 459 485 L 465 488 L 475 488 L 483 483 L 485 483 L 489 475 L 488 464 L 483 457 L 474 447 L 472 447 Z " /></svg>