<svg width="512" height="512" version="1.1" xmlns="http://www.w3.org/2000/svg" desc="Created with imagetracer.js version 1.2.6" ><path fill="rgb(248,253,255)" stroke="rgb(248,253,255)" stroke-width="1" opacity="0.9764705882352941" d="M 133.5 314 L 142.5 314 L 151 320.5 L 154 329.5 L 155 348.5 L 161 368.5 Q 170.6 390.9 187.5 406 Q 201.3 418.7 220.5 426 L 239.5 431 L 259.5 432 L 269 438.5 L 272 444.5 L 272 451.5 L 265.5 461 Q 259.7 466.2 246.5 464 L 245.5 463 L 230.5 462 L 218.5 459 L 193.5 449 Q 171.3 436.7 155 418.5 Q 138.3 400.2 129 374.5 L 122 344.5 L 122 325.5 L 127.5 317 L 133.5 314 Z " /><path fill="rgb(0,0,0)" stroke="rgb(0,0,0)" stroke-width="1" opacity="0" d="M 0 0 L 255 0.5 Q 179.4 94.4 118 202.5 L 100 237.5 L 84 275.5 L 75 307.5 L 74 321.5 L 73 322.5 L 73 337.5 L 74 338.5 L 74 351.5 L 75 352.5 L 77 369.5 L 82 387.5 L 92 411.5 Q 107.5 442 131.5 464 Q 153.5 485 183.5 498 L 202.5 505 L 218.5 509 L 237 511.5 L 0 512 L 0 0 Z " /><path fill="rgb(0,0,0)" stroke="rgb(0,0,0)" stroke-width="1" opacity="0" d="M 257.5 0 L 512 0 L 512 512 L 275 511.5 L 293.5 509 L 309.5 505 L 328.5 498 Q 365.7 481.7 391 453.5 Q 405.9 437.4 417 417.5 L 430 387.5 L 435 369.5 L 436 358.5 L 438 351.5 L 439 322.5 L 438 321.5 L 438 314.5 L 435 298.5 L 422 260.5 Q 404 219 382 181.5 Q 354 134 323 89.5 L 257.5 0 Z " /><path fill="rgb(131,219,255)" stroke="rgb(131,219,255)" stroke-width="1" opacity="0.9921568627450981" d="M 255.5 0 L 260 3.5 L 323 89.5 Q 362.1 145.4 396 206.5 L 422 260.5 L 433 291.5 L 438 314.5 L 439 337.5 L 438 338.5 L 438 351.5 L 436 358.5 L 436 364.5 L 431 384.5 L 420 411.5 Q 404.5 442 380.5 464 Q 365.2 478.2 346.5 489 L 328.5 498 L 312.5 504 L 293.5 509 L 275.5 511 L 274.5 512 L 237.5 512 L 202.5 505 L 183.5 498 Q 147.2 481.8 122 454.5 Q 106.5 438 95 417.5 L 82 387.5 L 76 364.5 L 76 358.5 L 74 351.5 L 73 322.5 L 74 321.5 L 74 314.5 L 77 298.5 L 89 262.5 L 100 237.5 L 123 193.5 Q 182.8 90.3 255.5 0 Z M 256 2 Q 187 87 130 184 L 116 209 L 92 259 L 79 296 L 74 323 L 74 338 L 75 339 L 76 358 L 84 390 Q 97 425 120 451 Q 141 474 170 490 L 187 498 L 204 504 L 215 506 L 219 508 L 231 509 L 238 511 L 275 511 L 282 509 L 294 508 L 298 506 L 309 504 L 326 498 L 343 490 Q 362 479 378 465 Q 407 439 424 401 L 434 369 L 436 352 L 437 351 L 437 339 L 438 338 L 438 323 L 437 322 L 436 309 L 427 277 L 410 237 L 394 206 Q 363 149 327 98 L 260 6 L 256 2 Z " /><path fill="rgb(132,219,255)" stroke="rgb(132,219,255)" stroke-width="1" opacity="1" d="M 255.5 2 L 260 5.5 L 327 97.5 Q 362.8 149.2 394 205.5 L 410 236.5 L 427 276.5 L 436 308.5 L 437 321.5 L 438 322.5 L 438 337.5 L 437 338.5 L 437 350.5 L 436 351.5 L 434 368.5 L 424 400.5 Q 407.1 439.1 377.5 465 Q 361.7 479.2 342.5 490 L 325.5 498 L 308.5 504 L 297.5 506 L 293.5 508 L 281.5 509 L 274.5 511 L 237.5 511 L 230.5 509 L 218.5 508 L 214.5 506 L 203.5 504 L 186.5 498 L 169.5 490 Q 140.8 474.2 120 450.5 Q 96.7 425.3 84 389.5 L 76 357.5 L 75 338.5 L 74 337.5 L 74 322.5 L 79 295.5 L 92 258.5 L 116 208.5 L 130 183.5 Q 187.1 87.1 255.5 2 Z M 134 314 L 128 317 L 122 326 L 122 345 L 129 375 Q 138 400 155 419 Q 171 437 194 449 L 219 459 L 231 462 L 246 463 L 247 464 Q 260 466 266 461 L 272 452 L 272 445 L 269 439 L 260 432 L 240 431 L 221 426 Q 201 419 188 406 Q 171 391 161 369 L 155 349 L 154 330 L 151 321 L 143 314 L 134 314 Z " /></svg>